<?xml version="1.0" ?>
<svg xmlns="http://www.w3.org/2000/svg" viewBox="0 0 1398 730">
<g transform="translate(0,730) scale(0.1,-0.1)"
fill="#d12727" stroke="none">
<path d="M8380 7123 c-30 -16 -60 -50 -90 -103 -7 -12 -22 -11 -112 8 -129 28
-226 38 -497 53 l-216 12 -155 -33 c-166 -34 -252 -64 -306 -105 -41 -32 -43
-53 -6 -87 87 -82 281 -134 537 -144 144 -6 533 12 683 32 l42 5 0 -265 c0
-215 -3 -267 -14 -279 -16 -16 -124 -31 -326 -47 -74 -6 -164 -15 -200 -20
-36 -5 -101 -14 -145 -20 -510 -71 -1074 -243 -1573 -480 -340 -161 -581 -303
-974 -572 -91 -63 -180 -121 -197 -127 -26 -11 -43 -9 -128 14 -162 46 -667
190 -835 239 -333 97 -472 137 -735 210 -149 42 -277 76 -282 76 -8 0 -11 -75
-11 -234 l0 -233 80 -7 c248 -20 526 -183 670 -392 100 -144 124 -269 118
-616 -1 -124 -5 -228 -8 -230 -3 -2 -101 -1 -218 2 -174 4 -215 8 -223 20 -6
9 -8 46 -4 90 27 361 5 667 -55 766 -37 59 -74 53 -109 -18 -51 -107 -72 -339
-58 -634 6 -105 7 -203 3 -218 -3 -14 -20 -38 -36 -53 -25 -22 -30 -34 -30
-70 0 -38 5 -49 36 -77 l37 -34 -6 -68 c-3 -38 -11 -112 -17 -164 -26 -202 12
-563 67 -647 12 -18 23 -23 46 -21 25 2 35 11 54 48 72 142 98 543 50 770 -8
36 -13 67 -11 69 8 9 411 2 436 -8 23 -9 27 -18 34 -67 11 -91 -2 -399 -21
-489 -47 -222 -207 -418 -430 -524 -93 -45 -178 -72 -325 -101 -57 -12 -107
-23 -109 -26 -10 -9 -13 -664 -4 -664 28 0 309 128 528 241 238 122 531 290
561 322 19 19 260 349 433 589 46 65 68 88 85 88 23 0 65 -26 331 -202 438
-289 936 -534 1454 -714 85 -30 155 -54 156 -54 1 0 5 -44 9 -97 9 -129 53
-316 125 -530 10 -29 16 -54 15 -56 -9 -8 -376 1 -385 10 -7 7 -7 46 0 119 16
174 -11 476 -45 505 -20 16 -52 1 -69 -31 -36 -69 -46 -155 -44 -378 2 -204 0
-220 -20 -259 -28 -56 -27 -89 4 -117 l26 -24 -13 -93 c-19 -135 -15 -359 6
-432 20 -67 53 -111 77 -102 51 19 82 195 77 435 l-3 175 75 6 c123 10 292 10
332 -1 52 -15 74 -46 178 -247 50 -98 120 -219 155 -268 124 -173 287 -313
412 -352 148 -45 698 -68 1498 -60 575 6 852 16 985 38 176 28 231 87 438 469
119 221 168 318 161 324 -8 8 -231 15 -679 21 -579 9 -667 20 -730 92 -87 99
-92 206 -15 307 63 83 177 97 715 91 184 -3 490 -6 678 -7 l344 -3 111 184
112 184 155 53 c85 30 216 74 290 100 590 203 1139 483 1554 793 346 257 800
672 855 779 28 54 26 98 -5 201 -55 182 -186 414 -350 621 -97 123 -341 360
-482 470 -644 498 -1527 895 -2532 1139 -436 105 -922 178 -1345 201 -275 15
-396 27 -409 40 -14 14 -12 450 1 495 12 36 21 37 178 6 254 -50 909 -10 1056
65 14 7 32 27 39 44 36 88 -77 157 -324 197 -133 21 -484 21 -696 -1 -85 -8
-182 -18 -215 -21 l-61 -6 -33 46 c-55 77 -117 100 -181 68z m-117 -5686 c75
-16 110 -37 144 -87 65 -94 55 -227 -23 -303 -64 -64 -51 -62 -489 -63 -371
-1 -657 7 -731 21 -17 3 -50 21 -73 41 -75 64 -104 156 -81 253 21 89 61 122
179 146 95 20 974 14 1074 -8z"/>
<path d="M280 3831 c-100 -67 -132 -185 -71 -267 37 -51 59 -70 104 -89 94
-39 208 1 255 90 8 17 16 57 16 91 1 51 -4 68 -29 110 -41 66 -92 94 -171 94
-51 0 -68 -5 -104 -29z"/>
<path d="M930 3831 c-100 -67 -132 -185 -71 -267 37 -51 59 -70 104 -89 94
-39 208 1 255 90 8 17 16 57 16 91 1 51 -4 68 -29 110 -41 66 -92 94 -171 94
-51 0 -68 -5 -104 -29z"/>
<path d="M1610 3831 c-100 -67 -132 -185 -71 -267 37 -51 59 -70 104 -89 94
-39 208 1 255 90 8 17 16 57 16 91 1 51 -4 68 -29 110 -41 66 -92 94 -171 94
-51 0 -68 -5 -104 -29z"/>
<path d="M2320 3831 c-100 -67 -132 -185 -71 -267 37 -51 59 -70 104 -89 94
-39 208 1 255 90 8 17 16 57 16 91 1 51 -4 68 -29 110 -41 66 -92 94 -171 94
-51 0 -68 -5 -104 -29z"/>
</g>
</svg>
