<svg xmlns="http://www.w3.org/2000/svg" viewBox="0 0 360.000000 158.000000">
<g transform="translate(0,158) scale(0.1,-0.1)"
fill="white" stroke="none">
<path d="M160 1474 c-47 -57 -88 -104 -92 -104 -5 0 -8 7 -8 15 0 8 -4 15 -10
15 -6 0 -10 -67 -10 -181 l0 -180 127 -150 c71 -83 130 -155 132 -161 2 -7
-19 -9 -66 -6 -39 3 -77 1 -86 -3 -22 -13 -77 -102 -77 -126 0 -11 -7 -41 -16
-68 -16 -46 -16 -49 1 -62 11 -7 33 -13 49 -13 22 0 27 3 17 9 -11 7 -5 18 25
50 49 50 74 47 110 -15 14 -24 30 -44 35 -44 5 0 17 -16 27 -36 19 -36 19 -37
-6 -98 -14 -33 -42 -87 -64 -119 -34 -50 -43 -58 -66 -54 -15 2 -21 2 -14 0
14 -5 16 -23 2 -23 -6 0 -19 5 -30 12 -23 14 -41 2 -20 -13 12 -9 11 -9 -5 -4
-27 10 -63 17 -47 9 6 -3 12 -12 12 -20 0 -12 -5 -12 -36 1 -43 18 -44 18 -44
5 0 -5 7 -10 16 -10 8 0 12 -4 9 -10 -3 -5 -1 -10 6 -10 10 0 10 -3 1 -12 -8
-8 -5 -14 15 -25 14 -7 34 -13 44 -13 12 0 16 -5 13 -15 -9 -21 12 -19 36 5
24 24 55 27 46 5 -7 -20 6 -19 35 4 14 10 50 22 82 26 31 4 55 10 53 14 -2 3
24 4 57 2 l62 -3 -19 21 c-20 21 -20 22 1 42 18 19 34 21 164 22 90 1 143 6
142 12 -1 6 30 9 83 7 51 -2 84 0 84 6 0 6 -6 13 -12 15 -7 3 19 6 59 6 69 1
123 15 123 33 0 4 6 8 13 8 16 0 127 71 127 81 0 5 -84 9 -187 9 -177 0 -188
1 -220 23 -18 12 -33 26 -33 30 0 4 22 41 50 82 41 60 56 97 86 202 32 117 43
140 120 261 46 73 84 135 84 137 0 3 -8 5 -17 5 -11 1 -5 6 14 15 26 11 65 55
49 55 -2 0 9 13 25 29 38 39 38 56 -1 36 -46 -24 -36 -11 20 25 32 21 59 47
72 73 l20 40 -53 -37 c-40 -28 -46 -30 -23 -9 17 15 42 48 54 73 26 50 29 51
-62 -23 -56 -45 -63 -38 -13 13 33 34 73 110 58 110 -4 0 -41 -33 -82 -72 -75
-74 -79 -74 -31 -3 23 35 54 124 46 132 -2 2 -40 -43 -86 -99 -46 -57 -87
-107 -93 -113 -5 -5 11 31 36 80 40 82 74 195 49 170 -5 -5 -57 -80 -115 -165
-91 -134 -120 -168 -217 -255 -94 -84 -128 -124 -222 -258 -99 -142 -128 -178
-128 -163 0 3 34 57 75 121 41 63 75 119 75 123 -1 4 -30 28 -65 55 -55 40
-65 52 -65 77 0 34 -14 38 -42 13 -15 -13 -18 -14 -18 -1 0 8 7 23 15 34 8 10
15 32 15 49 l0 29 -46 -49 c-50 -55 -51 -53 -12 22 17 30 25 59 21 69 -5 14
-17 6 -60 -42 l-54 -59 40 80 c51 101 55 137 9 80 -18 -22 -48 -56 -66 -75
l-33 -35 46 93 c66 133 56 152 -25 51 -35 -44 -67 -82 -71 -85 -4 -2 17 41 47
96 36 64 54 109 52 125 -3 24 -8 19 -58 -45 -30 -38 -56 -70 -58 -70 -4 0 22
49 59 111 16 29 29 59 27 69 -2 11 -30 -16 -88 -86z"/>
<path d="M2377 1279 c-82 -19 -150 -79 -188 -164 -48 -107 -22 -269 54 -343
69 -67 194 -92 305 -62 39 10 42 13 36 38 -9 36 -5 34 -55 23 -121 -28 -212 8
-261 103 -31 57 -31 174 -1 231 25 48 68 90 106 104 36 14 137 14 172 1 23 -9
27 -7 35 16 15 39 13 42 -40 53 -59 13 -109 13 -163 0z"/>
<path d="M1256 994 c-99 -298 -99 -300 -44 -292 19 2 28 17 54 91 l30 89 93 0
c51 0 97 -4 101 -9 4 -4 18 -39 30 -78 13 -38 27 -76 33 -82 10 -13 59 -18 69
-7 3 3 -37 133 -89 290 l-95 284 -43 0 -43 0 -96 -286z m211 -38 c-3 -11 -152
-10 -151 1 1 4 19 61 39 125 l38 118 38 -118 c21 -64 38 -121 36 -126z"/>
<path d="M1752 993 l3 -288 35 0 35 0 3 128 3 127 104 0 105 0 0 35 0 35 -105
0 -105 0 0 93 0 92 107 0 108 0 3 33 3 32 -151 0 -150 0 2 -287z"/>
<path d="M2722 993 l3 -288 153 -3 152 -3 0 36 0 35 -120 0 -120 0 0 100 0
100 110 0 110 0 0 35 0 35 -110 0 -111 0 3 86 3 86 110 1 110 2 3 33 3 32
-151 0 -150 0 2 -287z"/>
<path d="M3225 1008 c-48 -150 -88 -280 -89 -288 -1 -11 9 -15 34 -15 34 0 34
0 60 82 15 46 29 86 32 89 4 3 48 6 100 6 l93 0 29 -83 c16 -46 34 -87 40 -91
18 -12 66 -9 66 4 0 7 -42 138 -92 290 l-93 278 -46 0 -45 0 -89 -272z m145
167 c0 -8 14 -59 31 -112 17 -54 32 -102 33 -106 1 -8 -141 -13 -149 -5 -2 2
11 52 30 111 19 58 35 114 35 122 0 9 5 13 10 10 6 -3 10 -13 10 -20z"/>
<path d="M2130 645 c-107 -33 -170 -129 -178 -270 -10 -183 91 -306 252 -306
166 0 266 128 253 327 -8 134 -66 218 -173 250 -58 17 -95 17 -154 -1z m155
-74 c66 -38 100 -124 93 -237 -10 -160 -127 -246 -248 -184 -61 31 -93 94 -98
195 -7 126 37 210 124 240 44 15 87 10 129 -14z"/>
<path d="M1402 363 l3 -288 30 0 30 0 -1 233 0 232 29 -52 c67 -120 238 -396
251 -408 8 -6 27 -10 43 -8 l28 3 3 288 2 287 -35 0 -35 0 0 -231 0 -231 -35
67 c-20 37 -62 108 -93 159 -32 50 -77 124 -101 164 -42 70 -45 72 -82 72
l-39 0 2 -287z"/>
<path d="M2623 368 c50 -156 96 -286 102 -290 5 -4 24 -8 42 -8 29 0 32 4 51
58 105 299 171 490 177 505 6 14 1 17 -33 17 l-40 0 -53 -157 c-30 -87 -65
-196 -80 -242 l-26 -85 -11 35 c-6 19 -39 127 -73 242 l-63 207 -42 0 -41 0
90 -282z"/>
<path d="M3185 638 c-51 -136 -183 -554 -176 -561 5 -5 21 -7 37 -5 25 3 30
11 57 90 l29 88 98 0 98 0 29 -87 c30 -88 30 -88 66 -91 25 -2 37 1 37 10 0 7
-42 138 -92 290 l-93 278 -43 0 c-25 0 -45 -5 -47 -12z m55 -94 c0 -9 16 -64
35 -121 19 -58 35 -105 35 -106 0 -1 -36 -1 -81 1 -56 3 -79 7 -76 15 2 7 20
60 38 119 31 99 49 132 49 92z"/>
</g>
</svg>
