<svg xmlns="http://www.w3.org/2000/svg" viewBox="0 0 691 388">
<g transform="translate(0,388) scale(0.1,-0.1)"
fill="white" stroke="none">
<path d="M680 3847 c-20 -10 -29 -27 -42 -82 -16 -62 -16 -71 -3 -92 14 -21
23 -23 95 -23 83 0 97 -7 91 -45 -6 -40 -20 -45 -127 -45 -57 0 -104 -3 -104
-7 0 -5 -3 -18 -6 -30 l-6 -23 134 0 c158 0 162 2 185 101 12 54 12 64 -2 85
-14 22 -22 24 -100 24 -83 0 -85 1 -85 24 0 54 4 56 120 56 103 0 108 1 114
23 12 47 13 47 -116 47 -79 0 -132 -5 -148 -13z"/>
<path d="M967 3688 c-21 -95 -37 -177 -37 -181 0 -5 17 -7 37 -5 34 3 38 6 45
38 19 93 59 278 63 298 5 20 2 22 -33 22 l-39 0 -36 -172z"/>
<path d="M1162 3853 c-34 -7 -48 -37 -76 -167 -30 -139 -32 -172 -10 -180 9
-3 71 -6 139 -6 l123 0 16 73 c9 39 19 87 22 105 l7 33 -94 -3 -94 -3 -3 -27
c-3 -27 -2 -28 49 -28 l52 0 -7 -31 c-3 -17 -6 -38 -6 -45 0 -19 -128 -20
-136 -1 -2 7 6 57 19 112 l23 100 104 3 c109 3 120 7 120 50 0 22 -2 22 -112
21 -62 -1 -123 -4 -136 -6z"/>
<path d="M1421 3703 c-18 -87 -35 -168 -38 -180 -5 -21 -1 -23 34 -23 l39 0
15 73 14 72 68 1 c76 1 75 3 53 -88 l-13 -58 38 0 c32 0 40 4 44 23 19 80 65
305 65 319 0 14 -8 18 -34 18 -38 0 -38 1 -56 -92 l-11 -58 -70 0 c-38 0 -69
3 -69 8 0 4 7 34 15 67 8 33 14 63 15 68 0 4 -17 7 -38 7 l-39 0 -32 -157z"/>
<path d="M1795 3848 c-15 -46 -11 -53 33 -56 23 -2 42 -6 42 -10 0 -10 -50
-243 -56 -264 -4 -15 1 -18 35 -18 23 0 41 2 41 5 0 8 51 248 56 268 4 13 16
17 54 17 41 0 49 3 54 23 12 47 13 47 -124 47 -96 0 -132 -3 -135 -12z"/>
<path d="M2543 3850 c-27 -11 -37 -31 -53 -102 -12 -53 -11 -60 5 -78 15 -17
31 -20 102 -20 l83 0 0 -33 c0 -51 -13 -57 -126 -57 -84 0 -103 -3 -108 -16
-16 -42 -12 -44 123 -44 108 0 132 3 150 18 35 28 55 154 29 180 -7 7 -44 12
-94 12 -90 0 -102 8 -84 55 9 24 13 25 105 26 123 2 117 1 126 24 17 44 15 45
-113 44 -68 0 -133 -4 -145 -9z"/>
<path d="M2895 3850 c-12 -4 -26 -14 -33 -22 -20 -25 -72 -289 -61 -310 9 -16
24 -18 133 -18 163 0 159 -4 197 170 35 163 36 168 3 180 -30 12 -211 12 -239
0z m178 -67 c7 -11 -33 -195 -45 -210 -15 -19 -137 -17 -144 2 -6 15 23 168
38 198 7 14 22 17 78 17 38 0 71 -3 73 -7z"/>
<path d="M3230 3857 c0 -2 -9 -45 -21 -97 -11 -52 -27 -126 -34 -163 -18 -95
-16 -97 140 -97 119 0 124 1 143 24 11 15 29 77 46 158 15 73 30 143 33 156 5
22 3 23 -33 20 l-39 -3 -28 -135 c-16 -74 -33 -141 -39 -147 -15 -18 -137 -17
-144 0 -2 7 7 67 21 133 33 156 33 154 -10 154 -19 0 -35 -1 -35 -3z"/>
<path d="M3615 3848 c-2 -7 -18 -80 -35 -163 -17 -82 -33 -158 -36 -167 -4
-15 1 -18 34 -18 l39 0 17 83 c10 45 20 89 23 97 2 8 21 -27 43 -80 l38 -95
46 -3 c25 -2 46 0 46 3 0 4 16 78 35 166 19 88 35 167 35 175 0 9 -11 14 -34
14 -39 0 -35 9 -67 -135 -12 -55 -24 -95 -26 -90 -3 6 -21 57 -41 115 l-37
105 -38 3 c-24 2 -39 -1 -42 -10z"/>
<path d="M3957 3853 c-2 -5 -7 -20 -11 -35 l-6 -28 106 0 106 0 -6 -45 c-4
-24 -15 -75 -24 -112 l-17 -68 -67 -3 c-38 -2 -68 -1 -68 2 0 8 30 150 36 169
4 14 -1 17 -35 17 -23 0 -41 -2 -41 -5 0 -3 -11 -57 -25 -121 -14 -64 -25
-117 -25 -120 0 -2 59 -4 130 -4 157 0 160 2 185 117 10 43 23 104 30 136 16
68 12 85 -22 98 -29 11 -240 12 -246 2z"/>
<path d="M4689 3849 c-35 -13 -41 -30 -74 -188 -35 -168 -41 -161 136 -161
123 0 127 1 133 23 3 12 6 25 6 30 0 4 -47 7 -105 7 l-105 0 0 28 c0 23 6 53
35 180 5 21 10 22 114 22 115 0 121 3 121 51 0 18 -8 19 -117 18 -65 0 -130
-5 -144 -10z"/>
<path d="M5024 3846 c-29 -13 -33 -21 -52 -103 -41 -178 -46 -212 -32 -228 20
-24 250 -22 278 3 15 13 29 54 52 162 l31 145 -22 18 c-17 14 -41 17 -123 17
-62 -1 -113 -6 -132 -14z m186 -78 c-1 -29 -35 -182 -44 -197 -10 -15 -143
-15 -148 1 -2 6 4 47 13 91 31 141 19 127 104 127 71 0 75 -1 75 -22z"/>
<path d="M5380 3855 c0 -2 -16 -79 -35 -171 -19 -91 -35 -170 -35 -175 0 -5
16 -9 35 -9 38 0 39 2 65 134 7 32 15 54 19 50 4 -5 23 -48 41 -96 l33 -88 46
0 46 0 34 168 c19 92 36 173 39 180 3 8 -7 12 -32 12 -43 0 -44 -3 -71 -132
-10 -49 -21 -88 -24 -88 -3 0 -23 50 -45 110 l-38 110 -39 0 c-22 0 -39 -2
-39 -5z"/>
<path d="M5716 3838 c-11 -43 -7 -48 34 -48 28 0 40 -4 40 -14 0 -8 -11 -66
-25 -130 -32 -149 -32 -146 9 -146 40 0 35 -12 72 162 l27 127 51 3 c50 3 51
4 54 36 l3 32 -129 0 c-126 0 -130 -1 -136 -22z"/>
<path d="M6026 3844 c-3 -9 -6 -24 -6 -35 0 -17 8 -19 99 -19 110 0 116 -4 97
-60 -11 -35 -11 -35 -79 -38 l-68 -3 6 35 7 34 -38 -2 -38 -2 -26 -127 -27
-127 38 0 38 0 13 63 14 62 44 3 c24 2 54 1 68 -3 25 -6 26 -18 5 -102 -5 -21
-2 -23 34 -23 l40 0 12 70 c7 38 10 74 6 80 -3 5 0 17 8 25 17 16 40 135 31
158 -7 20 -49 27 -169 27 -85 0 -104 -3 -109 -16z"/>
<path d="M6408 3849 c-31 -12 -45 -48 -73 -194 -8 -44 -18 -90 -20 -102 -10
-44 16 -53 146 -53 157 0 154 -3 193 188 23 111 27 145 17 155 -15 15 -226 20
-263 6z m183 -64 c8 -7 -32 -198 -43 -212 -15 -19 -137 -17 -144 1 -6 16 23
171 37 199 8 14 23 17 78 17 37 0 70 -2 72 -5z"/>
<path d="M6750 3856 c0 -3 -16 -77 -35 -165 -19 -88 -35 -167 -35 -175 0 -14
16 -16 104 -16 99 0 104 1 110 23 3 12 6 25 6 30 0 4 -29 7 -65 7 -55 0 -65 3
-65 18 0 9 13 77 29 150 l29 132 -39 0 c-22 0 -39 -2 -39 -4z"/>
<path d="M3930 2998 c-57 -117 -143 -294 -191 -393 -48 -99 -177 -366 -288
-594 -110 -228 -199 -416 -197 -418 6 -6 338 -113 351 -113 8 0 130 232 292
554 153 305 279 553 280 552 2 -2 21 -241 43 -532 22 -291 42 -553 46 -581 l5
-53 210 0 c115 0 209 3 209 8 0 4 -20 349 -45 767 -25 418 -48 817 -52 888
l-6 127 -277 0 -277 0 -103 -212z"/>
<path d="M4830 3163 c0 -27 9 -192 20 -368 10 -176 24 -405 30 -510 6 -104 20
-334 30 -510 11 -176 20 -328 20 -337 0 -17 20 -18 279 -18 l279 0 20 48 c11
26 77 162 145 302 68 140 147 302 175 360 27 58 91 191 142 295 122 250 216
446 306 633 l73 152 -212 0 -212 0 -290 -580 c-159 -319 -293 -580 -297 -580
-5 0 -8 17 -8 39 0 21 -18 273 -40 561 -22 288 -40 531 -40 541 0 18 -12 19
-210 19 l-210 0 0 -47z"/>
<path d="M1370 2759 c-582 -44 -989 -180 -1216 -408 -75 -75 -110 -137 -123
-219 -59 -370 452 -889 1285 -1305 94 -47 200 -98 235 -112 35 -15 102 -43
149 -62 629 -260 1587 -476 2530 -570 252 -25 991 -25 1204 0 221 25 383 54
555 98 142 36 209 59 136 46 -412 -70 -628 -89 -1030 -90 -338 0 -448 6 -785
43 -334 37 -697 101 -1105 196 -177 40 -238 56 -450 113 -117 32 -410 131
-560 189 -469 182 -894 406 -1200 630 -49 37 -92 69 -95 72 -3 3 -34 29 -70
59 -163 137 -311 320 -362 450 -34 86 -32 217 4 294 79 167 317 322 628 407
188 52 407 86 710 111 146 12 730 15 925 5 66 -3 116 -4 110 -1 -17 7 -448 44
-635 55 -207 11 -677 11 -840 -1z"/>
<path d="M2555 2449 c-140 -14 -309 -47 -403 -80 -437 -153 -395 -442 110
-755 845 -523 2571 -837 3398 -618 174 46 309 128 356 215 25 47 25 141 0 194
-29 60 -116 174 -116 152 0 -3 7 -21 15 -40 57 -138 -46 -263 -275 -336 -266
-85 -791 -93 -1285 -20 -854 125 -1665 432 -1948 738 -168 182 -145 334 65
435 132 63 300 97 573 115 104 7 86 8 -140 8 -143 0 -300 -4 -350 -8z"/>
<path d="M1237 2385 c-97 -50 -147 -86 -204 -149 -57 -62 -80 -104 -96 -181
-26 -125 43 -281 195 -440 185 -194 456 -371 827 -540 1105 -504 2706 -788
3716 -660 188 24 520 92 634 131 258 86 446 225 526 388 101 206 0 474 -214
568 l-55 24 45 26 c66 39 136 115 170 183 49 101 41 223 -22 318 -93 141 -309
213 -544 180 l-48 -6 -80 -166 c-44 -91 -82 -170 -86 -176 -3 -5 6 -2 19 8 55
40 189 97 242 103 145 17 252 -87 216 -209 -19 -64 -104 -144 -209 -195 l-85
-41 -16 -98 c-9 -54 -15 -99 -14 -100 1 -1 37 -9 81 -18 152 -31 253 -99 301
-200 97 -204 -113 -388 -546 -479 -1011 -213 -2713 39 -3872 574 -436 201
-758 434 -896 648 -58 90 -77 151 -76 247 0 68 4 88 28 135 16 30 53 78 83
107 29 29 53 53 51 53 -2 0 -34 -16 -71 -35z"/>
<path d="M3992 1938 c-61 -116 -110 -213 -108 -216 2 -2 60 0 129 3 l125 8 -4
36 c-2 20 -9 112 -15 206 -6 93 -11 171 -12 172 -2 1 -53 -93 -115 -209z"/>
</g>
</svg>
