<svg xmlns="http://www.w3.org/2000/svg" viewBox="0 0 1024 200">
    <g transform="translate(0,200) scale(0.1,-0.1)" fill="white" stroke="none">
        <path d="M2830 995 l0 -515 30 0 30 0 0 515 0 515 -30 0 -30 0 0 -515z"/>
        <path d="M5650 994 l0 -515 33 3 32 3 3 513 2 512 -35 0 -35 0 0 -516z"/>
        <path d="M480 1034 l0 -336 178 4 c174 3 179 4 219 30 71 47 101 144 69 221
-14 34 -78 97 -99 97 -6 0 5 14 26 31 86 71 91 166 10 240 -44 41 -84 49 -249
49 l-154 0 0 -336z m346 233 c31 -36 32 -97 4 -138 -26 -36 -72 -49 -177 -49
l-83 0 0 111 0 111 116 -4 c113 -3 116 -4 140 -31z m-51 -257 c59 -13 95 -58
95 -118 0 -93 -47 -122 -200 -122 l-100 0 0 125 0 125 83 0 c45 0 100 -5 122
-10z"/>
        <path d="M3481 1346 c-6 -13 -53 -159 -107 -323 -53 -164 -99 -304 -101 -310
-4 -9 7 -13 34 -13 l40 0 28 95 28 96 125 -3 126 -3 30 -92 30 -93 43 0 c24 0
43 1 43 3 0 1 -49 151 -108 332 l-108 330 -47 3 c-42 3 -48 1 -56 -22z m102
-241 l45 -140 -95 -3 c-53 -1 -97 -1 -99 0 -1 2 18 70 44 151 25 81 49 144 53
140 4 -5 27 -71 52 -148z"/>
        <path d="M3870 1035 l0 -335 40 0 40 0 0 335 0 335 -40 0 -40 0 0 -335z"/>
        <path d="M4100 1035 l0 -335 35 0 35 0 0 335 0 335 -35 0 -35 0 0 -335z"/>
        <path d="M6190 1035 l0 -335 40 0 40 0 0 160 0 160 150 0 150 0 0 -160 0 -160
45 0 45 0 0 335 0 335 -45 0 -45 0 0 -140 0 -140 -150 0 -150 0 0 140 0 140
-40 0 -40 0 0 -335z"/>
        <path d="M8330 1035 l0 -335 40 0 40 0 0 335 0 335 -40 0 -40 0 0 -335z"/>
        <path d="M8577 1323 c-4 -3 -7 -33 -7 -65 l0 -58 -40 0 c-39 0 -40 -1 -40 -35
0 -34 1 -35 40 -35 l40 0 1 -162 c0 -104 5 -176 13 -198 17 -46 67 -80 120
-80 68 0 86 9 86 41 0 27 -2 28 -57 31 -79 4 -83 13 -83 211 l0 157 55 0 55 0
0 35 0 35 -55 0 -55 0 0 65 0 65 -33 0 c-19 0 -37 -3 -40 -7z"/>
        <path d="M1165 1191 c-89 -41 -135 -123 -135 -241 0 -157 83 -259 213 -260 61
0 112 22 159 67 93 91 96 293 5 392 -54 58 -165 78 -242 42z m159 -72 c43 -34
58 -75 59 -158 1 -42 -5 -93 -12 -113 -40 -119 -208 -119 -241 0 -16 59 -12
179 7 219 32 69 131 96 187 52z"/>
        <path d="M1695 1198 c-53 -19 -93 -56 -122 -115 -23 -48 -28 -70 -27 -133 1
-169 98 -272 242 -257 78 8 129 45 167 122 26 52 30 70 29 140 -1 87 -16 132
-61 185 -51 61 -149 86 -228 58z m136 -74 c45 -23 69 -83 69 -174 0 -126 -45
-190 -134 -190 -90 0 -129 58 -130 190 0 93 13 132 60 169 32 25 92 28 135 5z"/>
        <path d="M4414 1191 c-87 -40 -140 -138 -137 -257 1 -104 50 -189 128 -225 87
-40 188 -19 258 52 52 54 58 74 25 83 -38 10 -46 7 -64 -23 -53 -90 -197 -79
-246 19 -10 19 -18 50 -18 68 l0 32 180 0 180 0 0 33 c0 50 -25 123 -55 164
-53 68 -165 93 -251 54z m146 -56 c41 -21 70 -63 70 -101 l0 -34 -134 0 -134
0 8 35 c20 90 114 140 190 100z"/>
        <path d="M4982 1194 c-18 -9 -44 -30 -57 -46 l-25 -30 0 42 0 41 -37 -3 -38
-3 -3 -247 -2 -248 45 0 45 0 0 165 c0 189 8 219 70 254 54 30 95 27 131 -8
l29 -29 0 -191 0 -191 41 0 40 0 -3 204 c-3 224 -5 231 -71 280 -36 27 -122
32 -165 10z"/>
        <path d="M6890 1198 c-48 -13 -95 -51 -110 -88 -11 -27 -11 -33 1 -41 25 -16
57 -10 64 12 12 35 63 59 130 59 81 -1 115 -30 115 -99 l0 -31 -70 0 c-107 0
-167 -17 -212 -59 -83 -78 -63 -204 39 -247 69 -30 165 -12 212 39 28 31 41
27 41 -14 0 -27 3 -29 38 -29 l38 0 -3 88 c-1 48 -4 139 -6 203 -4 137 -21
176 -87 203 -45 18 -136 20 -190 4z m200 -286 c0 -86 -67 -152 -155 -152 -65
0 -95 24 -95 76 0 80 51 111 188 113 l62 1 0 -38z"/>
        <path d="M7460 1199 c-14 -6 -40 -24 -57 -42 l-33 -31 0 37 c0 36 -1 37 -35
37 l-35 0 0 -250 0 -250 40 0 40 0 0 175 c0 190 6 217 54 249 37 24 90 20 123
-8 l28 -24 3 -196 3 -196 40 0 39 0 0 166 c0 133 3 173 16 200 22 46 60 74
100 74 86 0 94 -22 94 -255 l0 -185 40 0 40 0 0 195 c0 213 -6 245 -55 283
-62 49 -149 40 -211 -21 l-42 -42 -15 27 c-33 57 -112 82 -177 57z"/>
        <path d="M8977 1200 c-128 -38 -192 -230 -128 -378 42 -95 118 -139 219 -129
78 8 129 45 167 122 26 52 30 70 29 140 -1 87 -16 132 -61 185 -50 60 -144 84
-226 60z m132 -75 c95 -49 96 -301 2 -349 -67 -35 -141 -14 -174 48 -27 54
-30 195 -4 243 37 68 110 93 176 58z"/>
        <path d="M9530 1199 c-14 -5 -40 -24 -57 -42 l-33 -31 0 38 c0 37 0 37 -37 34
l-38 -3 -3 -247 -2 -248 39 0 39 0 3 163 c4 182 13 210 80 255 45 31 104 25
136 -13 22 -25 23 -33 23 -216 l0 -189 41 0 40 0 -3 204 c-3 224 -5 231 -71
280 -30 22 -119 31 -157 15z"/>
        <path d="M2054 1186 c-3 -8 -4 -23 -2 -33 3 -16 18 -19 119 -23 l117 -5 -129
-180 c-100 -140 -128 -187 -129 -212 l0 -33 185 0 185 0 0 30 0 30 -131 0
c-102 0 -130 3 -126 13 2 7 61 94 131 194 81 117 126 191 126 207 l0 26 -170
0 c-139 0 -172 -3 -176 -14z"/>
        <path d="M8100 951 l0 -251 40 0 40 0 -2 248 -3 247 -37 3 -38 3 0 -250z"/>
    </g>
</svg>