<svg version="1.0" xmlns="http://www.w3.org/2000/svg" viewBox="0 0 819 259">
<g transform="translate(0,259) scale(0.1,-0.1)" fill="#ffffff" stroke="none">
<path d="M717 2053 c-35 -32 -175 -161 -311 -287 l-247 -230 3 -485 3 -486 27
-51 c30 -57 90 -115 145 -141 35 -17 91 -18 793 -18 745 0 756 0 800 21 68 31
106 68 139 136 l31 61 -1 486 0 486 -281 260 c-155 143 -296 271 -314 283 -42
31 -59 25 -139 -50 l-65 -60 -69 61 c-93 82 -111 82 -197 -1 l-64 -61 -22 19
c-13 10 -46 40 -75 66 -28 27 -61 48 -72 48 -11 0 -49 -26 -84 -57z m971 -302
c149 -140 164 -164 121 -195 -12 -8 -29 -12 -38 -8 -17 6 -371 331 -371 340 0
3 14 21 32 39 l32 33 41 -38 c22 -21 104 -98 183 -171z m-843 169 c25 -26 27
-32 15 -44 -8 -7 -78 -71 -155 -142 -201 -186 -211 -193 -235 -187 -27 7 -46
45 -33 67 16 29 348 335 364 335 8 1 28 -13 44 -29z m-6 -304 l32 -33 -68 -65
c-149 -142 -171 -156 -201 -126 -31 31 -14 61 90 160 57 53 105 97 109 98 3 0
20 -15 38 -34z m764 -96 c42 -41 77 -81 77 -89 0 -21 -30 -51 -51 -51 -11 0
-69 46 -130 102 l-110 102 38 32 38 32 30 -26 c17 -15 65 -60 108 -102z m-596
-62 l31 -33 -110 -100 c-60 -55 -116 -104 -124 -108 -21 -12 -64 19 -64 46 0
15 32 53 107 124 60 56 113 102 119 103 5 0 24 -15 41 -32z m403 -64 c58 -53
109 -103 113 -110 12 -22 -2 -54 -29 -66 -28 -13 -42 -3 -179 127 l-90 85 33
30 c18 16 36 30 40 30 4 0 54 -43 112 -96z m-100 -214 l168 -155 1 -247 1
-248 -350 0 -350 0 0 243 0 244 173 161 c94 88 176 160 180 159 5 -2 85 -72
177 -157z"/>
<path d="M7714 2079 c-45 -12 -76 -51 -81 -102 -5 -38 -1 -48 26 -79 36 -42
79 -53 124 -34 52 22 72 52 72 107 0 39 -5 54 -25 74 -32 31 -76 44 -116 34z
m71 -24 c107 -52 41 -212 -72 -174 -78 25 -83 137 -9 173 39 19 41 19 81 1z"/>
<path d="M4251 1342 c-325 -787 -354 -852 -402 -907 l-31 -35 143 0 c134 0
141 1 127 18 -35 39 -32 59 38 243 l69 179 309 -2 309 -3 58 -155 c64 -168 70
-213 38 -254 l-20 -26 196 0 197 0 -31 35 c-17 20 -44 62 -60 93 -15 31 -162
390 -326 797 -164 407 -301 743 -305 747 -3 4 -142 -324 -309 -730z m379 -46
c67 -169 119 -310 117 -312 -2 -3 -114 -3 -250 -2 l-245 3 125 313 c69 172
127 312 128 310 2 -2 58 -142 125 -312z"/>
<path d="M5716 2054 c-280 -68 -422 -359 -299 -611 33 -67 137 -167 230 -221
37 -22 131 -73 208 -113 221 -117 295 -199 295 -328 0 -83 -16 -132 -58 -181
-42 -50 -90 -75 -169 -90 -181 -32 -379 73 -538 285 l-38 50 8 -150 c8 -176 3
-167 150 -239 129 -63 205 -80 355 -80 190 0 315 42 412 136 89 86 133 214
126 367 -4 107 -34 177 -110 257 -70 75 -139 120 -342 227 -94 49 -189 102
-212 118 -61 42 -122 116 -135 163 -26 96 15 210 95 263 62 43 117 57 192 50
120 -11 236 -70 338 -173 l58 -59 -7 115 c-4 63 -9 119 -12 124 -10 16 -135
67 -211 87 -90 23 -248 24 -336 3z"/>
<path d="M3005 2043 c-302 -64 -550 -291 -645 -588 -32 -99 -39 -299 -15 -416
53 -266 218 -473 467 -588 139 -65 198 -76 393 -75 150 1 182 4 269 27 106 28
252 95 282 128 15 16 19 46 26 166 4 81 6 148 5 149 -1 2 -23 -23 -49 -55 -88
-111 -261 -216 -403 -246 -91 -19 -235 -19 -310 0 -89 24 -153 62 -232 141
-57 57 -81 92 -117 166 -68 140 -80 198 -80 368 0 169 13 229 77 360 33 67 59
103 127 171 98 99 171 140 294 165 214 44 467 -56 636 -251 l40 -46 0 69 c0
38 -3 104 -7 146 l-6 77 -66 33 c-93 47 -196 82 -291 100 -103 20 -301 19
-395 -1z"/>
<path d="M6605 2022 c14 -21 30 -63 35 -94 7 -36 10 -298 8 -740 l-3 -683 -26
-53 -26 -52 512 0 511 0 17 108 c10 59 17 110 17 114 0 4 -28 -8 -62 -25 l-61
-32 -324 -3 -323 -3 0 306 0 306 243 -3 c235 -3 243 -4 275 -26 l32 -23 0 120
0 120 -36 -24 c-37 -25 -38 -25 -275 -25 l-239 0 0 305 0 305 274 0 c151 0
286 -4 300 -10 14 -5 44 -26 67 -47 40 -35 42 -36 36 -13 -4 14 -7 67 -7 118
l0 92 -485 0 -485 0 25 -38z"/>
</g>
</svg>
