<svg version="1.0" xmlns="http://www.w3.org/2000/svg" width="389" height="238" viewBox="0 0 3452 2106">
<g transform="translate(0,2106) scale(0.1,-0.1)" fill="#ffffff" stroke="none">
<path d="M13335 21054 c-22 -2 -110 -9 -195 -15 -1343 -94 -2734 -580 -3895
-1360 -1293 -868 -2321 -2099 -2928 -3504 -947 -2194 -814 -4771 355 -6883
366 -661 791 -1225 1333 -1768 418 -419 773 -710 1255 -1029 539 -358 1104
-639 1721 -858 605 -215 1314 -368 1939 -418 85 -7 158 -17 161 -21 3 -5 368
-7 815 -5 756 3 820 5 978 25 879 112 1666 353 2419 740 416 213 6176 3528
6181 3556 1 10 -661 285 -928 387 -782 295 -1661 378 -2496 234 -485 -84
-1001 -262 -1420 -490 -97 -53 -433 -246 -1719 -988 -721 -415 -1546 -702
-2391 -831 -358 -55 -447 -61 -890 -61 -378 0 -430 2 -585 23 -478 65 -925
180 -1345 346 -305 121 -730 345 -1015 535 -951 636 -1691 1572 -2089 2645
-445 1197 -456 2508 -33 3716 80 230 148 390 268 630 275 549 584 976 1028
1421 219 219 381 360 595 521 700 524 1541 879 2411 1018 336 53 -78 50 6060
50 3891 0 5697 -3 5755 -10 536 -67 1026 -337 1359 -751 191 -236 324 -517
387 -813 32 -150 44 -438 25 -593 -101 -814 -686 -1476 -1476 -1669 -237 -58
103 -54 -5191 -54 -2675 0 -4864 -3 -4864 -6 0 -7 501 -716 586 -829 92 -122
215 -266 344 -399 645 -667 1477 -1110 2382 -1270 350 -63 204 -59 2548 -66
2241 -7 2179 -5 2401 -50 873 -177 1574 -833 1783 -1669 110 -440 75 -916
-100 -1345 -302 -740 -985 -1268 -1772 -1370 -104 -13 -248 -16 -897 -16
l-774 0 -603 -356 c-2192 -1296 -2268 -1339 -3168 -1814 -410 -216 -747 -395
-749 -397 -3 -2 1584 -2 3525 0 l3529 2 165 27 c614 98 1121 303 1646 665 287
198 689 578 927 877 382 479 666 1002 862 1591 248 741 326 1486 235 2224
-100 809 -398 1565 -874 2218 -61 84 -95 138 -87 141 7 2 71 40 144 84 710
429 1301 1080 1657 1823 219 457 347 906 406 1430 22 189 25 661 6 850 -65
639 -264 1241 -589 1785 -448 749 -1147 1375 -1941 1739 -432 198 -837 315
-1334 383 l-163 23 -5820 1 c-3201 0 -5838 -1 -5860 -2z"/>
<path d="M26454 5810 c-101 -20 -200 -92 -248 -181 -22 -40 -30 -70 -34 -125
-6 -99 15 -159 83 -232 152 -164 403 -169 570 -11 73 69 99 134 93 239 -4 59
-11 87 -33 128 -77 141 -256 216 -431 182z m251 -75 c133 -65 203 -225 152
-348 -25 -59 -100 -131 -170 -163 -53 -25 -75 -29 -147 -29 -73 0 -93 4 -142
28 -157 77 -222 232 -154 371 46 95 139 161 244 174 77 10 153 -1 217 -33z"/>
<path d="M26400 5485 l0 -195 30 0 30 0 0 86 0 85 51 -3 52 -3 44 -82 c44 -82
45 -83 84 -83 21 0 39 2 39 4 0 2 -20 40 -45 85 -25 45 -45 83 -45 86 0 3 6 5
14 5 8 0 28 12 45 26 26 22 31 33 31 71 0 94 -36 113 -210 113 l-120 0 0 -195z
m224 141 c36 -15 48 -39 35 -73 -11 -31 -36 -41 -122 -49 l-77 -7 0 72 0 71
65 0 c36 0 81 -6 99 -14z"/>
<path d="M28726 2658 c-13 -29 -290 -620 -616 -1313 -325 -693 -594 -1266
-597 -1273 -4 -10 24 -12 133 -10 l138 3 186 428 185 427 574 -2 574 -3 178
-425 178 -425 147 -3 c137 -2 146 -1 140 15 -30 79 -1183 2632 -1189 2633 -4
0 -18 -24 -31 -52z m250 -984 c126 -289 231 -530 232 -535 2 -5 -197 -9 -478
-9 -265 0 -480 4 -478 9 26 68 483 1061 487 1061 4 0 110 -237 237 -526z"/>
<path d="M1320 2663 c-100 -8 -277 -45 -389 -82 -501 -165 -833 -529 -916
-1007 -20 -114 -20 -364 0 -480 83 -477 413 -844 907 -1009 206 -68 285 -79
558 -79 217 0 257 2 350 22 142 31 347 100 464 157 l96 47 0 139 c0 76 -3 139
-6 139 -4 0 -38 -20 -78 -44 -243 -152 -499 -232 -776 -243 -375 -15 -710 108
-949 347 -212 211 -316 504 -298 832 20 339 157 607 412 800 160 122 336 196
550 233 134 23 368 24 495 1 211 -38 453 -144 613 -269 21 -16 40 -27 43 -24
4 3 8 62 11 131 l6 125 -64 41 c-265 172 -643 254 -1029 223z"/>
<path d="M10930 2660 c-688 -80 -1177 -501 -1276 -1099 -25 -152 -15 -418 20
-556 61 -241 156 -408 330 -580 160 -158 336 -266 557 -339 205 -69 286 -80
554 -81 192 0 258 4 327 18 178 36 335 88 496 164 l92 44 0 139 c0 77 -3 140
-6 140 -4 0 -36 -19 -73 -42 -377 -238 -828 -309 -1226 -193 -330 96 -604 332
-722 621 -110 270 -107 628 8 898 88 208 284 412 499 521 316 160 737 185
1091 64 93 -32 268 -123 355 -185 42 -30 80 -52 85 -49 5 4 9 61 9 129 0 141
6 129 -106 195 -137 80 -329 146 -514 178 -104 17 -398 25 -500 13z"/>
<path d="M34237 2639 c-143 -35 -216 -176 -152 -299 31 -61 135 -120 210 -120
76 0 179 59 211 121 18 36 18 151 0 187 -18 34 -62 75 -101 95 -40 20 -121 28
-168 16z m136 -38 c43 -17 95 -70 113 -117 14 -37 15 -51 5 -84 -43 -143 -226
-189 -339 -86 -36 32 -52 70 -52 121 0 70 33 121 105 158 33 18 130 22 168 8z"/>
<path d="M34200 2435 l0 -125 25 0 c24 0 25 3 25 55 0 53 1 55 28 55 23 0 32
-9 57 -55 22 -42 35 -55 52 -55 29 0 29 15 -2 65 -29 47 -30 55 -11 55 18 0
46 38 46 63 0 10 -11 29 -25 42 -22 23 -32 25 -110 25 l-85 0 0 -125z"/>
<path d="M5087 2453 c59 -87 271 -396 470 -688 l363 -530 0 -587 0 -588 135 0
135 0 0 588 0 588 456 673 c250 370 458 680 461 687 4 12 -19 14 -147 12
l-153 -3 -371 -567 c-204 -312 -374 -569 -377 -572 -3 -4 -174 252 -380 569
l-374 575 -163 0 -163 0 108 -157z"/>
<path d="M14960 1335 l0 -1275 615 0 615 0 0 115 0 115 -485 0 -485 0 0 1160
0 1160 -130 0 -130 0 0 -1275z"/>
<path d="M18960 1335 l0 -1275 700 0 700 0 0 115 0 115 -570 0 -570 0 0 540 0
540 570 0 570 0 0 115 0 115 -570 0 -570 0 0 395 0 395 570 0 570 0 0 110 0
110 -700 0 -700 0 0 -1275z"/>
<path d="M23350 1335 l0 -1278 418 6 c431 6 552 14 685 47 250 62 438 243 502
485 25 93 30 265 11 354 -25 120 -65 193 -154 280 -88 88 -182 140 -308 169
l-76 18 44 13 c122 36 247 137 306 248 88 166 82 400 -15 585 -69 132 -218
254 -363 299 -121 37 -174 41 -612 46 l-438 5 0 -1277z m875 1041 c108 -24
212 -81 256 -140 95 -125 115 -370 43 -522 -51 -108 -144 -171 -308 -206 -71
-15 -148 -21 -348 -25 l-258 -6 0 463 0 462 273 -5 c195 -4 292 -10 342 -21z
m130 -1130 c220 -64 335 -225 335 -471 0 -252 -141 -434 -373 -481 -49 -10
-173 -16 -389 -21 l-318 -6 0 502 0 503 343 -5 c285 -3 352 -7 402 -21z"/>
<path d="M32620 1336 l0 -1276 135 0 135 0 0 605 0 605 73 0 73 0 495 -605
494 -605 163 0 c128 0 162 3 156 12 -5 7 -230 278 -501 602 -272 324 -492 590
-490 593 3 2 49 9 103 14 115 12 252 54 334 104 76 46 171 147 209 223 56 111
79 263 61 407 -38 319 -215 492 -580 571 -59 13 -158 17 -467 21 l-393 5 0
-1276z m741 1049 c251 -37 361 -128 404 -333 37 -171 -4 -361 -97 -449 -93
-89 -231 -121 -550 -130 l-228 -6 0 467 0 466 188 0 c112 0 225 -6 283 -15z"/>
</g>
</svg>
