<?xml version="1.0" standalone="no"?>
<!DOCTYPE svg PUBLIC "-//W3C//DTD SVG 20010904//EN"
 "http://www.w3.org/TR/2001/REC-SVG-20010904/DTD/svg10.dtd">
<svg version="1.0" xmlns="http://www.w3.org/2000/svg"
 width="1442.000000pt" height="362.000000pt" viewBox="0 0 1442.000000 362.000000"
 preserveAspectRatio="xMidYMid meet">
<metadata>
Created by potrace 1.15, written by Peter Selinger 2001-2017
</metadata>
<g transform="translate(0.000000,362.000000) scale(0.100000,-0.100000)"
fill="#000000" stroke="none">
<path d="M0 1810 l0 -1810 7210 0 7210 0 0 1810 0 1810 -7210 0 -7210 0 0
-1810z m7700 1085 c5 -40 5 -40 50 -40 103 -1 109 -3 104 -29 -2 -13 2 -28 9
-35 8 -6 71 -12 153 -13 l139 -3 3 -65 c3 -72 12 -87 50 -92 26 -3 27 -5 26
-68 -2 -71 4 -80 54 -80 30 0 32 -2 32 -35 0 -29 4 -35 23 -37 12 -1 31 -3 42
-4 11 -1 35 -2 53 -3 25 -1 32 -5 32 -21 0 -14 -9 -21 -35 -26 -19 -3 -36 -11
-37 -18 -1 -6 -2 -76 -2 -156 l-1 -145 -37 -3 c-35 -3 -37 -5 -40 -40 l-3 -37
-100 -2 c-55 -1 -106 -2 -112 -3 -8 0 -13 -13 -13 -30 0 -27 -3 -30 -34 -30
-31 0 -34 -3 -40 -40 -6 -36 -9 -40 -36 -40 -27 0 -30 3 -30 34 0 22 -6 36
-16 40 -23 9 -197 7 -212 -3 -7 -4 -14 -21 -16 -37 -3 -28 -5 -29 -65 -32
l-61 -3 0 35 c0 43 -6 45 -140 49 -76 2 -95 5 -96 17 -1 8 -2 20 -2 27 -1 6
-17 13 -34 15 l-33 3 -3 75 c-2 44 -8 78 -15 82 -7 4 -31 5 -54 2 -55 -8 -83
2 -83 29 0 33 -12 45 -45 49 -26 3 -31 8 -35 38 -4 31 -9 35 -37 38 -37 4 -46
23 -41 88 3 35 6 39 40 47 33 8 37 12 40 45 2 29 7 37 23 38 52 2 56 4 55 27
-4 42 0 47 40 53 l40 6 -1 92 c-1 50 -1 99 0 108 1 14 13 18 69 20 63 3 67 4
70 28 7 44 20 52 78 44 62 -7 94 1 92 24 -4 54 12 60 137 58 l50 -1 5 -40z
m918 -805 c1 0 2 -13 2 -29 0 -29 -14 -41 -50 -41 -18 0 -20 -10 -22 -107 l-3
-108 -65 -3 c-67 -3 -92 -14 -89 -41 3 -36 -1 -42 -28 -39 -23 2 -29 9 -33 38
-5 37 -22 47 -65 36 -18 -5 -25 -14 -27 -39 -2 -27 -7 -32 -28 -32 -24 0 -25
3 -28 68 l-3 67 109 0 c116 0 122 3 122 50 0 19 19 30 51 30 17 0 19 8 19 73
0 41 3 77 8 81 5 6 93 3 130 -4z m-1451 -78 c7 -4 13 -37 15 -77 l3 -70 35 -5
c31 -4 36 -9 40 -40 l5 -35 73 -3 72 -3 0 -63 c0 -67 -8 -79 -45 -66 -12 4
-22 19 -25 36 l-5 29 -135 6 c-74 4 -138 7 -142 8 -5 0 -8 14 -8 31 0 31 -22
50 -59 50 -19 0 -21 6 -21 59 l0 60 38 3 c34 3 37 5 40 38 2 19 9 38 15 42 16
10 89 10 104 0z m687 -234 c3 -7 7 -25 10 -40 5 -21 13 -27 39 -30 28 -3 32
-6 32 -33 0 -27 -4 -31 -35 -35 l-35 -5 0 -110 0 -110 35 -5 c32 -5 35 -8 35
-40 0 -32 -3 -35 -35 -40 -31 -4 -35 -9 -38 -37 l-3 -33 -70 0 c-65 0 -69 1
-69 23 0 33 -12 45 -45 49 -27 3 -30 7 -30 38 0 32 3 35 33 38 l32 3 0 114 0
114 -32 3 c-29 3 -33 6 -33 33 l0 30 73 3 c68 3 72 4 72 27 0 13 3 30 6 39 7
19 53 22 58 4z"/>
</g>
</svg>
