<?xml version="1.0" standalone="no"?>
<svg version="1.0" xmlns="http://www.w3.org/2000/svg" viewBox="0 0 640 320">
<g transform="translate(0,320) scale(0.1,-0.1)"
fill="#ffffff" stroke="none">
<path d="M855 2773 c-107 -24 -170 -65 -208 -137 -21 -40 -22 -55 -27 -411 -6
-418 -5 -414 -83 -459 -24 -14 -79 -35 -123 -45 -57 -15 -85 -27 -101 -46 -38
-43 -26 -130 21 -154 11 -6 57 -20 100 -31 82 -21 133 -52 164 -98 15 -23 18
-68 22 -397 5 -363 5 -371 29 -418 12 -26 38 -59 57 -73 73 -56 279 -92 342
-60 36 19 52 43 52 81 0 64 -53 95 -162 95 -46 0 -62 5 -85 24 l-28 24 -5 359
c-5 340 -6 360 -27 405 -26 58 -89 119 -155 152 l-50 25 45 21 c68 32 123 85
154 148 l28 57 6 360 c3 198 6 361 7 362 18 22 67 37 140 43 76 6 88 10 109
34 32 38 31 85 -5 119 -26 25 -34 27 -113 26 -46 -1 -93 -3 -104 -6z"/>
<path d="M5327 2760 c-49 -39 -42 -116 14 -145 16 -9 56 -15 91 -15 77 0 108
-15 130 -60 16 -31 18 -71 18 -370 0 -331 0 -336 24 -386 29 -62 84 -118 150
-151 l49 -25 -54 -29 c-67 -37 -103 -71 -137 -129 l-27 -45 -5 -360 c-4 -255
-9 -366 -17 -381 -17 -29 -54 -41 -142 -48 -62 -4 -79 -9 -100 -30 -51 -52
-20 -138 56 -152 19 -4 73 -1 121 5 103 13 183 49 224 101 51 66 58 121 58
485 0 294 2 334 18 365 22 44 70 76 141 95 127 34 135 38 155 78 16 33 17 45
7 78 -14 46 -35 59 -139 84 -79 19 -123 44 -156 88 -20 27 -21 43 -26 395 l-5
367 -30 60 c-23 46 -41 67 -76 88 -63 38 -139 57 -235 57 -66 0 -86 -4 -107
-20z"/>
<path d="M2864 2710 c-12 -4 -31 -21 -43 -36 l-21 -27 0 -889 0 -890 34 -34
c29 -29 41 -34 81 -34 40 0 52 5 81 34 31 31 34 39 34 92 l0 58 38 -36 c110
-105 248 -160 402 -161 175 0 315 57 435 178 117 118 174 241 194 414 35 319
-105 602 -359 720 -224 104 -457 76 -647 -79 l-63 -51 0 330 c0 190 -4 341
-10 355 -19 51 -99 79 -156 56z m746 -799 c68 -26 134 -78 177 -139 92 -129
108 -379 34 -537 -70 -152 -195 -225 -383 -225 -138 0 -260 51 -365 153 l-43
41 0 272 0 272 41 36 c45 41 134 100 176 118 108 43 264 47 363 9z"/>
<path d="M4632 2348 c-168 -153 -352 -344 -352 -365 0 -43 24 -53 130 -53 l99
0 3 -452 c3 -402 6 -458 21 -497 51 -131 165 -193 352 -194 147 0 253 41 275
107 15 47 -3 85 -50 108 -32 15 -41 15 -117 0 -99 -19 -175 -7 -214 34 l-24
26 -3 434 -3 434 149 0 c82 0 163 5 180 11 64 22 85 113 37 161 -33 33 -61 38
-226 38 l-139 0 0 110 c0 97 -2 112 -20 130 -11 11 -25 20 -31 20 -5 0 -36
-23 -67 -52z"/>
<path d="M1682 2140 c-94 -25 -162 -62 -233 -128 -149 -138 -217 -329 -206
-587 9 -209 54 -329 170 -451 140 -148 341 -209 607 -184 155 15 340 84 389
146 50 64 5 157 -76 156 -21 0 -64 -12 -97 -26 -90 -41 -169 -56 -297 -56
-134 0 -215 19 -292 71 -83 54 -145 158 -163 269 l-7 40 458 0 c509 0 498 -1
531 68 32 68 -5 264 -74 397 -46 87 -145 188 -229 233 -135 71 -328 92 -481
52z m300 -201 c81 -27 138 -67 183 -129 39 -53 75 -150 75 -201 l0 -29 -380 0
-380 0 0 29 c0 87 70 219 146 277 90 69 242 92 356 53z"/>
</g>
</svg>
