<?xml version="1.0" standalone="no"?>
<!DOCTYPE svg PUBLIC "-//W3C//DTD SVG 20010904//EN"
 "http://www.w3.org/TR/2001/REC-SVG-20010904/DTD/svg10.dtd">
<svg version="1.0" xmlns="http://www.w3.org/2000/svg"
 width="608pt" height="174pt" viewBox="0 0 608 174"
 preserveAspectRatio="xMidYMid meet">
<metadata>
Created by potrace 1.15, written by Peter Selinger 2001-2017
</metadata>
<g transform="translate(0,174) scale(0.1,-0.1)"
fill="#ffffff" stroke="none">
<path d="M393 1578 c-42 -122 -152 -432 -207 -582 -37 -98 -65 -181 -62 -183
4 -5 343 94 431 126 28 10 306 94 619 187 312 92 564 169 560 171 -12 4 -1261
299 -1300 307 -28 6 -31 4 -41 -26z"/>
<path d="M2040 1289 c-41 -10 -85 -21 -97 -24 l-23 -5 0 -540 0 -540 125 0
125 0 0 565 0 565 -27 -1 c-16 -1 -62 -10 -103 -20z"/>
<path d="M4190 1286 l-95 -22 -5 -198 c-5 -193 -6 -198 -23 -178 -61 68 -243
89 -348 40 -151 -69 -236 -250 -208 -443 19 -137 84 -232 197 -287 60 -30 75
-33 157 -33 100 0 151 18 213 74 l32 30 0 -45 0 -44 110 0 110 0 0 565 0 565
-22 -1 c-13 0 -66 -11 -118 -23z m-187 -560 c95 -39 130 -175 72 -274 -40 -66
-158 -97 -232 -59 -125 65 -126 269 -1 330 40 20 117 22 161 3z"/>
<path d="M3160 1160 l0 -100 120 0 120 0 0 100 0 100 -120 0 -120 0 0 -100z"/>
<path d="M2600 949 c-128 -23 -245 -110 -296 -222 -57 -127 -40 -300 40 -409
113 -151 358 -202 539 -111 47 24 127 88 127 103 0 4 -37 35 -82 69 l-81 61
-43 -40 c-46 -42 -90 -56 -156 -47 -52 7 -87 32 -116 85 l-23 42 270 0 271 0
0 53 c0 197 -81 346 -215 396 -66 25 -162 33 -235 20z m125 -183 c35 -15 75
-67 75 -98 0 -16 -14 -18 -145 -18 -80 0 -145 2 -145 5 0 14 30 62 52 82 46
43 104 53 163 29z"/>
<path d="M4750 949 c-87 -14 -197 -75 -246 -136 -67 -82 -87 -147 -82 -273 3
-91 8 -112 32 -158 55 -108 141 -175 261 -207 163 -42 338 5 443 119 71 79 95
145 95 266 0 106 -15 155 -70 234 -84 119 -264 184 -433 155z m157 -220 c66
-25 106 -88 106 -169 0 -184 -217 -255 -327 -106 -17 22 -21 42 -21 105 0 69
3 82 27 113 15 19 42 42 60 51 38 19 114 22 155 6z"/>
<path d="M5557 950 c-109 -19 -205 -91 -227 -170 -13 -46 -13 -132 1 -167 27
-72 92 -112 238 -146 131 -31 171 -65 119 -101 -30 -21 -120 -21 -161 0 -18 9
-44 27 -58 41 l-26 24 -74 -82 -73 -81 31 -28 c17 -15 57 -38 89 -51 51 -20
77 -23 184 -23 150 0 219 21 286 88 64 63 83 169 45 251 -35 75 -91 108 -247
145 -98 23 -130 44 -120 78 9 27 59 46 102 39 32 -5 48 -14 100 -52 11 -7 32
8 86 62 l72 72 -23 25 c-31 33 -103 63 -182 75 -72 12 -93 12 -162 1z"/>
<path d="M3160 560 l0 -380 120 0 120 0 0 380 0 380 -120 0 -120 0 0 -380z"/>
</g>
</svg>
