<svg xmlns="http://www.w3.org/2000/svg" viewBox="0 0 4908 2084">
    <g transform="translate(0,2084) scale(0.1,-0.1)" fill="white" stroke="none">
        <path d="M8185 17273 c-261 -21 -400 -43 -591 -93 -279 -74 -554 -213 -787
-399 -605 -482 -1021 -1376 -1221 -2626 -32 -200 -253 -1673 -301 -2010 -111
-779 -128 -1077 -75 -1327 96 -455 397 -785 897 -982 157 -61 372 -112 623
-147 63 -9 702 -14 2430 -19 1724 -5 2360 -10 2402 -19 102 -20 170 -51 213
-95 92 -95 90 -155 -30 -789 -231 -1228 -463 -2371 -504 -2487 -39 -111 -85
-181 -171 -264 -138 -132 -315 -201 -620 -244 -103 -14 -452 -16 -3402 -19
-3101 -3 -3287 -4 -3292 -21 -3 -9 -114 -492 -245 -1074 -132 -581 -243 -1068
-247 -1082 l-6 -26 3573 0 c3407 0 3932 4 4189 30 1117 112 1919 526 2395
1235 98 147 222 403 283 586 89 268 335 1306 522 2204 137 655 354 1815 386
2055 22 167 22 475 0 636 -97 727 -521 1274 -1206 1557 -176 73 -421 136 -680
174 -105 15 -313 17 -2280 23 -2029 5 -2169 6 -2225 23 -203 60 -292 165 -302
357 -4 73 8 160 81 600 47 283 103 607 125 720 22 113 56 300 76 415 72 409
123 554 241 675 129 134 318 200 664 230 74 6 1162 10 3022 10 l2907 0 10 38
c20 74 521 2145 521 2153 0 8 -7279 10 -7375 2z"/>
        <path d="M30376 17263 c-3 -10 -651 -3089 -1441 -6843 -790 -3754 -1439 -6835
-1442 -6847 l-5 -23 1526 0 1526 0 5 23 c3 12 640 3093 1415 6847 775 3754
1412 6833 1414 6843 4 16 -72 17 -1494 17 -1419 0 -1499 -1 -1504 -17z"/>
        <path d="M41630 17270 c-3417 -5 -3714 -7 -3814 -23 -280 -43 -467 -90 -656
-164 -859 -338 -1407 -1069 -1709 -2278 -49 -196 -98 -445 -156 -798 -86 -525
-219 -1166 -1120 -5417 -396 -1866 -390 -1837 -410 -2010 -96 -831 103 -1569
573 -2130 382 -456 980 -762 1692 -864 290 -42 222 -41 3709 -41 l3344 0 243
1100 c134 605 244 1101 244 1102 0 1 -1380 4 -3067 6 -2727 3 -3078 5 -3158
19 -301 53 -475 139 -608 303 -154 190 -208 493 -162 905 19 172 -7 21 365
2080 175 971 342 1900 370 2065 204 1196 488 2721 566 3030 68 272 166 466
308 614 170 176 367 266 656 301 55 6 1105 10 3030 10 l2945 0 263 1096 c145
603 262 1096 260 1097 -2 1 -1670 0 -3708 -3z"/>
        <path d="M21616 17218 c-13 -24 -1699 -3080 -3746 -6793 -2047 -3712 -3738
-6778 -3757 -6813 l-35 -62 1437 2 1437 3 164 295 c91 162 431 773 756 1358
l591 1062 2071 0 2072 0 225 1015 226 1015 -1769 0 c-1189 0 -1768 3 -1768 10
0 6 589 1024 1308 2263 720 1238 1398 2407 1508 2596 182 315 199 341 206 315
4 -16 35 -281 68 -589 32 -308 138 -1291 234 -2185 459 -4254 766 -7121 766
-7140 l0 -20 1335 0 1335 0 0 23 c0 13 -369 3095 -820 6851 -451 3755 -820
6830 -820 6832 0 2 -675 4 -1500 4 l-1499 0 -25 -42z"/>
    </g>
</svg>