<?xml version="1.0" standalone="no"?>
<!DOCTYPE svg PUBLIC "-//W3C//DTD SVG 20010904//EN"
 "http://www.w3.org/TR/2001/REC-SVG-20010904/DTD/svg10.dtd">
<svg version="1.0" xmlns="http://www.w3.org/2000/svg"
 width="166pt" height="162pt" viewBox="0 0 166 162"
 preserveAspectRatio="xMidYMid meet">
<metadata>
Created by potrace 1.15, written by Peter Selinger 2001-2017
</metadata>
<g transform="translate(0,162) scale(0.1,-0.1)"
fill="#ffffff" stroke="none">
<path d="M0 961 c0 -429 3 -662 10 -666 6 -4 10 7 10 24 0 17 5 31 10 31 13 0
13 -97 1 -105 -6 -3 -14 3 -20 12 -8 13 -10 -20 -11 -119 l0 -138 830 0 830 0
0 138 c0 115 -2 133 -13 113 -23 -47 -32 -40 -73 56 -8 18 -10 33 -5 33 5 0
19 -24 31 -52 l23 -53 18 40 c17 37 18 84 19 693 l0 652 -830 0 -830 0 0 -659z
m1539 529 c44 -12 81 -26 81 -30 0 -5 -34 -30 -75 -56 l-76 -47 -23 22 c-19
18 -27 20 -50 11 -49 -18 -54 -12 -32 41 5 12 0 19 -16 24 -23 8 -22 8 4 12
20 3 30 12 34 30 8 29 19 29 153 -7z m-226 -455 c120 -115 216 -214 215 -220
-4 -14 -677 -660 -687 -660 -5 0 -165 151 -356 335 l-348 335 76 70 c41 39
199 188 352 333 l277 263 126 -123 c70 -68 225 -217 345 -333z"/>
<path d="M770 1347 c-36 -34 -174 -167 -307 -295 l-241 -233 306 -295 c168
-162 308 -294 312 -294 10 0 610 580 610 590 0 9 -594 583 -608 587 -4 2 -36
-25 -72 -60z m-100 -382 c0 -22 -4 -25 -35 -25 l-34 0 -3 -62 c-3 -60 -4 -63
-30 -66 l-28 -3 0 65 0 66 -34 0 c-41 0 -52 12 -30 34 12 12 37 16 105 16 88
0 89 0 89 -25z m528 13 c29 -29 13 -38 -63 -38 l-75 0 0 -40 0 -40 56 0 c34 0
53 4 49 10 -3 6 -20 10 -36 10 -45 0 -36 34 10 38 59 6 81 -5 81 -39 0 -61
-12 -69 -105 -69 -117 0 -115 -1 -115 84 0 43 5 77 12 84 7 7 43 12 93 12 50
0 86 -5 93 -12z m-403 -44 l38 -46 39 46 c27 31 47 46 64 46 23 0 24 -2 24
-80 0 -79 0 -80 -25 -80 -23 0 -25 4 -25 45 0 25 -3 45 -7 45 -5 0 -19 -16
-33 -35 -14 -19 -31 -35 -37 -35 -7 0 -28 17 -48 38 l-34 37 -1 -47 c0 -44 -2
-48 -25 -48 -25 0 -25 1 -25 80 l0 80 29 0 c22 0 37 -11 66 -46z m98 -196 c4
-12 12 -64 18 -115 l13 -94 -42 -42 -42 -42 -40 40 -39 40 15 105 c8 58 17
111 19 118 3 7 22 12 49 12 36 0 45 -4 49 -22z"/>
</g>
</svg>
