<?xml version="1.0" standalone="no"?>
<!DOCTYPE svg PUBLIC "-//W3C//DTD SVG 20010904//EN"
 "http://www.w3.org/TR/2001/REC-SVG-20010904/DTD/svg10.dtd">
<svg version="1.0" xmlns="http://www.w3.org/2000/svg"
 width="199pt" height="179pt" viewBox="0 0 199 179"
 preserveAspectRatio="xMidYMid meet">
<metadata>
Created by potrace 1.15, written by Peter Selinger 2001-2017
</metadata>
<g transform="translate(0,179) scale(0.1,-0.1)"
fill="#ffffff" stroke="none">
<path d="M0 895 l0 -895 995 0 995 0 0 895 0 895 -995 0 -995 0 0 -895z m1698
57 c-29 -3 -52 18 -370 335 l-338 338 -343 -342 c-271 -271 -348 -343 -372
-346 -30 -4 -30 -4 4 -6 31 -1 67 -34 367 -334 310 -309 334 -334 334 -367 0
-34 -12 -23 -375 340 l-375 375 377 377 378 378 373 -373 c361 -360 371 -372
340 -375z m-380 -339 l-333 -333 -332 332 -333 333 332 332 333 333 332 -332
333 -333 -332 -332z"/>
<path d="M917 1242 c-31 -32 -57 -61 -57 -65 0 -4 57 -7 127 -7 l127 0 -64 65
c-35 36 -67 65 -70 65 -3 0 -31 -26 -63 -58z"/>
<path d="M613 1120 c-39 -16 -29 -40 17 -40 l40 0 0 -71 0 -70 28 3 c26 3 27
5 28 68 l1 65 39 5 c31 4 39 9 39 25 0 18 -7 20 -85 22 -47 1 -95 -2 -107 -7z"/>
<path d="M1182 1123 c-22 -4 -23 -8 -20 -91 l3 -87 105 0 105 0 3 53 3 52 -55
0 c-49 0 -56 -2 -56 -20 0 -16 7 -20 30 -20 17 0 30 -5 30 -12 0 -9 -17 -12
-60 -10 l-60 4 0 44 0 44 85 0 c47 0 85 3 85 8 -1 28 -23 37 -97 39 -43 0 -88
-1 -101 -4z"/>
<path d="M916 659 c-6 -40 -4 -45 31 -81 l39 -38 42 43 c37 37 41 46 34 72 -8
28 -10 29 -66 26 -37 -2 -62 2 -66 9 -4 6 -10 -7 -14 -31z"/>
</g>
</svg>
