<svg xmlns="http://www.w3.org/2000/svg" viewBox="0 0 676 246">
    <g transform="translate(0,246) scale(0.1,-0.1)" fill="white" stroke="none">
        <path d="M1646 2329 c-264 -71 -484 -133 -489 -138 -5 -5 -40 -63 -76 -128
l-66 -118 -149 -2 -149 -1 -357 -357 -356 -356 358 -356 357 -356 148 -1 147
-1 66 -118 c37 -65 71 -122 77 -128 10 -10 975 -270 981 -265 2 2 62 222 134
489 l130 485 -71 119 c-39 65 -71 125 -71 133 0 8 32 68 71 133 l71 119 -126
472 c-150 556 -136 506 -144 505 -4 0 -223 -59 -486 -130z m132 -248 c-1 -4
-97 -171 -213 -370 l-210 -361 -428 0 -429 0 210 218 c116 119 237 243 270
275 l59 59 359 93 c375 97 388 100 382 86z m322 -474 c55 -197 100 -367 100
-377 0 -17 -197 -730 -203 -737 -6 -5 -422 723 -422 737 0 14 416 742 422 737
1 -2 47 -164 103 -360z m-532 -863 c117 -202 211 -369 209 -371 -3 -2 -170 39
-372 91 l-368 94 -69 69 c-38 37 -160 161 -270 276 l-200 207 428 0 429 0 213
-366z"/>
        <path d="M4870 1955 l0 -105 120 0 120 0 0 105 0 105 -120 0 -120 0 0 -105z"/>
        <path d="M5350 1890 l0 -170 -80 0 -80 0 0 -95 0 -95 80 0 80 0 0 -400 0 -400
120 0 120 0 0 400 0 400 86 0 c65 0 85 3 81 13 -3 6 -20 49 -38 95 l-32 82
-49 0 -48 0 0 170 0 170 -120 0 -120 0 0 -170z"/>
        <path d="M4320 1740 c-90 -16 -165 -59 -206 -119 l-24 -36 0 68 0 67 -110 0
-110 0 0 -495 0 -495 120 0 120 0 0 308 c0 180 4 322 10 344 24 87 102 137
210 138 89 0 146 -28 180 -90 l25 -45 3 -327 3 -328 120 0 119 0 0 329 c0 349
-5 399 -46 492 -47 104 -136 167 -264 188 -72 12 -85 12 -150 1z"/>
        <path d="M2860 1383 c0 -369 6 -421 57 -515 33 -61 80 -103 153 -137 50 -23
67 -26 175 -26 111 0 124 2 177 28 32 16 73 47 93 69 l35 42 0 -57 0 -57 115
0 115 0 -2 493 -3 492 -117 3 -117 3 -3 -323 c-3 -308 -4 -325 -25 -363 -42
-80 -105 -115 -202 -115 -71 0 -106 12 -144 48 -62 58 -62 57 -67 417 l-5 330
-117 3 -118 3 0 -338z"/>
        <path d="M4877 1714 c-4 -4 -7 -227 -7 -496 l0 -488 120 0 120 0 -2 493 -3
492 -111 3 c-60 1 -113 -1 -117 -4z"/>
        <path d="M5780 1713 c0 -4 83 -219 185 -478 l185 -470 -80 -189 c-44 -103 -80
-190 -80 -192 0 -2 56 -4 124 -4 l124 0 17 43 c61 153 496 1270 498 1280 1 9
-31 12 -122 12 l-123 0 -117 -322 c-64 -178 -118 -323 -121 -323 -3 0 -59 146
-124 325 l-119 325 -123 0 c-68 0 -124 -3 -124 -7z"/>
    </g>
</svg>