<?xml version="1.0" standalone="no"?>
<svg version="1.0" xmlns="http://www.w3.org/2000/svg" viewBox="0 0 1920 520">
<g transform="translate(0,520) scale(0.1,-0.1)"
fill="#ffffff" stroke="none">
<path d="M1371 4919 c-171 -20 -307 -76 -394 -162 -63 -63 -100 -130 -129
-234 -21 -76 -22 -99 -27 -768 -6 -673 -7 -691 -27 -735 -49 -106 -186 -181
-410 -226 -151 -30 -214 -94 -214 -219 0 -120 65 -191 198 -215 225 -42 371
-120 424 -228 l23 -47 6 -690 c5 -669 6 -692 27 -768 29 -105 66 -171 131
-236 115 -114 310 -171 586 -171 101 0 151 17 197 66 72 78 60 203 -26 269
-35 26 -47 29 -191 40 -214 17 -275 49 -296 156 -4 24 -8 330 -9 679 0 697 -1
703 -61 826 -58 118 -192 236 -333 294 l-56 24 71 33 c193 89 314 224 359 399
19 73 20 112 20 713 1 350 5 656 9 680 21 107 82 139 296 156 144 11 156 14
191 40 62 47 90 141 63 212 -15 40 -57 82 -104 104 -44 21 -185 24 -324 8z"/>
<path d="M17494 4905 c-72 -36 -99 -81 -99 -165 0 -58 4 -72 28 -103 48 -63
64 -69 233 -82 169 -14 226 -32 268 -88 21 -28 21 -37 27 -710 6 -750 4 -730
70 -864 56 -116 191 -235 334 -294 l55 -23 -69 -32 c-197 -91 -314 -221 -368
-409 -15 -53 -17 -140 -22 -742 -6 -673 -6 -682 -27 -710 -42 -56 -99 -74
-269 -88 -149 -12 -157 -13 -192 -41 -55 -45 -75 -89 -71 -156 5 -65 32 -111
87 -148 30 -20 52 -25 126 -28 105 -5 274 11 360 33 158 41 286 137 345 259
62 132 62 133 69 891 6 683 6 690 28 730 59 110 195 181 431 226 130 25 187
89 187 214 0 139 -46 182 -242 226 -204 46 -322 113 -376 214 -22 40 -22 47
-28 730 -7 761 -7 762 -71 893 -97 196 -318 292 -674 292 -76 0 -98 -4 -140
-25z"/>
<path d="M8085 4782 c-49 -23 -90 -64 -119 -117 l-21 -40 -3 -1720 c-2 -1236
0 -1735 8 -1772 24 -112 115 -183 235 -183 104 1 179 46 221 135 24 50 24 53
24 410 l1 360 222 201 222 201 95 -129 c820 -1119 815 -1112 864 -1143 86 -53
222 -46 301 17 57 45 88 154 65 236 -8 33 -133 206 -497 689 -267 355 -481
648 -476 652 5 3 180 160 389 347 439 395 440 396 432 521 -4 61 -10 81 -34
115 -42 60 -101 88 -183 88 -87 -1 -132 -22 -222 -107 -245 -230 -1169 -1083
-1174 -1083 -2 0 -6 490 -7 1088 l-3 1089 -30 49 c-45 72 -109 108 -199 112
-53 2 -81 -2 -111 -16z"/>
<path d="M11161 4027 c-485 -473 -648 -634 -658 -652 -21 -34 -16 -91 11 -122
l24 -28 206 -3 206 -3 0 -792 c0 -842 5 -958 45 -1085 62 -196 212 -329 440
-389 100 -26 440 -26 535 0 224 61 310 131 310 249 -1 92 -60 165 -153 188
-41 11 -59 10 -145 -11 -114 -27 -288 -32 -363 -10 -57 16 -113 61 -138 110
-39 75 -41 131 -41 947 l0 793 329 3 329 3 44 30 c63 44 90 103 86 186 -4 73
-28 116 -90 161 -33 23 -36 23 -365 26 l-333 3 0 230 0 231 -29 29 c-24 24
-38 29 -77 29 -47 0 -48 -1 -173 -123z"/>
<path d="M5970 3679 c-189 -12 -333 -49 -485 -127 -327 -168 -541 -478 -628
-907 -19 -94 -22 -142 -22 -340 0 -241 7 -304 51 -472 162 -625 681 -952 1436
-904 206 13 313 32 459 81 206 68 372 162 419 237 34 53 41 128 17 186 -23 54
-87 104 -151 117 -68 14 -94 9 -199 -40 -201 -92 -382 -130 -623 -131 -226 0
-361 28 -509 104 -223 116 -365 329 -409 615 l-6 42 914 0 914 0 53 28 c39 20
62 41 84 77 30 49 30 49 29 194 -3 477 -251 906 -640 1109 -200 103 -433 147
-704 131z m296 -429 c315 -79 522 -322 569 -667 l7 -53 -761 0 -762 0 7 53
c13 100 44 203 91 297 64 132 167 235 304 304 52 26 129 56 170 66 105 26 272
26 375 0z"/>
<path d="M13915 3675 c-214 -47 -428 -190 -604 -404 l-36 -44 -5 135 c-5 128
-6 137 -35 184 -43 69 -108 107 -191 112 -108 7 -186 -37 -237 -132 l-22 -41
-3 -1150 c-2 -820 0 -1165 8 -1202 24 -112 115 -183 235 -183 104 1 179 46
221 135 l24 50 0 816 0 816 49 65 c69 90 195 204 290 262 125 75 250 114 412
126 74 6 153 18 177 26 93 34 141 105 142 207 0 98 -50 178 -135 218 -49 23
-197 25 -290 4z"/>
<path d="M15780 3679 c-189 -12 -333 -49 -485 -127 -327 -168 -541 -478 -628
-907 -19 -94 -22 -142 -22 -340 0 -241 7 -304 51 -472 162 -625 681 -952 1436
-904 206 13 313 32 459 81 206 68 372 162 419 237 34 53 41 128 17 186 -23 54
-87 104 -151 117 -68 14 -94 9 -199 -40 -201 -92 -382 -130 -623 -131 -226 0
-361 28 -509 104 -223 116 -365 329 -409 615 l-6 42 914 0 914 0 53 28 c39 20
62 41 84 77 30 49 30 49 29 194 -3 477 -251 906 -640 1109 -200 103 -433 147
-704 131z m296 -429 c315 -79 522 -322 569 -667 l7 -53 -761 0 -762 0 7 53
c13 100 44 203 91 297 64 132 167 235 304 304 52 26 129 56 170 66 105 26 272
26 375 0z"/>
<path d="M2134 3646 c-51 -23 -100 -73 -124 -128 -45 -105 -63 -53 452 -1287
258 -617 479 -1131 496 -1155 36 -50 109 -102 165 -117 22 -6 84 -9 136 -7 78
2 105 8 144 28 55 28 116 90 145 147 52 102 934 2232 938 2267 13 93 -43 198
-128 240 -101 50 -242 23 -302 -58 -13 -17 -200 -481 -416 -1031 -216 -550
-396 -1003 -399 -1007 -3 -4 -185 449 -405 1007 -434 1103 -414 1060 -508
1100 -46 18 -152 19 -194 1z"/>
</g>
</svg>
