<svg version="1.2" xmlns="http://www.w3.org/2000/svg" viewBox="0 0 24 24" width="24" height="24">
	<title>instagram-svg</title>
	<style>
		.s0 { fill: #ffffff } 
	</style>
	<path id="Layer copy" fill-rule="evenodd" class="s0" d="m16.1 2.1c3.7 0.1 5.7 2.1 5.8 5.8 0.1 1 0.1 1.4 0.1 4.1 0 2.7 0 3.1-0.1 4.1-0.1 3.7-2.1 5.7-5.8 5.8-1 0.1-1.4 0.1-4.1 0.1-2.7 0-3.1 0-4.1-0.1-3.7-0.1-5.7-2.1-5.8-5.8-0.1-1-0.1-1.4-0.1-4.1 0-2.7 0-3.1 0.1-4.1 0.1-3.7 2.1-5.7 5.8-5.8 1-0.1 1.4-0.1 4.1-0.1 2.7 0 3.1 0 4.1 0.1zm-8.1 1.8c-2.8 0.1-4 1.4-4.1 4.1-0.1 1-0.1 1.3-0.1 4 0 2.7 0 3 0.1 4 0.1 2.7 1.3 4 4.1 4.1 1 0.1 1.3 0.1 4 0.1 2.7 0 3 0 4-0.1 2.8-0.1 4-1.4 4.1-4.1 0.1-1 0.1-1.3 0.1-4 0-2.7 0-3-0.1-4-0.1-2.7-1.3-4-4.1-4.1-1-0.1-1.3-0.1-4-0.1-2.7 0-3 0-4 0.1zm4 13.2c-2.8 0-5.1-2.3-5.1-5.1 0-2.8 2.3-5.1 5.1-5.1 2.8 0 5.1 2.3 5.1 5.1 0 2.8-2.3 5.1-5.1 5.1zm3.3-5.1c0-1.8-1.5-3.3-3.3-3.3-1.8 0-3.3 1.5-3.3 3.3 0 1.8 1.5 3.3 3.3 3.3 1.8 0 3.3-1.5 3.3-3.3zm2-4.1c-0.6 0-1.2-0.6-1.2-1.2 0-0.7 0.6-1.2 1.2-1.2 0.7 0 1.2 0.5 1.2 1.2 0 0.6-0.5 1.2-1.2 1.2z"/>
</svg>