<svg version="1.2" xmlns="http://www.w3.org/2000/svg" viewBox="0 0 734 518" width="734" height="518"><style>.a{fill:#fff}</style><path fill-rule="evenodd" class="a" d="m624.7 32.6c28 5.7 50.3 23.1 62 48.6 8 17.4 13.2 51.2 17.2 111.8 1.5 23.1 1.5 109 0 132.1-4 60.6-9.2 94.4-17.2 111.8-11.7 25.5-34 42.9-62 48.6-44.2 8.9-188.1 14.4-316.6 12-108.8-2-168.1-5.6-199.8-12-28-5.7-50.3-23.1-62-48.6-8-17.4-13.2-51.2-17.2-111.8-1.5-23.1-1.5-109 0-132.1 4-60.6 9.2-94.4 17.2-111.8 11.7-25.5 34-42.9 62-48.6 29-5.9 93-10.1 182.4-11.8 139.8-2.9 287.6 2.4 334 11.8zm-324.9 127l-2.6-1.4v201.6l2.6-1.4c12-6.1 173.4-98.7 173.4-99.4 0-0.4-38.4-22.7-85.5-49.5-47-26.7-86.5-49.1-87.9-49.9z"/></svg>