<?xml version="1.0" encoding="utf-8"?>
<svg version="1.1" id="Layer_1" xmlns="http://www.w3.org/2000/svg" xmlns:xlink="http://www.w3.org/1999/xlink" x="0px" y="0px"
	 viewBox="0 0 200 38.7" style="enable-background:new 0 0 200 38.7;" xml:space="preserve">
<style type="text/css">
	.st0{fill:none;}
	.st1{fill:transparent;}
	.st3{fill:#FFFFFF;}
</style>
<polygon class="st0" points="25.8,16.7 25.8,22.3 25.8,22.3 "/>
<path class="st1" d="M11,15.8c-0.3,1.2-0.4,2.4-0.4,3.6l0,0c0,1.2,0.2,2.4,0.4,3.5c4.9-0.5,9.9-0.7,14.8-0.7v-5.5
	C20.8,16.7,15.9,16.4,11,15.8z"/>
<path class="st1" d="M41,19.4L41,19.4c0-1.2-0.2-2.4-0.4-3.6c-4.9,0.6-9.9,0.9-14.8,0.9v5.6c4.4,0,9.5,0.2,14.8,0.7l0,0
	C40.9,21.8,41,20.6,41,19.4z"/>
<path class="st3" d="M25.8,1.2c-8.5,0.2-15.7,6.5-17,14.9c-1.4-1.2-3.9-2.3-7.6-0.5c-0.3,0.1-0.4,0.5-0.3,0.8c0,0,0,0.1,0.1,0.1
	c1.2,1.7,3.1,2.7,5.2,2.8c-1.6,0.9-3.3,2.8-2.9,6.6c0,0.4,0.4,0.6,0.7,0.6h0.1c2.2-0.6,3.9-2.2,4.6-4.3c1.3,8.7,8.4,15.4,17.1,15.4
	c9.6,0,17.3-8.1,17.3-18.2S35.3,1.2,25.8,1.2z M27.4,3.5c8.6,0.9,12.1,9,12.1,9C30.7,1.1,16.6,6.7,16.6,6.7
	C19.6,4.2,23.5,3.1,27.4,3.5z M24.2,35.3c-8.6-0.9-12.1-9-12.1-9C20.9,37.6,35,32.1,35,32.1C31.9,34.5,28,35.7,24.2,35.3L24.2,35.3z
	 M40.6,23c-5.3-0.5-10.4-0.7-14.8-0.7l0,0c-4.9,0-9.9,0.2-14.8,0.6c-0.2-1.1-0.4-2.3-0.4-3.5l0,0c0-1.2,0.1-2.4,0.4-3.6
	c4.9,0.6,9.9,0.9,14.8,0.9l0,0c4.9,0,9.9-0.2,14.8-0.9c0.2,1.2,0.4,2.4,0.4,3.6l0,0C41,20.6,40.9,21.8,40.6,23L40.6,23L40.6,23z"/>
<g>
	<path class="st3" d="M12,26.3c0,0,3.5,8,12.1,9c3.9,0.4,7.8-0.8,10.8-3.2C34.9,32.1,20.9,37.6,12,26.3z"/>
	<path class="st3" d="M25.6,35.5c-0.5,0-1,0-1.5-0.1c-8.6-1-12.2-9-12.2-9.1l-0.4-0.9l0.6,0.8C20.8,37.3,34.7,32,34.9,32l0.8-0.3
		L35,32.2C32.3,34.3,28.9,35.5,25.6,35.5z M12.7,27.3c1.3,2.2,4.9,7.1,11.4,7.9c3.5,0.4,7.2-0.6,10.1-2.7
		C31.3,33.4,20.4,36,12.7,27.3z"/>
</g>
<g>
	<path class="st3" d="M39.5,12.5c0,0-3.5-8-12.1-9c-3.9-0.4-7.8,0.8-10.8,3.2C16.6,6.7,30.7,1.1,39.5,12.5z"/>
	<path class="st3" d="M40,13.4l-0.6-0.8C30.8,1.4,16.8,6.8,16.6,6.8l-0.8,0.3l0.7-0.5c3.1-2.4,7-3.6,10.9-3.2c8.6,1,12.2,9,12.2,9.1
		L40,13.4z M24.6,5.2c4.4,0,9.8,1.3,14.2,6.2c-1.3-2.2-4.9-7.1-11.4-7.8c-3.5-0.4-7.2,0.6-10.1,2.7C18.5,5.9,21.3,5.2,24.6,5.2z"/>
</g>
<path class="st3" d="M21,19l-5.5-0.7c-0.2,0-0.3,0.1-0.3,0.3c0,0.1,0,0.2,0.1,0.2c1.5,1.8,4.1,2.1,5.9,0.7c0.1-0.1,0.2-0.3,0.1-0.4
	C21.1,19,21.1,19,21,19L21,19z"/>
<path class="st3" d="M30.5,19.5c1.8,1.4,4.5,1.1,5.9-0.7c0.1-0.1,0.1-0.3-0.1-0.4c-0.1,0-0.1-0.1-0.2-0.1L30.6,19
	c-0.2,0-0.3,0.2-0.2,0.3C30.4,19.4,30.4,19.5,30.5,19.5L30.5,19.5z"/>
<path class="st0" d="M92.8,15.7c-0.5-0.5-1.1-0.9-1.7-1.2c-0.7-0.3-1.4-0.4-2.1-0.4h-1.5v10.3H89c0.7,0,1.4-0.1,2.1-0.3
	c0.6-0.3,1.2-0.7,1.7-1.2s0.9-1,1.2-1.7c0.3-0.6,0.4-1.3,0.4-1.9c0-0.7-0.1-1.3-0.4-2C93.7,16.7,93.3,16.2,92.8,15.7z"/>
<path class="st0" d="M75.1,14.8c-0.8-0.5-1.6-0.8-2.5-0.8s-1.8,0.3-2.5,0.7c-0.8,0.5-1.4,1.2-1.8,2c-0.4,0.8-0.7,1.7-0.7,2.6
	s0.2,1.8,0.7,2.6c0.4,0.8,1.1,1.5,1.8,2c1.5,1,3.5,1,5,0c0.8-0.5,1.4-1.2,1.8-2c0.9-1.6,0.9-3.5,0-5.1
	C76.5,15.9,75.9,15.3,75.1,14.8z"/>
<polygon class="st0" points="168.7,21.7 172.2,21.7 170.5,18.6 "/>
<path class="st3" d="M58.1,23.8c-1.4,1-3.2,1-4.6,0c-0.7-0.5-1.3-1.2-1.7-2s-0.6-1.7-0.6-2.6s0.2-1.8,0.6-2.6c0.4-0.8,1-1.4,1.7-1.9
	c1.4-1,3.3-1,4.7,0c0.4,0.3,0.7,0.6,1,1l2.9-3c-0.6-0.6-1.2-1.1-1.9-1.6c-2.7-1.7-6.1-1.7-8.8,0c-1.3,0.8-2.4,2-3.2,3.4
	c-1.6,2.9-1.6,6.4,0,9.4c0.8,1.4,1.9,2.5,3.2,3.4c2.7,1.7,6.1,1.7,8.8,0c0.7-0.4,1.3-1,1.9-1.6l-2.9-3
	C58.9,23.2,58.5,23.5,58.1,23.8z"/>
<path class="st3" d="M77.3,11.2c-2.9-1.7-6.5-1.7-9.4,0c-1.4,0.8-2.6,2-3.5,3.4c-0.8,1.4-1.3,3-1.3,4.6s0.4,3.2,1.3,4.6
	c2.6,4.4,8.4,5.9,12.8,3.4c1.4-0.8,2.6-2,3.5-3.4c0.8-1.4,1.3-3,1.3-4.6s-0.4-3.2-1.3-4.6C79.9,13.2,78.7,12,77.3,11.2z M76.9,21.8
	c-0.4,0.8-1.1,1.5-1.8,2c-1.5,1-3.5,1-5,0c-0.8-0.5-1.4-1.2-1.8-2c-0.5-0.8-0.7-1.7-0.7-2.6s0.2-1.8,0.7-2.6
	c0.4-0.8,1.1-1.5,1.8-1.9c0.7-0.5,1.6-0.8,2.5-0.8s1.8,0.3,2.5,0.7c0.8,0.5,1.4,1.2,1.8,2C77.8,18.3,77.8,20.2,76.9,21.8L76.9,21.8z
	"/>
<path class="st3" d="M96.1,12.9c-0.9-0.8-1.9-1.4-3-1.9c-1.2-0.5-2.4-0.7-3.7-0.7H83v17.8h6.4c1.2,0,2.5-0.2,3.6-0.6s2.1-1.1,3-1.9
	s1.5-1.8,2-2.8c0.5-1.1,0.7-2.3,0.7-3.5s-0.2-2.4-0.7-3.5C97.7,14.8,97,13.8,96.1,12.9z M94,21.2c-0.3,0.6-0.7,1.2-1.2,1.7
	s-1.1,0.9-1.7,1.2c-0.7,0.3-1.4,0.4-2.1,0.4h-1.4V14.2H89c0.7,0,1.4,0.1,2.1,0.4c0.6,0.3,1.2,0.7,1.7,1.2s0.9,1,1.2,1.6
	c0.3,0.6,0.4,1.3,0.4,2C94.4,20,94.2,20.6,94,21.2L94,21.2z"/>
<polygon class="st3" points="100,28.2 111.3,28.2 111.3,24.4 104.4,24.4 104.4,21 108.9,21 107.9,17.2 104.4,17.2 104.4,14.2 
	111.3,14.2 111.3,10.4 100,10.4 "/>
<polygon class="st3" points="127.3,18.6 116,10.1 116,28.1 120.3,28.1 120.3,19.1 131.6,28.2 131.6,10.4 127.3,10.4 "/>
<polygon class="st3" points="132.8,28.2 137.2,28.2 137.2,10.4 132.8,10.4 "/>
<polygon class="st3" points="154,28.2 154,10.4 149.7,10.4 149.7,18.6 138.3,10.1 138.3,28.1 142.7,28.1 142.7,19.1 "/>
<path class="st3" d="M155.3,27.4L155.3,27.4c0,0.3-0.1,0.6-0.2,0.9c-0.3,0.8-0.7,1.5-1.4,2c-0.7,0.6-1.5,1-2.3,1.2h-0.1h-0.2l-0.6,0.1v3.8
	c0.6,0,1.3-0.1,1.9-0.3c1.6-0.4,3-1.1,4.2-2.2c1.1-1,2-2.3,2.5-3.8c0.2-0.5,0.3-1.1,0.3-1.6l0,0V10.4h-4.2L155.3,27.4z"/>
<path class="st3" d="M160.7,28.2h4.5l1.7-3.2h7.1l1.7,3.2h4.4l-9.7-18L160.7,28.2z M168.8,21.7l1.8-3.2l1.7,3.2H168.8z"/>
<path class="st3" d="M192,19.1c-0.6-0.7-1.4-1.3-2.3-1.7c-0.9-0.3-1.7-0.7-2.6-1c-0.8-0.4-1.2-0.8-1.2-1.4c0-0.4,0.2-0.8,0.6-1
	c0.3-0.3,0.7-0.4,1.2-0.4s1,0.1,1.5,0.3c0.5,0.3,1,0.6,1.4,1l2.1-3.1c-0.7-0.7-1.5-1.2-2.3-1.5c-0.9-0.3-1.8-0.5-2.7-0.5
	c-1,0-1.9,0.2-2.8,0.6c-0.9,0.4-1.7,1.1-2.2,1.9c-0.6,0.9-0.8,1.9-0.8,2.9c-0.1,1.2,0.2,2.3,0.9,3.3c0.6,0.7,1.4,1.3,2.3,1.7
	l0.7,0.3l0.6,0.3l1.3,0.5c0.8,0.4,1.2,0.8,1.2,1.5c0,0.5-0.2,0.9-0.7,1.2c-0.4,0.3-0.9,0.4-1.4,0.4c-1.2,0-2.3-0.5-3-1.4l-2.4,3.4
	c0.7,0.7,1.6,1.2,2.5,1.6c0.9,0.3,2,0.5,3,0.5c1.6,0.1,3.2-0.5,4.4-1.5c1.2-1.1,1.8-2.8,1.7-4.4C193.1,21.3,192.7,20.1,192,19.1z"/>
<path class="st3" d="M199.1,12.3c0,0.7-0.3,1.3-0.7,1.8c-1,1-2.5,1-3.5,0l0,0c-1-1-1-2.6,0-3.6s2.5-1,3.5,0l0,0
	C198.9,11,199.1,11.7,199.1,12.3z M195.3,11c-0.8,0.8-0.8,2,0,2.7c0.4,0.4,0.8,0.6,1.4,0.6c1.1,0,1.9-0.9,1.9-2c0-0.5-0.2-1-0.6-1.3
	c-0.4-0.4-0.8-0.6-1.4-0.6C196.1,10.4,195.6,10.6,195.3,11z M195.8,13.6V11h0.7c0.2,0,0.4,0,0.5,0.1c0.1,0,0.3,0.1,0.4,0.3
	c0.1,0.1,0.1,0.3,0.1,0.5c0,0.1,0,0.3-0.1,0.4c-0.1,0.1-0.2,0.2-0.3,0.3l0.6,1.2H197l-0.5-1.2l0,0v1.2h-0.7V13.6z M196.4,12.3
	c0.1,0,0.2,0,0.3,0s0.1-0.1,0.2-0.1c0-0.1,0-0.1,0-0.2c0-0.1,0-0.2-0.1-0.3s-0.2-0.1-0.4-0.1V12.3z"/>
</svg>
