<?xml version="1.0" standalone="no"?>
<svg version="1.0" xmlns="http://www.w3.org/2000/svg" viewBox="0 0 1800 1800">
<g transform="translate(0,1800) scale(0.1,-0.1)"
fill="#ffffff" stroke="none">
<path d="M8668 17994 c-2 -1 -66 -5 -143 -8 -77 -4 -158 -9 -180 -11 -22 -2
-74 -7 -115 -10 -112 -8 -398 -39 -460 -50 -14 -2 -45 -6 -70 -9 -196 -24
-660 -116 -915 -181 -497 -128 -966 -290 -1420 -490 -138 -60 -519 -247 -645
-315 -322 -175 -734 -436 -1010 -638 -41 -31 -91 -67 -110 -81 -89 -64 -385
-306 -537 -438 -204 -179 -613 -585 -788 -783 -419 -475 -768 -960 -1087
-1510 -114 -196 -274 -508 -375 -730 -331 -726 -555 -1458 -688 -2245 -18
-110 -36 -225 -40 -255 -3 -30 -8 -66 -10 -80 -10 -68 -40 -372 -50 -505 -26
-349 -26 -980 0 -1315 2 -33 15 -186 20 -240 1 -14 5 -47 8 -75 4 -27 9 -75
12 -105 4 -30 8 -66 10 -80 2 -14 7 -50 10 -80 4 -30 22 -145 40 -255 332
-1965 1288 -3738 2751 -5099 817 -761 1762 -1359 2805 -1774 482 -192 937
-327 1534 -456 177 -38 627 -108 785 -122 41 -3 83 -8 92 -9 10 -2 60 -7 113
-10 52 -4 107 -8 122 -11 178 -24 1111 -24 1358 1 22 2 76 7 120 10 44 3 91 8
105 10 14 2 57 6 95 10 206 18 664 94 944 156 1226 273 2345 780 3371 1528
699 510 1355 1159 1892 1876 651 867 1142 1858 1443 2909 119 417 224 924 269
1301 4 28 8 61 11 75 2 14 6 50 9 80 8 82 18 191 21 225 2 17 6 84 10 150 3
66 8 125 10 132 2 6 7 143 10 305 6 244 -4 677 -20 878 -4 60 -17 214 -20 240
-1 14 -5 57 -9 95 -4 39 -9 81 -11 95 -3 14 -7 45 -10 70 -8 70 -19 141 -30
210 -2 14 -9 57 -15 95 -41 268 -136 689 -225 1000 -334 1158 -884 2223 -1629
3150 -364 453 -855 952 -1296 1315 -413 341 -882 663 -1320 908 -30 17 -84 47
-120 67 -61 33 -502 253 -580 288 -598 269 -1209 468 -1846 602 -194 41 -454
87 -564 101 -25 3 -56 7 -70 9 -14 3 -45 7 -70 10 -25 2 -101 11 -170 20 -69
8 -161 17 -205 20 -44 3 -107 8 -140 10 -171 14 -260 17 -602 19 -205 2 -374
2 -375 0z m947 -373 c1003 -82 1891 -297 2772 -671 221 -94 687 -325 888 -441
713 -410 1316 -876 1895 -1465 633 -645 1155 -1374 1555 -2174 487 -972 779
-1991 880 -3070 48 -517 48 -1075 -1 -1605 -82 -893 -307 -1777 -667 -2615
-254 -592 -626 -1235 -1010 -1745 -978 -1299 -2255 -2278 -3742 -2868 -822
-327 -1600 -505 -2555 -588 -200 -17 -839 -23 -1070 -10 -1848 104 -3545 751
-4970 1895 -275 221 -408 342 -715 650 -265 266 -461 485 -667 747 -1988 2528
-2408 5949 -1089 8881 987 2196 2860 3889 5146 4653 766 257 1462 386 2360
439 119 7 863 -3 990 -13z"/>
<path d="M8200 17283 c-157 -9 -287 -17 -289 -19 -2 -2 14 -352 35 -779 l39
-776 40 6 c22 2 103 7 180 10 261 9 490 26 560 40 104 22 229 87 295 155 68
68 133 190 161 297 58 228 23 573 -79 768 -71 136 -226 262 -362 294 -78 19
-285 20 -580 4z m463 -268 c106 -28 172 -91 216 -209 23 -62 28 -88 43 -234
20 -190 -10 -370 -77 -457 -60 -79 -156 -107 -412 -120 l-142 -7 -5 33 c-3 19
-14 237 -26 484 -11 248 -22 464 -24 482 l-5 32 72 4 c192 9 305 6 360 -8z"/>
<path d="M6770 17013 c-69 -19 -126 -36 -128 -38 -2 -2 6 -34 17 -71 19 -65
146 -527 317 -1148 40 -148 76 -271 78 -274 5 -4 274 66 284 73 3 2 -147 552
-243 895 -13 47 -54 193 -90 325 -36 132 -68 248 -71 258 -7 23 -18 21 -164
-20z"/>
<path d="M9728 16821 c-230 -74 -368 -299 -372 -606 -1 -101 3 -132 23 -195
43 -139 117 -230 231 -287 100 -50 178 -67 310 -67 130 0 197 19 280 79 67 49
150 149 150 182 0 7 -260 93 -283 93 -4 0 -7 -7 -7 -15 0 -28 -83 -102 -126
-114 -134 -36 -269 77 -282 235 -5 62 -4 64 18 64 13 0 181 -21 372 -46 192
-25 352 -44 354 -41 3 3 8 63 11 134 9 214 -33 345 -144 456 -63 63 -143 108
-238 132 -81 21 -225 19 -297 -4z m268 -230 c57 -26 110 -92 123 -153 14 -64
14 -118 0 -118 -30 0 -406 52 -421 58 -15 6 -15 11 2 66 42 133 177 201 296
147z"/>
<path d="M11901 16618 c-28 -66 -51 -125 -51 -130 0 -4 10 -13 23 -17 12 -5
71 -30 132 -55 60 -25 112 -43 117 -38 20 20 107 252 95 252 -2 0 -62 24 -134
54 l-131 54 -51 -120z"/>
<path d="M10783 16615 c-142 -44 -233 -162 -233 -303 0 -157 87 -250 399 -427
135 -76 165 -105 157 -148 -7 -40 -57 -86 -94 -89 -91 -5 -202 28 -259 77 -43
37 -61 74 -65 137 -2 27 -8 38 -23 42 -42 10 -276 39 -280 34 -12 -12 16 -145
44 -204 73 -156 269 -272 515 -304 252 -34 446 94 472 311 17 145 -68 250
-318 394 -234 134 -275 171 -256 226 17 50 75 60 188 33 120 -28 152 -56 198
-175 9 -24 16 -26 84 -32 40 -4 102 -10 137 -13 l64 -7 -6 55 c-13 115 -73
217 -163 274 -163 105 -428 161 -561 119z"/>
<path d="M6195 16390 c-212 -56 -384 -160 -437 -265 -31 -59 -48 -132 -48
-203 0 -60 1 -62 23 -57 29 7 106 22 183 37 l61 12 11 57 c6 32 18 69 27 83
25 38 136 89 204 94 67 5 99 -15 133 -81 l21 -41 -39 -34 c-22 -18 -100 -75
-174 -125 -152 -103 -230 -171 -268 -237 -24 -40 -27 -55 -27 -140 0 -85 3
-101 29 -150 60 -116 142 -170 267 -178 169 -10 338 82 425 232 20 33 37 62
38 63 1 2 18 -17 36 -42 19 -25 40 -45 49 -45 8 0 72 23 142 52 l128 51 -53
57 c-64 70 -111 164 -206 410 -136 352 -181 421 -299 454 -74 21 -138 20 -226
-4z m285 -637 c39 -107 37 -160 -6 -230 -38 -61 -120 -113 -179 -113 -118 0
-194 120 -132 210 12 18 80 75 152 126 71 52 131 94 132 94 0 0 15 -39 33 -87z"/>
<path d="M11572 15828 c-117 -282 -212 -517 -212 -523 1 -15 260 -119 270
-109 14 14 431 1026 426 1031 -6 6 -258 113 -266 113 -3 0 -101 -231 -218
-512z"/>
<path d="M4997 16154 l-88 -146 51 -94 c27 -52 50 -98 50 -102 0 -4 -24 -20
-53 -36 -28 -16 -54 -30 -56 -32 -5 -4 98 -192 110 -199 5 -4 34 7 64 24 l56
29 13 -21 c7 -12 69 -123 136 -247 183 -336 215 -381 294 -422 91 -47 257 7
379 122 l62 58 -64 94 c-35 51 -66 95 -67 97 -2 2 -26 -17 -53 -42 -59 -55
-98 -62 -134 -23 -12 13 -58 88 -101 167 -44 79 -106 190 -138 247 -32 57 -58
107 -58 111 0 4 38 29 85 55 47 26 85 50 85 53 0 6 -58 113 -92 171 l-20 32
-88 -47 c-49 -26 -91 -45 -93 -43 -2 3 -40 73 -85 155 -44 83 -87 158 -94 167
-12 15 -23 1 -101 -128z"/>
<path d="M4416 15935 c-59 -40 -113 -78 -119 -84 -7 -7 12 -44 63 -121 40 -60
75 -110 78 -110 11 0 242 155 242 163 0 9 -144 227 -150 226 -3 0 -54 -33
-114 -74z"/>
<path d="M12304 15991 c-137 -50 -245 -156 -340 -335 -98 -185 -110 -376 -33
-530 31 -62 125 -151 194 -182 98 -45 227 -49 321 -9 19 8 34 12 34 10 0 -8
-110 -197 -130 -222 -67 -85 -170 -83 -311 7 -61 40 -83 79 -75 131 l6 37
-138 100 -137 100 -22 -36 c-30 -49 -47 -130 -39 -184 17 -115 100 -223 243
-318 166 -109 290 -155 418 -155 109 0 157 20 245 102 77 71 121 139 329 517
18 32 46 81 62 108 16 27 29 51 29 53 0 3 13 26 29 52 61 100 211 375 211 386
0 14 -228 142 -237 133 -4 -3 -21 -32 -39 -64 -20 -35 -34 -51 -37 -42 -2 8
-12 40 -21 71 -32 110 -110 197 -226 253 -59 28 -75 31 -175 33 -87 2 -121 -1
-161 -16z m287 -256 c139 -49 194 -191 135 -349 -31 -81 -67 -139 -125 -200
-57 -59 -117 -87 -191 -87 -141 -1 -239 105 -227 246 9 120 104 288 201 358
65 46 135 57 207 32z"/>
<path d="M4647 15572 c-83 -54 -116 -82 -113 -93 4 -17 588 -894 610 -915 8
-9 41 8 132 70 l122 81 -312 467 c-171 257 -313 468 -316 468 -3 0 -58 -35
-123 -78z"/>
<path d="M13380 15412 c-25 -31 -84 -104 -131 -162 -214 -263 -515 -636 -521
-646 -4 -6 42 -50 108 -104 97 -77 118 -90 128 -79 7 8 89 108 182 224 258
320 304 363 397 379 82 15 207 -51 237 -124 20 -48 8 -121 -30 -180 -19 -29
-129 -170 -247 -314 -117 -143 -213 -264 -213 -267 0 -11 223 -188 231 -183 4
2 52 59 106 125 306 378 403 501 432 552 82 144 50 301 -90 432 -92 86 -226
129 -355 115 -33 -4 -60 -6 -62 -5 -1 1 18 27 43 58 25 31 45 59 44 64 0 8
-202 173 -210 173 -2 -1 -24 -27 -49 -58z"/>
<path d="M4201 15264 c-56 -48 -101 -89 -101 -93 0 -3 12 -17 25 -30 14 -13
35 -36 46 -52 l20 -28 -65 6 c-130 12 -256 -38 -347 -137 -176 -192 -155 -460
55 -707 104 -123 215 -196 346 -229 247 -62 496 111 516 359 4 42 10 77 13 77
11 -1 146 -169 165 -206 21 -40 23 -102 4 -137 -20 -39 -122 -138 -160 -158
-45 -23 -79 -24 -119 -3 l-31 16 -139 -93 c-76 -50 -139 -95 -139 -99 0 -16
94 -93 134 -111 53 -23 139 -31 197 -18 107 24 265 127 385 251 84 87 116 135
145 220 41 122 11 243 -97 389 -66 88 -734 869 -744 869 -5 0 -54 -39 -109
-86z m97 -394 c75 -38 178 -144 218 -226 24 -49 29 -72 29 -135 0 -67 -4 -81
-30 -125 -79 -126 -224 -147 -357 -49 -57 42 -145 147 -178 212 -34 67 -39
166 -12 219 65 126 200 169 330 104z"/>
<path d="M8730 15123 c-47 -2 -168 -10 -270 -18 -1259 -105 -2422 -592 -3400
-1423 -149 -127 -501 -475 -627 -622 -824 -959 -1312 -2098 -1439 -3360 -21
-216 -29 -713 -15 -930 40 -605 153 -1148 352 -1693 215 -590 534 -1162 919
-1647 800 -1011 1876 -1729 3110 -2074 338 -94 689 -157 1115 -198 171 -17
807 -17 980 0 795 77 1455 258 2120 582 966 471 1771 1171 2370 2065 581 866
911 1827 995 2900 17 209 14 687 -5 910 -78 927 -360 1814 -823 2585 -595 990
-1451 1784 -2482 2299 -898 448 -1876 659 -2900 624z m820 -127 c872 -99 1624
-341 2350 -757 297 -170 714 -468 930 -665 421 -383 656 -644 946 -1049 525
-733 895 -1664 1018 -2565 67 -481 74 -1025 20 -1495 -171 -1504 -904 -2862
-2084 -3859 -339 -286 -785 -574 -1205 -777 -1780 -861 -3886 -768 -5580 245
-254 151 -549 359 -725 511 -20 16 -60 50 -90 75 -89 73 -155 136 -330 310
-168 168 -199 202 -305 325 -33 39 -62 72 -65 75 -14 13 -126 157 -198 252
-228 304 -474 718 -617 1038 -31 69 -62 139 -70 155 -7 17 -32 77 -55 135
-209 523 -337 1056 -397 1660 -24 245 -24 805 0 1050 125 1250 583 2340 1376
3280 126 150 422 453 580 593 442 397 982 746 1516 982 595 263 1238 430 1865
485 69 5 143 12 165 14 113 11 819 -3 955 -18z"/>
<path d="M8734 14134 c-853 -116 -1532 -812 -1634 -1674 -12 -104 -9 -392 5
-490 48 -337 195 -671 413 -941 114 -141 343 -344 471 -416 l39 -23 358 603
c196 331 402 679 456 772 55 94 106 176 112 183 14 14 16 11 646 -1055 173
-293 318 -533 321 -533 3 0 44 23 90 51 407 247 728 681 844 1138 50 198 59
275 59 491 0 169 -4 226 -22 320 -56 298 -164 556 -330 789 -79 111 -254 296
-361 383 -273 220 -613 363 -971 408 -115 14 -373 11 -496 -6z"/>
<path d="M5966 9419 c-570 -54 -1089 -366 -1413 -849 -158 -236 -261 -511
-299 -803 -24 -181 -15 -469 21 -637 112 -537 436 -991 902 -1266 507 -300
1139 -348 1682 -129 247 99 437 222 629 409 270 262 470 629 541 996 22 117
46 364 36 380 -4 7 -314 10 -926 10 -505 0 -919 2 -919 5 0 3 56 99 124 213
277 465 806 1361 812 1375 14 36 -250 164 -471 229 -211 61 -497 88 -719 67z"/>
<path d="M11481 9394 c-116 -16 -265 -52 -373 -90 -113 -40 -349 -156 -344
-169 2 -7 216 -369 475 -806 l470 -794 -937 -5 -937 -5 2 -109 c3 -256 64
-497 193 -761 278 -572 822 -965 1460 -1056 125 -18 414 -15 540 5 635 100
1160 487 1439 1059 292 599 246 1328 -119 1881 -318 483 -804 784 -1380 856
-115 14 -363 11 -489 -6z"/>
<path d="M2939 14675 c-52 -58 -95 -109 -97 -113 -2 -8 50 -60 155 -154 l41
-37 101 110 101 109 -67 64 c-38 34 -84 77 -104 94 l-36 31 -94 -104z"/>
<path d="M3257 14385 c-54 -58 -97 -110 -97 -116 0 -12 26 -37 479 -452 184
-169 337 -307 341 -307 7 0 181 187 193 207 5 7 -127 135 -350 339 -197 181
-383 352 -414 381 l-56 53 -96 -105z"/>
<path d="M2633 14125 c-156 -44 -257 -132 -429 -375 -60 -85 -150 -213 -201
-285 -50 -71 -88 -133 -84 -137 12 -14 1256 -888 1263 -888 9 0 373 519 418
597 115 201 115 416 1 604 -56 91 -117 163 -195 227 -138 114 -272 193 -402
237 -99 34 -286 44 -371 20z m254 -316 c111 -36 327 -187 423 -296 95 -109
117 -216 67 -327 -24 -52 -216 -336 -228 -336 -3 0 -53 33 -110 73 -57 41
-243 172 -414 291 -170 120 -312 220 -314 221 -5 5 141 208 197 273 106 126
213 154 379 101z"/>
<path d="M15147 14125 c-105 -40 -171 -119 -231 -280 l-32 -84 -53 24 c-113
53 -183 68 -299 63 -94 -3 -114 -8 -167 -33 -170 -85 -265 -249 -252 -434 17
-242 245 -522 472 -581 l50 -12 0 -153 c0 -85 2 -155 5 -158 3 -2 70 -7 149
-11 l143 -7 -2 78 c-2 43 -3 110 -2 149 l2 71 63 7 c69 7 277 64 277 76 0 4
-23 62 -51 130 -40 94 -55 121 -68 117 -81 -24 -151 -40 -156 -36 -5 6 89 316
98 326 3 2 47 -10 98 -28 121 -40 238 -45 311 -12 67 30 141 104 168 166 31
71 37 176 15 253 -38 134 -166 294 -279 349 -71 35 -196 44 -259 20z m221
-269 c56 -29 102 -103 102 -163 0 -35 -31 -87 -64 -108 -14 -9 -44 -17 -68
-16 -53 0 -178 38 -178 53 0 27 34 146 51 180 10 20 29 44 41 52 28 20 80 21
116 2z m-633 -301 c85 -24 88 -29 66 -105 -11 -36 -33 -117 -51 -180 -57 -210
-58 -213 -89 -205 -115 27 -238 133 -267 232 -35 122 37 233 176 269 49 13 87
10 165 -11z"/>
<path d="M2410 7814 c-175 -47 -245 -66 -934 -248 -242 -64 -441 -118 -444
-120 -4 -5 76 -307 83 -315 2 -2 304 77 672 174 367 98 721 191 786 208 64 16
117 35 117 41 0 6 -11 54 -25 106 -50 188 -55 200 -73 199 -9 0 -91 -21 -182
-45z"/>
<path d="M16706 7669 c-20 -84 -35 -153 -34 -155 5 -4 301 -74 303 -72 2 2 17
64 34 138 18 74 34 142 36 150 4 13 -23 22 -137 49 -78 18 -148 35 -154 38 -8
3 -24 -47 -48 -148z"/>
<path d="M16030 7520 c-73 -9 -124 -26 -187 -62 -124 -69 -227 -248 -254 -441
-41 -295 128 -521 472 -628 62 -20 96 -24 214 -24 137 0 141 1 219 34 154 66
266 215 317 421 39 156 12 315 -73 423 -53 67 -161 158 -173 145 -2 -2 -38
-63 -79 -136 l-75 -132 27 -14 c32 -17 95 -81 112 -114 21 -42 14 -128 -15
-189 -65 -131 -190 -162 -395 -98 -245 77 -342 202 -285 366 34 95 90 138 190
148 l59 6 24 139 c12 77 20 146 18 153 -6 14 -29 15 -116 3z"/>
<path d="M1825 7078 c-286 -143 -521 -261 -523 -263 -3 -3 125 -265 134 -274
2 -3 147 66 322 152 337 166 414 195 495 183 111 -17 205 -145 174 -239 -19
-56 -93 -103 -450 -283 -194 -97 -353 -178 -355 -179 -6 -5 133 -275 140 -275
5 0 125 59 268 130 353 177 418 203 500 204 98 1 170 -44 205 -126 32 -78 11
-139 -67 -195 -24 -17 -197 -108 -385 -202 -189 -94 -343 -173 -343 -176 0 -5
130 -267 135 -273 2 -2 183 87 402 197 437 218 481 247 527 345 32 67 41 136
27 210 -31 170 -147 301 -310 351 -34 10 -60 21 -58 24 34 60 52 116 55 172
10 165 -86 327 -241 404 -38 19 -77 35 -86 35 -9 0 -22 4 -29 9 -9 5 7 18 52
39 36 17 66 36 66 42 0 17 -119 250 -128 249 -4 0 -241 -117 -527 -261z"/>
<path d="M15483 6459 c-125 -24 -258 -168 -299 -324 -24 -87 -17 -186 20 -303
7 -22 6 -22 -51 9 -32 17 -64 36 -71 41 -7 6 -15 9 -17 6 -3 -2 -36 -61 -73
-130 l-69 -125 510 -279 c280 -153 515 -280 522 -282 7 -2 31 31 55 75 24 43
56 102 72 131 16 28 27 56 24 61 -5 8 -131 79 -311 176 -232 126 -319 180
-372 232 -47 47 -63 89 -63 163 0 126 77 220 179 220 62 0 120 -27 469 -217
177 -97 324 -174 326 -172 2 2 36 64 76 138 79 145 79 134 10 170 -19 9 -156
84 -305 166 -314 173 -430 229 -503 244 -59 12 -69 12 -129 0z"/>
<path d="M14355 5539 c-48 -77 -86 -141 -84 -143 33 -24 1364 -849 1376 -852
14 -4 30 15 68 78 27 46 65 107 84 136 19 29 32 54 30 56 -5 6 -1349 845
-1370 857 -14 7 -32 -15 -104 -132z"/>
<path d="M2913 5523 c-35 -8 -63 -20 -63 -26 -1 -7 27 -66 61 -133 l63 -121
48 9 c33 6 61 5 82 -2 80 -26 176 -157 176 -238 0 -39 -5 -50 -44 -88 -24 -24
-47 -44 -52 -44 -15 0 -134 94 -234 185 -183 167 -290 218 -412 196 -80 -14
-143 -45 -194 -97 -77 -77 -103 -154 -93 -273 9 -100 43 -173 121 -257 76 -80
152 -125 266 -154 l42 -11 -39 -53 -39 -53 90 -122 c49 -66 93 -121 97 -121 3
0 19 22 35 49 47 80 109 135 356 320 245 183 327 252 360 306 47 76 45 203 -4
311 -59 130 -207 311 -304 373 -90 57 -200 73 -319 44z m-125 -584 c80 -59
222 -179 222 -187 -1 -9 -107 -85 -146 -105 -81 -41 -175 -24 -251 46 -106 97
-105 212 1 279 48 30 103 20 174 -33z"/>
<path d="M3705 4659 c-109 -8 -179 -33 -271 -98 -126 -88 -228 -206 -289 -332
-44 -93 -58 -163 -53 -269 3 -69 10 -98 34 -150 79 -167 254 -274 424 -258 27
3 50 2 50 -2 0 -14 -198 -200 -224 -210 -41 -15 -98 -12 -138 8 -94 48 -188
155 -188 214 0 16 6 41 14 56 14 27 12 30 -95 162 -60 74 -113 136 -118 138
-16 5 -81 -81 -101 -135 -39 -103 -22 -216 51 -339 44 -77 247 -279 324 -324
76 -45 178 -79 235 -80 55 0 131 20 187 48 56 29 174 126 253 209 36 37 216
222 400 411 l333 343 -106 106 -105 106 -52 -56 c-29 -32 -55 -57 -59 -57 -3
0 -5 29 -5 65 3 128 -35 222 -126 313 -105 103 -216 142 -375 131z m190 -308
c22 -10 59 -39 82 -64 75 -81 89 -189 37 -290 -46 -89 -162 -205 -249 -249
-48 -25 -149 -35 -198 -19 -55 18 -123 76 -146 124 -30 62 -29 152 4 220 52
109 185 238 287 279 57 22 133 22 183 -1z"/>
<path d="M4794 4195 c-72 -95 -85 -117 -74 -130 25 -30 230 -176 239 -171 6 4
43 50 82 104 40 53 76 102 81 108 5 7 -37 45 -117 107 l-124 96 -87 -114z"/>
<path d="M13675 4175 c-108 -29 -191 -79 -275 -165 -159 -161 -189 -405 -78
-625 55 -109 161 -236 258 -306 102 -75 226 -114 340 -106 241 16 494 230 541
455 13 65 7 185 -13 249 l-13 43 -137 -78 c-119 -66 -137 -80 -132 -97 11 -33
16 -124 10 -151 -9 -36 -75 -104 -121 -125 -91 -42 -217 -14 -294 65 l-33 34
54 44 c210 167 548 451 548 459 0 6 -44 55 -97 108 -105 105 -189 159 -295
192 -71 22 -189 24 -263 4z m178 -266 c23 -12 59 -37 80 -57 36 -35 37 -37 19
-52 -11 -8 -75 -60 -143 -114 -68 -55 -138 -113 -156 -129 -40 -37 -55 -31
-86 30 -34 67 -40 104 -27 168 13 63 45 106 109 147 57 36 140 39 204 7z"/>
<path d="M14677 3970 c-59 -59 -107 -112 -107 -117 0 -5 50 -55 111 -112 l110
-104 53 52 53 53 31 -37 c47 -58 59 -113 38 -187 -9 -34 -13 -64 -9 -68 16
-15 115 -42 123 -34 20 23 40 114 40 183 0 129 -51 211 -247 395 l-90 85 -106
-109z"/>
<path d="M4444 3733 c-87 -115 -185 -244 -219 -288 -34 -44 -119 -156 -190
-250 -70 -93 -132 -175 -137 -182 -6 -8 27 -39 111 -102 66 -50 124 -91 129
-91 5 0 61 69 124 153 64 83 162 213 218 287 57 74 165 217 241 316 l138 182
-120 91 c-66 50 -124 91 -129 91 -5 0 -80 -93 -166 -207z"/>
<path d="M4700 3198 c-162 -276 -296 -506 -298 -512 -1 -6 44 -38 100 -70 57
-33 117 -68 134 -78 l31 -18 148 252 c216 368 264 435 340 469 140 64 320 -33
318 -171 -1 -64 -27 -116 -232 -464 -99 -169 -181 -311 -181 -315 0 -3 40 -28
88 -56 47 -27 108 -62 134 -77 l46 -27 148 252 c81 138 174 297 207 351 94
155 121 225 121 321 1 67 -3 89 -26 138 -38 80 -119 157 -216 204 -70 34 -86
38 -178 41 -73 3 -117 0 -155 -11 -29 -9 -55 -15 -56 -13 -2 2 15 34 37 71
l40 69 -118 69 c-64 38 -121 71 -127 73 -5 2 -143 -222 -305 -498z"/>
<path d="M12800 3554 c-128 -33 -297 -141 -362 -231 -78 -106 -108 -194 -108
-318 0 -100 19 -175 71 -284 146 -308 391 -452 663 -391 73 17 203 83 272 138
77 62 145 153 169 227 29 86 26 296 -4 344 -7 11 -36 3 -150 -40 -137 -52
-142 -55 -136 -79 4 -14 9 -54 11 -90 7 -83 -20 -138 -89 -186 -89 -62 -187
-61 -277 1 -84 58 -209 261 -229 371 -21 110 38 213 149 263 77 35 153 21 215
-39 l31 -30 44 38 c140 120 190 164 190 169 0 14 -81 75 -136 102 -105 52
-213 64 -324 35z"/>
<path d="M11760 3505 c-52 -25 -112 -51 -132 -60 -21 -8 -38 -21 -38 -29 0
-14 97 -235 109 -249 10 -11 281 113 281 129 0 19 -106 248 -116 251 -5 1 -52
-18 -104 -42z"/>
<path d="M11915 3080 c-71 -33 -134 -61 -140 -63 -7 -3 406 -940 469 -1064 11
-22 12 -22 151 41 92 42 139 68 137 77 -2 8 -40 95 -84 194 -44 99 -91 203
-103 230 -12 28 -74 165 -137 305 -64 140 -123 274 -134 298 -10 23 -20 42
-23 42 -3 -1 -64 -28 -136 -60z"/>
<path d="M6121 3004 c-84 -22 -150 -63 -223 -135 -53 -54 -77 -89 -122 -181
-78 -157 -100 -249 -93 -397 7 -164 44 -252 147 -344 131 -118 322 -147 472
-71 28 14 52 23 55 20 9 -9 -77 -218 -104 -254 -14 -19 -39 -43 -57 -53 -65
-42 -238 -3 -318 72 -33 31 -38 42 -38 80 l0 44 -149 78 c-82 42 -154 77 -159
77 -22 0 -45 -101 -40 -171 11 -146 99 -250 291 -344 167 -81 267 -108 402
-109 105 -1 114 1 177 32 42 20 83 51 110 81 83 93 110 154 382 866 70 182
135 352 146 379 11 27 19 50 17 52 -6 6 -269 105 -272 102 -2 -3 -22 -54 -46
-117 -9 -22 -13 -17 -48 55 -23 47 -58 98 -86 126 -105 106 -291 153 -444 112z
m305 -282 c58 -30 110 -92 128 -153 20 -66 20 -97 0 -178 -36 -146 -122 -274
-211 -316 -88 -42 -194 -28 -267 36 -85 75 -102 192 -51 344 52 156 122 246
220 283 42 16 134 8 181 -16z"/>
<path d="M7902 2970 c-40 -11 -96 -32 -124 -47 -270 -147 -293 -530 -43 -720
76 -58 155 -97 345 -173 199 -80 239 -101 283 -149 61 -67 59 -144 -6 -218
-53 -60 -116 -83 -228 -83 -162 0 -265 47 -326 149 -28 47 -38 78 -59 189 -4
22 -6 22 -166 22 l-161 0 7 -80 c28 -336 236 -519 638 -561 232 -24 405 20
526 134 92 88 139 193 149 334 6 93 -7 162 -44 238 -72 146 -166 207 -551 359
-208 82 -269 134 -259 222 6 53 27 80 82 105 113 50 322 22 403 -54 35 -32 62
-91 69 -147 l6 -48 86 -8 c47 -4 122 -8 165 -8 77 -1 79 0 83 24 7 48 -18 166
-51 236 -73 154 -222 248 -460 289 -122 21 -273 19 -364 -5z"/>
<path d="M11602 2932 c-79 -26 -147 -54 -152 -62 -8 -15 -18 -225 -29 -623
l-6 -218 -77 108 c-43 59 -152 203 -244 318 -91 116 -172 219 -180 229 -13 19
-16 19 -136 -19 -111 -36 -132 -39 -211 -36 -152 5 -220 -34 -290 -166 l-35
-67 -12 77 c-7 42 -18 77 -24 77 -6 0 -71 -10 -144 -22 l-133 -22 6 -41 c31
-188 195 -1118 198 -1121 4 -4 299 45 305 50 1 2 -13 90 -32 197 -56 316 -69
409 -70 509 -1 82 3 102 24 145 14 29 40 60 60 73 31 21 44 23 110 19 41 -2
83 -7 92 -11 13 -6 18 -2 22 16 3 12 11 51 18 86 l13 63 354 -426 c195 -234
360 -430 366 -435 8 -6 55 5 141 34 l129 43 7 64 c12 98 80 1166 76 1188 -3
18 -13 16 -146 -27z"/>
<path d="M9240 2480 c-204 -36 -365 -189 -417 -396 -23 -95 -23 -324 0 -414
58 -222 197 -363 399 -404 282 -58 537 47 642 265 41 86 43 99 19 99 -10 1
-80 9 -156 19 -75 9 -139 15 -142 13 -3 -3 -5 -13 -5 -22 0 -33 -59 -109 -101
-131 -34 -17 -55 -20 -109 -17 -121 7 -205 83 -232 210 -7 32 -9 60 -6 63 3 4
180 14 393 23 l387 16 -6 86 c-27 335 -170 531 -429 584 -80 17 -162 19 -237
6z m183 -241 c77 -21 147 -113 162 -211 l7 -45 -199 -7 c-109 -4 -216 -9 -237
-13 l-39 -5 6 56 c17 167 150 267 300 225z"/>
</g>
</svg>
