<svg version="1.0" xmlns="http://www.w3.org/2000/svg" viewBox="0 0 389 289">
<g transform="translate(0,289) scale(0.1,-0.1)" fill="#ffffff" stroke="none">
<path d="M2650 2819 c-244 -41 -509 -128 -721 -235 l-69 -34 -218 0 c-290 0
-482 -24 -647 -82 -234 -81 -357 -229 -301 -361 29 -68 114 -115 226 -124 62
-5 86 -15 62 -25 -20 -8 -92 -125 -113 -182 -14 -41 -29 -66 -40 -69 -23 -6
-29 0 -29 33 0 27 0 27 -98 33 -135 9 -580 9 -585 0 -3 -5 -8 -87 -11 -183
-10 -241 -24 -471 -36 -560 -5 -41 -10 -110 -10 -152 l0 -78 43 5 c101 13 399
45 408 45 6 0 7 -19 3 -50 l-7 -50 101 0 100 0 7 -164 c4 -90 6 -241 3 -335
-2 -96 0 -171 5 -171 34 0 391 100 402 112 2 2 7 37 13 78 l10 75 -4 -90 c-3
-50 -7 -108 -11 -129 l-5 -39 43 7 c77 13 391 36 482 36 l88 0 -20 -29 c-31
-43 -27 -54 17 -47 120 18 359 28 527 23 l191 -5 11 29 c6 16 18 29 27 29 9 0
65 15 124 34 59 19 185 46 280 61 138 22 172 31 172 44 0 14 -63 375 -75 427
-4 20 -1 21 43 17 41 -4 299 16 418 33 l41 6 7 166 c8 191 12 215 35 208 70
-21 56 -37 183 216 l116 233 -31 11 c-18 6 -76 22 -131 35 l-98 24 6 57 c7 67
16 63 -109 43 -49 -8 -142 -15 -206 -15 -64 0 -131 -3 -148 -6 -30 -6 -31 -9
-31 -55 l0 -49 -145 0 c-80 0 -145 2 -145 4 0 3 21 62 46 133 l46 128 -17 55
c-46 151 -86 202 -212 272 l-62 34 72 13 c94 17 236 64 308 102 116 62 189
164 189 264 0 83 -53 144 -155 181 -59 20 -277 28 -365 13z m299 -110 c62 -13
101 -47 101 -89 0 -112 -155 -201 -443 -255 -96 -17 -385 -45 -472 -45 l-60 1
39 24 c30 18 43 21 53 13 10 -8 22 -2 50 22 33 29 38 31 48 16 16 -21 15 -21
61 19 l39 35 3 -25 c5 -34 16 -32 70 16 56 49 64 52 176 75 113 22 113 38 -1
31 -177 -11 -457 -101 -763 -247 -241 -114 -316 -139 -530 -181 -153 -30 -391
-33 -461 -6 -77 30 -82 74 -15 139 110 107 334 166 695 184 171 8 177 2 55
-63 -112 -60 -298 -118 -463 -145 -78 -13 -141 -26 -141 -29 0 -14 151 -20
231 -9 157 21 337 86 648 237 229 110 363 166 492 206 103 31 271 69 354 80
64 8 186 6 234 -4z m-572 -534 c-26 -25 -47 -52 -47 -59 0 -7 -18 -49 -40 -92
-22 -43 -40 -88 -40 -99 0 -36 34 -118 63 -148 27 -29 27 -31 14 -71 -9 -25
-20 -40 -28 -38 -47 12 -200 13 -288 3 l-104 -12 -61 31 c-71 36 -174 54 -263
47 l-62 -5 -17 50 c-19 59 -64 113 -100 122 -15 4 -41 18 -58 31 -17 13 -44
27 -61 31 -57 13 -48 18 86 45 169 34 305 78 438 140 103 49 105 49 210 50 58
1 156 5 216 9 61 3 128 7 150 8 l40 2 -48 -45z m258 -81 c67 -39 86 -63 115
-148 l18 -53 -56 -159 -57 -159 1 -115 c1 -101 37 -418 63 -554 l9 -48 -172 7
c-94 4 -172 8 -174 10 -1 1 2 42 7 91 5 49 19 181 31 294 12 113 26 215 31
228 7 17 17 22 44 22 48 0 44 16 -5 24 -33 5 -43 12 -57 40 -15 32 -14 37 21
146 39 118 37 137 -7 126 -28 -7 -46 3 -63 36 -18 34 -12 58 12 58 13 0 15 6
10 31 -5 25 -2 32 14 36 13 4 20 15 22 42 3 32 6 36 31 36 21 -1 27 4 27 20 0
12 3 25 7 29 13 13 65 -3 128 -40z m-1451 -219 c13 -19 24 -24 48 -23 26 3 35
-2 46 -24 10 -21 20 -28 42 -28 50 0 60 -9 60 -52 0 -39 -23 -103 -42 -114
-15 -10 -39 17 -33 37 11 34 -21 21 -48 -19 l-27 -37 36 -117 36 -117 -22 -31
c-12 -16 -30 -30 -41 -30 -24 0 -25 -17 0 -25 16 -5 22 -35 47 -248 l29 -242
-58 -3 -58 -3 30 -29 c27 -24 31 -35 31 -82 0 -103 -64 -189 -187 -252 l-53
-26 0 -69 0 -69 -85 -21 c-46 -11 -89 -21 -94 -21 -5 0 -10 103 -10 256 -1
141 -4 266 -7 279 -6 26 4 30 108 41 l66 7 16 91 c18 104 31 192 46 324 l10
93 -46 152 c-25 84 -50 166 -55 184 -7 24 -5 43 11 82 23 60 73 131 103 148
38 21 83 16 101 -12z m-504 -255 l0 -41 125 7 125 7 0 -43 c0 -24 -11 -118
-25 -209 -34 -227 -35 -237 -30 -243 3 -2 27 -2 55 2 27 4 50 3 50 -2 0 -5 -7
-53 -16 -107 l-17 -99 -111 -11 c-61 -6 -131 -14 -155 -16 l-44 -5 6 38 c21
129 43 646 25 578 -10 -35 -13 -38 -39 -32 -16 3 -65 8 -108 12 l-78 7 -7 -43
c-4 -23 -4 -45 0 -49 3 -3 46 -5 96 -3 l90 2 -7 -77 c-4 -43 -9 -81 -12 -85
-2 -5 -40 -8 -84 -8 -55 0 -81 -4 -84 -12 -2 -7 -5 -59 -8 -115 -2 -57 -7
-106 -11 -110 -7 -7 -227 -33 -233 -28 -2 1 4 78 12 171 8 93 18 256 21 362
l7 192 229 0 228 0 0 -40z m1100 -24 c19 -10 44 -28 55 -41 l20 -24 95 14
c128 20 284 19 342 -1 25 -8 56 -26 69 -40 23 -24 23 -25 10 -132 -18 -152
-46 -191 -203 -277 l-73 -41 -3 -78 -3 -79 -52 7 c-29 3 -80 6 -114 6 l-63 0
0 219 c0 121 -4 222 -8 225 -4 2 -13 -7 -20 -22 -30 -69 -137 -160 -231 -198
l-41 -16 0 -88 0 -87 -92 -26 c-51 -14 -94 -24 -96 -22 -3 2 -13 62 -23 132
-21 147 -23 282 -5 333 11 30 10 44 -6 100 -21 76 -24 130 -5 131 6 0 50 7 97
14 118 19 304 14 350 -9z m1666 -28 c-19 -152 -46 -443 -51 -541 -4 -62 -8
-126 -11 -143 l-4 -31 -155 -13 c-85 -7 -158 -12 -162 -12 -5 1 -17 99 -29
219 -12 120 -22 220 -24 223 -1 3 -10 -83 -19 -190 l-16 -195 -27 -3 c-27 -3
-28 -1 -28 37 0 23 -3 41 -7 41 -5 0 -44 -11 -88 -25 -43 -13 -80 -23 -81 -22
0 1 5 52 12 112 7 61 15 160 19 220 3 61 8 143 11 183 l6 72 168 0 169 0 5
-42 c7 -49 36 -381 36 -405 0 -9 2 -14 4 -12 2 2 10 128 16 279 6 151 13 281
16 288 2 9 36 12 125 12 l122 0 -7 -52z m166 -49 c29 -6 54 -13 56 -14 3 -3
-115 -245 -123 -253 -1 -2 -24 2 -50 9 -35 9 -45 16 -42 28 3 9 20 67 38 129
36 124 30 120 121 101z m-758 -686 c3 -16 19 -107 36 -203 16 -96 34 -197 39
-225 5 -27 8 -51 7 -53 -2 -1 -41 -9 -87 -17 -89 -16 -98 -13 -99 30 -1 37
-13 46 -47 33 -26 -10 -32 -18 -38 -55 l-6 -43 -96 -30 c-53 -16 -99 -28 -101
-25 -6 6 109 518 119 529 8 9 231 83 256 85 6 1 14 -11 17 -26z m-816 -8 c2
-2 -52 -86 -120 -187 -68 -100 -125 -187 -126 -191 -4 -7 107 -1 157 9 21 4
23 2 17 -19 -3 -13 -21 -62 -41 -108 l-35 -84 -228 0 -229 -1 109 131 c108
128 174 219 180 245 3 16 -39 16 -136 -1 -32 -6 -60 -8 -63 -5 -2 2 2 31 11
64 8 33 18 83 22 112 l7 52 236 -7 c130 -4 237 -9 239 -10z m-578 -42 c0 -10
-5 -52 -10 -93 -6 -41 -15 -149 -20 -239 -5 -90 -12 -166 -15 -169 -7 -7 -148
-42 -153 -38 -2 2 4 90 12 196 9 106 16 223 16 260 l0 68 78 15 c42 8 80 15
85 16 4 1 7 -7 7 -16z m845 2 c115 -4 213 -9 216 -11 4 -2 -49 -87 -118 -190
-69 -102 -123 -187 -121 -189 1 -2 41 1 88 5 46 5 86 8 88 6 2 -2 -15 -50 -38
-107 l-40 -104 -229 0 c-228 0 -228 0 -212 20 9 11 59 72 113 136 93 111 158
205 158 227 0 10 -39 8 -139 -9 -30 -5 -56 -7 -58 -5 -2 2 6 56 19 119 20 106
24 116 43 112 11 -2 114 -7 230 -10z"/>
</g>
</svg>
