<?xml version="1.0" standalone="no"?>
<svg version="1.0" xmlns="http://www.w3.org/2000/svg" viewBox="0 0 2641 935">
<g transform="translate(0,935) scale(0.1,-0.1)"
fill="#ffffff" stroke="none">
<path d="M2591 7388 c-95 -255 -352 -981 -348 -984 4 -5 5000 -134 5117 -133
35 0 41 2 25 9 -24 11 -4750 1130 -4771 1130 -8 0 -18 -10 -23 -22z"/>
<path d="M925 6281 c9 -16 864 -646 876 -646 11 0 240 616 232 625 -4 4 -810
28 -1011 29 -61 1 -101 -3 -97 -8z"/>
<path d="M2055 5904 c-88 -246 -125 -361 -119 -371 5 -7 279 -214 609 -458
505 -375 604 -445 626 -441 24 5 4783 1417 4892 1452 27 9 46 18 44 20 -3 4
-5734 152 -5907 154 -12 0 -51 -97 -145 -356z"/>
<path d="M9425 6076 c-242 -56 -452 -106 -467 -109 l-28 -7 0 -2240 0 -2240
485 0 485 0 0 2350 c0 2232 -1 2350 -17 2349 -10 0 -216 -47 -458 -103z"/>
<path d="M18415 6071 l-460 -108 -3 -842 -2 -843 -72 77 c-88 94 -168 152
-292 211 -237 112 -623 155 -903 99 -622 -122 -1068 -673 -1154 -1424 -15
-133 -7 -435 15 -556 126 -701 581 -1159 1251 -1260 128 -19 358 -19 467 0
270 47 557 214 720 418 l38 49 0 -206 0 -206 450 0 450 0 0 2350 0 2350 -22
-1 c-13 0 -230 -49 -483 -108z m-917 -2270 c251 -73 426 -253 493 -508 26 -97
36 -290 20 -390 -16 -103 -54 -218 -98 -293 -49 -83 -161 -195 -243 -243 -125
-72 -325 -115 -474 -102 -356 32 -589 221 -677 550 -32 117 -32 334 -1 460 72
291 285 493 574 544 92 17 323 6 406 -18z"/>
<path d="M14090 5555 l0 -405 485 0 485 0 0 405 0 405 -485 0 -485 0 0 -405z"/>
<path d="M5418 5157 c-1165 -347 -2118 -634 -2118 -637 1 -9 893 -665 906
-665 17 0 3344 1918 3344 1928 0 4 -3 6 -7 6 -5 -1 -961 -285 -2125 -632z"/>
<path d="M1642 4758 c-128 -353 -230 -643 -229 -645 5 -5 1567 460 1567 467
-1 5 -1067 797 -1094 812 -10 5 -74 -161 -244 -634z"/>
<path d="M11930 4684 c-14 -2 -65 -9 -115 -15 -118 -14 -328 -69 -437 -113
-457 -185 -788 -530 -927 -967 -64 -202 -75 -281 -76 -534 0 -201 3 -244 23
-343 67 -331 199 -581 426 -807 268 -268 593 -423 1002 -481 166 -23 486 -15
629 16 361 77 703 269 914 512 60 68 62 72 44 88 -10 10 -163 124 -341 254
l-323 237 -22 -28 c-48 -63 -166 -178 -221 -215 -237 -162 -541 -184 -790 -56
-121 62 -236 181 -298 308 -26 52 -54 119 -62 148 l-15 52 1121 0 1121 0 -6
268 c-4 161 -12 309 -22 372 -57 382 -190 672 -412 901 -194 200 -421 321
-712 380 -92 19 -435 35 -501 23z m248 -720 c143 -38 286 -151 354 -280 41
-77 68 -171 68 -233 l0 -41 -629 0 -630 0 6 38 c10 62 50 171 85 229 42 72
139 169 211 211 153 92 361 121 535 76z"/>
<path d="M20821 4679 c-301 -34 -597 -140 -833 -300 -130 -88 -325 -285 -411
-415 -200 -302 -291 -674 -259 -1056 19 -228 64 -400 153 -587 235 -496 722
-825 1329 -901 119 -14 406 -12 530 4 630 84 1132 455 1345 994 140 354 153
798 34 1167 -42 130 -148 336 -226 440 -253 337 -625 555 -1083 636 -133 24
-443 34 -579 18z m401 -863 c304 -59 507 -259 575 -570 25 -110 22 -309 -6
-421 -35 -144 -90 -245 -191 -346 -72 -74 -99 -93 -180 -132 -191 -92 -423
-108 -630 -45 -229 70 -401 249 -470 488 -28 96 -39 320 -20 424 16 93 58 210
101 282 72 123 215 237 361 290 119 43 322 56 460 30z"/>
<path d="M24170 4680 c-397 -49 -724 -212 -906 -453 -60 -80 -128 -221 -155
-322 -27 -101 -37 -341 -19 -451 45 -279 205 -481 483 -609 102 -47 266 -97
452 -139 418 -95 507 -122 586 -180 51 -38 89 -103 89 -154 0 -147 -180 -231
-469 -220 -108 4 -140 10 -224 38 -124 41 -246 121 -347 225 l-74 77 -30 -33
c-17 -19 -148 -165 -293 -326 -145 -160 -263 -296 -263 -301 0 -13 105 -101
181 -153 195 -132 487 -229 787 -260 170 -17 536 -7 687 20 336 60 565 160
741 324 191 179 274 382 274 674 0 258 -62 439 -203 589 -165 177 -378 270
-864 379 -353 78 -439 110 -505 183 -41 45 -53 85 -44 147 22 145 217 237 436
206 167 -23 288 -81 399 -191 l66 -65 298 289 c163 159 297 295 297 302 0 19
-142 135 -230 189 -157 94 -353 162 -580 200 -113 19 -461 28 -570 15z"/>
<path d="M14090 3045 l0 -1565 485 0 485 0 0 1565 0 1565 -485 0 -485 0 0
-1565z"/>
</g>
</svg>
