<?xml version="1.0" standalone="no"?>
<svg version="1.0" xmlns="http://www.w3.org/2000/svg"
 width="845pt" height="142pt" viewBox="0 0 845 142"
 preserveAspectRatio="xMidYMid meet">
<g transform="translate(0,142) scale(0.1,-0.1)"
fill="#ffffff" stroke="none">
<path d="M272 1400 c-65 -23 -118 -61 -167 -120 -183 -219 -120 -572 123 -692
l67 -33 515 -5 c283 -3 516 -7 517 -8 1 -1 9 -15 18 -32 19 -37 19 -90 1 -135
l-15 -35 -630 0 -631 0 0 -170 0 -170 613 0 c349 0 638 4 671 10 200 32 336
207 336 430 0 181 -90 333 -238 403 l-67 32 -506 3 c-589 3 -544 -6 -544 109
0 112 -56 103 666 103 l619 0 0 165 0 165 -647 -1 c-609 0 -651 -2 -701 -19z"/>
<path d="M1770 711 l0 -709 753 1 752 2 3 168 2 167 -590 0 -590 0 0 99 c0 81
3 100 16 105 9 3 256 6 550 6 l534 0 0 165 0 165 -550 0 -550 0 0 105 0 105
590 0 590 0 0 165 0 165 -755 0 -755 0 0 -709z"/>
<path d="M3380 1255 l0 -165 320 0 320 0 0 -543 0 -542 165 -1 165 -2 0 544 0
544 320 0 320 0 0 165 0 165 -805 0 -805 0 0 -165z"/>
<path d="M5090 1255 l0 -165 318 -2 317 -3 5 -542 5 -542 160 3 160 3 3 541 2
542 320 0 320 0 0 165 0 165 -805 0 -805 0 0 -165z"/>
<path d="M6770 1185 c0 -213 2 -239 21 -290 43 -116 166 -242 299 -308 61 -30
71 -32 210 -37 l145 -5 3 -270 2 -271 163 1 162 0 5 270 5 270 140 5 c158 6
189 16 300 95 80 56 142 126 185 206 l35 64 3 253 3 252 -165 0 -165 0 -3
-256 c-3 -240 -4 -257 -22 -270 -29 -21 -943 -21 -972 0 -18 13 -19 30 -22
270 l-3 256 -165 0 -164 0 0 -235z"/>
</g>
</svg>
