<?xml version="1.0" standalone="no"?>
<svg version="1.0" xmlns="http://www.w3.org/2000/svg" viewBox="0 0 151 151">
<g transform="translate(0,151) scale(0.1,-0.1)"
fill="#ffffff" stroke="none">
<path d="M372 1137 c-204 -204 -372 -377 -372 -382 0 -13 742 -755 755 -755 6
-1 177 169 382 377 l372 378 -377 378 c-207 207 -379 377 -382 377 -3 0 -173
-168 -378 -373z m711 -709 l-328 -328 -327 327 -328 328 327 327 328 328 327
-327 328 -328 -327 -327z"/>
<path d="M682 1057 c-34 -34 -62 -66 -62 -70 0 -4 62 -7 137 -7 l137 0 -69 70
c-38 39 -72 70 -75 70 -3 0 -34 -28 -68 -63z"/>
<path d="M360 920 c-15 -28 -5 -40 35 -40 l34 0 3 -67 3 -68 33 -3 32 -3 0 70
0 71 40 0 c38 0 40 2 40 30 l0 30 -105 0 c-94 0 -105 -2 -115 -20z"/>
<path d="M602 843 l3 -98 30 0 c29 0 30 2 35 48 l5 49 30 -41 c17 -22 33 -41
37 -41 4 0 22 19 40 41 l33 41 5 -48 c5 -47 7 -49 38 -52 l32 -3 0 100 0 101
-32 -1 c-27 0 -39 -9 -71 -50 l-38 -50 -40 50 c-35 44 -46 51 -75 51 l-35 0 3
-97z"/>
<path d="M926 924 c-3 -9 -6 -49 -6 -89 0 -63 3 -76 19 -85 25 -13 161 -13
196 0 24 9 26 14 23 62 l-3 53 -60 0 c-57 0 -60 -1 -60 -25 0 -21 6 -26 35
-31 30 -5 26 -7 -21 -8 l-57 -1 -4 40 -4 40 83 0 c45 0 84 4 88 10 3 5 0 18
-7 30 -12 18 -23 20 -114 20 -84 0 -103 -3 -108 -16z"/>
<path d="M536 643 l-27 -56 65 -66 c36 -36 67 -63 70 -61 9 9 29 207 23 223
-5 13 -19 17 -55 17 l-48 0 -28 -57z"/>
<path d="M707 678 c-3 -13 -13 -74 -23 -136 l-17 -114 44 -44 43 -44 48 47
c34 33 46 53 43 67 -2 12 -12 72 -21 134 l-16 112 -48 0 c-41 0 -49 -3 -53
-22z"/>
<path d="M860 685 c-7 -9 -13 -31 -12 -50 1 -36 21 -168 26 -173 2 -1 33 28
69 65 l65 67 -26 53 c-25 51 -27 53 -68 53 -25 0 -47 -6 -54 -15z"/>
</g>
</svg>
