<svg xmlns="http://www.w3.org/2000/svg" viewBox="0 0 521.83067 360.79167"><defs><style>.cls-1{fill:#d12727;}</style></defs><title>fist</title><path class="cls-1" d="M410,169l-51-19.33333S337.41667,132.75,337.125,104.45833L333,100.81251,280.91667,155.75,258.125,162.5l-32.41667-26.70833-4.54167,4.375S233,169.83333,234.5,172.33333s5.66667,20.5,47.66667,15.16667c0,0,28-2,42.66667,3.16667S393.5,214.5,393.5,214.5Z" transform="translate(-221.16667 -100.20833)"/><path class="cls-1" d="M307.93749,117.375l-19,19.5-37.41666-31.66667,4.5-5S284.02083,100.95833,307.93749,117.375Z" transform="translate(-221.16667 -100.20833)"/><polygon class="cls-1" points="186.333 106.542 240.583 83.292 253.083 48.542 247.083 35.042 226.583 27.042 212.333 33.542 186.333 106.542"/><polygon class="cls-1" points="254.833 75.792 262.833 51.042 275.833 44.792 296.083 52.042 302.833 65.292 293.333 89.542 281.833 64.167 254.833 75.792"/><polygon class="cls-1" points="276.333 76.542 311.333 152.042 296.833 159.542 274.083 151.542 260.083 121.667 250.208 126.542 266.146 160.042 292.167 169.125 282.083 199.125 242.417 218.208 186.208 198.5 174.25 138.542 180.708 120.667 276.333 76.542"/><polygon class="cls-1" points="325.271 157.292 352.115 83.635 345.854 70.896 325.417 63.542 311.896 69.635 300.042 102.417 325.271 157.292"/><polygon class="cls-1" points="334.938 161 361.958 86.729 374.802 81.979 394.583 88.792 400.927 101.51 374.504 175.533 334.938 161"/><line class="cls-1" x1="397.41667" y1="145.5" x2="501.5" y2="183.125"/><circle class="cls-1" cx="397.41667" cy="145.5"/><rect class="cls-1" x="607.256" y="259.79249" width="115.0399" height="49.2142" transform="translate(-80.66128 -313.75509) rotate(20.36299)"/><circle class="cls-1" cx="497.27726" cy="204.17575" r="24.55342"/><polygon class="cls-1" points="311.333 163.542 304.458 167.167 289.833 205.542 254.958 222.417 315.583 245.292 356.708 226.292 370.958 185.792 311.333 163.542"/><polygon class="cls-1" points="312.958 251.875 314.5 360.792 127.292 360.792 183.167 207.125 312.958 251.875"/></svg>
