<svg xmlns="http://www.w3.org/2000/svg" viewBox="0 0 501 350">
<g transform="translate(0,350) scale(0.1,-0.1)"
fill="#d12727" stroke="none">
<path d="M1034 3447 c-34 -28 -92 -86 -130 -128 -38 -42 -108 -119 -156 -171
-99 -108 -185 -177 -273 -219 -109 -52 -113 -52 -213 33 -123 105 -239 198
-246 198 -12 0 -6 -108 9 -156 22 -76 113 -245 153 -287 21 -21 60 -46 92 -58
52 -20 65 -21 230 -13 358 16 434 2 882 -160 128 -46 244 -87 258 -90 24 -6
27 -2 104 214 43 122 77 222 75 223 -5 4 -90 36 -265 100 -199 74 -244 98
-297 156 -59 67 -100 152 -127 267 -12 49 -25 101 -28 116 l-7 28 -61 -53z"/>
<path d="M293 3483 c-32 -6 -29 -13 20 -60 52 -50 320 -273 328 -273 9 0 199
209 199 219 0 13 -171 79 -264 101 -76 19 -221 25 -283 13z"/>
<path d="M2108 3200 c-47 -25 -59 -36 -72 -72 -107 -284 -242 -664 -237 -666
4 -1 123 51 266 116 l260 118 57 160 c32 87 58 164 58 171 0 6 -13 40 -30 74
l-30 64 -87 32 c-49 17 -97 32 -108 32 -11 0 -45 -13 -77 -29z"/>
<path d="M2600 3028 l-63 -33 -42 -117 c-23 -65 -39 -118 -34 -118 4 0 63 27
130 60 68 33 126 57 129 53 4 -5 28 -57 54 -118 26 -60 51 -113 55 -118 4 -4
28 44 53 107 l45 114 -36 67 c-36 68 -36 68 -111 95 -41 15 -84 30 -96 34 -13
4 -42 -5 -84 -26z"/>
<path d="M3080 2854 c-30 -14 -57 -30 -61 -36 -4 -7 -33 -81 -64 -165 l-57
-154 122 -262 c68 -144 124 -264 126 -266 2 -2 6 2 8 10 3 8 57 159 121 336
70 197 115 337 115 360 0 56 -41 137 -76 150 -55 21 -158 53 -168 52 -6 0 -36
-11 -66 -25z"/>
<path d="M2395 2631 c-148 -69 -356 -167 -462 -216 -156 -72 -194 -93 -202
-114 -45 -115 -40 -259 17 -486 22 -88 43 -178 47 -200 l6 -40 263 -92 c145
-51 268 -93 274 -93 5 0 96 41 200 91 l191 92 45 131 c25 72 47 137 48 145 2
9 -36 27 -119 55 -67 22 -127 46 -132 51 -16 17 -149 309 -144 318 2 4 22 16
44 28 l40 20 30 -67 c17 -37 48 -104 68 -149 l38 -81 108 -38 108 -38 69 33
c39 19 72 37 74 41 4 6 -321 716 -334 730 -4 3 -128 -51 -277 -121z"/>
<path d="M3550 2672 l-55 -27 -129 -353 c-71 -194 -126 -355 -124 -358 10 -9
379 -137 383 -132 3 2 61 164 130 358 l125 353 -32 63 -33 63 -85 30 c-47 17
-94 31 -105 30 -11 0 -45 -12 -75 -27z"/>
<path d="M3829 2063 c-92 -240 -148 -398 -142 -404 5 -4 107 -43 228 -87 121
-44 339 -124 485 -177 306 -112 354 -124 436 -106 122 28 199 165 163 294 -14
51 -64 105 -119 129 -84 37 -334 130 -625 233 -159 57 -314 112 -343 124 -67
27 -70 27 -83 -6z"/>
<path d="M2978 1903 c-32 -36 -78 -125 -113 -220 -73 -195 -46 -165 -239 -259
-102 -49 -165 -84 -156 -88 8 -3 144 -51 303 -106 l287 -101 188 87 c103 48
191 91 196 96 15 13 146 382 138 389 -4 3 -113 46 -242 94 -129 48 -254 96
-278 107 -54 22 -65 23 -84 1z"/>
<path d="M1759 1462 c-6 -15 -66 -178 -134 -362 -68 -184 -187 -506 -264 -714
-78 -208 -139 -381 -137 -384 3 -2 413 -1 911 3 l905 7 -6 522 c-5 361 -10
523 -18 528 -6 4 -63 25 -126 47 -564 192 -1070 365 -1093 371 -25 8 -29 6
-38 -18z"/>
</g>
</svg>
