<svg xmlns="http://www.w3.org/2000/svg" viewBox="0 0 1572 600">
    <g transform="translate(0,600) scale(0.1,-0.1)" fill="white" stroke="none">
        <path d="M2050 5004 c-416 -53 -773 -256 -1013 -575 -287 -383 -364 -877 -206
-1325 150 -425 509 -723 991 -824 211 -44 493 -46 692 -5 235 49 438 158 634
339 l72 68 0 115 c0 63 -4 113 -8 111 -5 -1 -36 -33 -68 -70 -313 -353 -716
-485 -1107 -362 -300 95 -479 349 -552 784 -22 131 -31 486 -16 620 34 292
138 543 293 706 119 125 247 198 406 231 93 19 288 13 377 -11 190 -52 376
-189 492 -361 57 -85 80 -134 118 -249 l33 -101 36 -3 36 -3 0 461 0 461 -36
-3 c-33 -3 -37 -6 -54 -57 -10 -31 -33 -68 -53 -89 -51 -51 -106 -54 -223 -12
-378 136 -434 149 -654 154 -85 3 -171 2 -190 0z"/>
        <path d="M7353 4998 c-8 -12 -174 -381 -815 -1823 -93 -209 -187 -415 -208
-458 -100 -198 -213 -308 -342 -331 -36 -7 -38 -9 -38 -47 l0 -39 443 2 442 3
3 36 3 36 -103 12 c-128 14 -195 43 -225 98 -47 87 -36 163 55 378 33 77 65
152 73 168 l12 27 461 -2 461 -3 98 -225 c113 -257 129 -312 105 -363 -25 -53
-122 -87 -250 -87 l-48 0 0 -40 0 -40 640 0 640 0 0 39 c0 37 -1 39 -41 45
-136 22 -230 130 -344 395 -27 65 -192 441 -670 1526 -51 116 -139 316 -195
445 -109 248 -115 260 -135 260 -7 0 -17 -6 -22 -12z m-110 -1175 c64 -148
150 -344 191 -438 l74 -170 -386 -3 c-212 -1 -387 0 -390 3 -6 6 380 875 389
875 3 0 58 -120 122 -267z"/>
        <path d="M3410 4911 l0 -38 99 -6 c158 -8 228 -49 262 -152 17 -53 26 -1923
10 -2084 -13 -127 -38 -178 -103 -210 -47 -22 -147 -41 -221 -41 l-48 0 3 -37
3 -38 1172 -3 1172 -2 5 32 c6 34 96 871 96 888 0 6 -19 10 -42 10 l-43 0 -40
-117 c-47 -137 -127 -307 -183 -390 -88 -129 -204 -206 -362 -240 -111 -23
-556 -26 -633 -4 -61 18 -101 63 -116 131 -16 72 -15 2018 0 2092 17 79 74
131 168 152 38 9 104 16 145 16 l76 0 0 40 0 40 -710 0 -710 0 0 -39z"/>
        <path d="M8932 4913 l3 -38 90 -6 c162 -10 237 -53 267 -151 20 -65 19 -2100
-1 -2176 -26 -104 -100 -146 -274 -159 l-88 -6 3 -36 3 -36 683 -3 682 -2 0
38 0 39 -87 7 c-156 12 -212 39 -253 121 l-25 50 -3 478 -3 477 88 0 88 -1 40
-58 c22 -33 213 -305 425 -605 l385 -546 415 2 415 3 3 38 c3 33 1 37 -21 37
-53 0 -126 31 -171 73 -41 38 -796 1077 -796 1096 0 4 25 13 56 20 31 7 100
35 154 62 170 85 288 216 347 386 24 68 27 93 27 198 -1 213 -67 378 -203 503
-82 75 -239 153 -374 186 -170 42 -248 46 -1080 46 l-798 0 3 -37z m1491 -155
c201 -76 288 -221 303 -503 14 -265 -74 -454 -249 -535 -109 -51 -167 -62
-364 -67 l-183 -5 0 572 0 572 213 -4 c198 -4 216 -6 280 -30z"/>
        <path d="M11960 4911 l0 -38 98 -6 c121 -8 167 -22 213 -68 66 -66 64 -29 64
-1174 0 -951 -1 -1034 -17 -1086 -33 -105 -100 -144 -271 -156 l-88 -6 3 -36
3 -36 668 -3 667 -2 0 38 0 39 -72 6 c-105 10 -148 24 -189 66 -56 56 -59 83
-59 589 l1 447 46 35 46 35 28 -35 c642 -802 730 -918 749 -990 22 -81 -29
-133 -144 -146 l-56 -7 0 -38 0 -39 688 2 687 3 3 36 3 36 -56 7 c-119 14
-231 80 -350 208 -50 54 -682 838 -1069 1327 -8 10 -3 20 24 43 54 45 864 697
933 751 131 101 251 157 339 157 38 0 38 0 38 40 l0 40 -515 0 -515 0 0 -40 0
-40 55 0 c212 0 297 -107 195 -248 -38 -52 -105 -109 -665 -563 l-460 -372 -3
99 c-2 54 -2 288 0 519 l3 420 25 45 c33 60 94 90 198 99 l77 6 3 38 3 37
-665 0 -666 0 0 -39z"/>
        <path d="M730 2040 l0 -30 7135 0 7135 0 0 30 0 30 -7135 0 -7135 0 0 -30z"/>
        <path d="M1038 1791 c-160 -51 -252 -158 -278 -325 -14 -88 2 -199 38 -276 77
-160 278 -247 476 -207 111 23 149 44 158 92 5 21 7 39 6 41 -2 1 -32 -15 -66
-37 -117 -70 -243 -75 -347 -14 -113 66 -173 236 -145 410 29 184 122 274 291
283 98 5 147 -11 212 -68 26 -22 38 -28 41 -18 2 7 9 28 15 47 6 19 8 38 4 42
-5 4 -42 17 -83 28 -97 27 -241 28 -322 2z"/>
        <path d="M2317 1799 c-120 -28 -236 -126 -276 -234 -29 -75 -38 -202 -21 -276
17 -75 66 -163 113 -205 167 -151 486 -146 642 11 89 88 131 236 107 377 -29
167 -133 280 -297 324 -56 15 -209 17 -268 3z m284 -72 c120 -61 179 -194 166
-372 -14 -199 -113 -313 -287 -332 -139 -14 -258 53 -316 179 -27 59 -29 71
-29 188 1 154 22 218 94 290 60 60 112 78 223 79 79 1 92 -2 149 -32z"/>
        <path d="M3536 1478 c-3 -183 -9 -368 -13 -410 l-6 -78 43 0 42 0 -7 254 c-4
140 -4 280 0 312 6 53 8 57 21 39 8 -10 44 -50 82 -89 150 -157 344 -369 432
-473 29 -35 56 -63 60 -63 4 0 10 177 13 393 3 215 7 400 9 411 2 15 -4 19
-35 20 l-37 1 0 -305 c-1 -303 -1 -305 -20 -282 -11 13 -84 92 -163 175 -79
84 -199 212 -268 286 -68 74 -129 136 -135 138 -8 3 -13 -100 -18 -329z"/>
        <path d="M4995 1786 c-86 -40 -125 -103 -125 -198 1 -110 52 -168 201 -228 49
-20 97 -48 120 -70 37 -35 39 -40 39 -96 0 -104 -58 -164 -158 -164 -67 0
-124 28 -160 80 -15 22 -30 39 -33 40 -4 0 -10 -17 -14 -37 -3 -21 -9 -48 -11
-59 -5 -18 4 -26 53 -50 50 -25 69 -29 139 -28 67 0 90 5 137 28 92 45 147
132 147 233 0 99 -50 154 -194 215 -114 48 -161 88 -171 146 -9 53 17 116 60
142 69 43 177 17 206 -49 8 -17 18 -31 24 -31 5 0 18 23 27 51 l17 51 -52 24
c-73 33 -181 34 -252 0z"/>
        <path d="M9903 1795 c-122 -34 -205 -101 -256 -204 -31 -64 -32 -70 -32 -196
0 -122 2 -134 28 -191 76 -163 267 -257 460 -225 39 7 95 22 123 35 45 21 52
28 58 61 9 46 5 50 -25 26 -13 -10 -49 -31 -79 -47 -47 -24 -67 -28 -140 -29
-73 0 -93 4 -142 28 -31 15 -69 42 -84 60 -68 80 -101 219 -84 355 12 89 36
146 86 201 57 63 104 84 205 89 98 5 147 -11 212 -68 26 -22 38 -28 41 -18 2
7 9 28 15 47 6 19 8 38 4 42 -46 40 -292 62 -390 34z"/>
        <path d="M13080 1794 c-118 -32 -203 -105 -257 -220 -26 -54 -28 -69 -28 -179
0 -103 4 -128 24 -180 33 -83 124 -174 204 -203 194 -73 407 -40 529 81 179
180 143 530 -69 654 -105 61 -275 81 -403 47z m278 -54 c72 -32 110 -69 143
-135 80 -164 52 -409 -58 -506 -139 -121 -379 -96 -472 49 -48 77 -64 149 -59
271 4 89 9 116 33 169 32 72 94 133 158 156 63 22 202 20 255 -4z"/>
        <path d="M14318 1658 c4 -153 -14 -627 -25 -654 -4 -11 5 -14 40 -14 l45 0 -5
313 -5 312 69 -70 c156 -161 451 -482 503 -547 12 -16 25 -28 29 -28 5 0 11
179 13 398 3 218 8 404 12 412 5 12 -2 15 -36 15 l-43 0 3 -305 3 -305 -42 45
c-23 25 -74 79 -113 120 -40 41 -101 107 -137 145 -200 219 -293 315 -303 315
-8 0 -10 -44 -8 -152z"/>
        <path d="M5880 1759 l0 -37 126 6 126 5 -4 -372 -3 -371 56 0 57 0 -6 333 c-3
183 -2 350 2 372 l7 38 122 -5 122 -6 -3 37 -4 36 -299 0 -299 0 0 -36z"/>
        <path d="M7094 1393 l0 -403 55 0 56 0 -3 196 -3 195 23 -3 c24 -3 151 -155
254 -302 l59 -85 72 0 72 -1 -154 193 c-85 105 -155 195 -155 198 0 3 19 11
43 18 102 30 170 96 183 178 14 88 -19 153 -100 195 -37 20 -56 22 -222 23
l-180 0 0 -402z m313 337 c106 -47 113 -200 13 -266 -41 -28 -153 -50 -194
-40 l-26 6 0 154 c0 84 3 156 7 159 15 16 158 6 200 -13z"/>
        <path d="M8286 1505 c1 -314 5 -349 54 -420 71 -103 269 -143 419 -86 75 28
117 66 152 137 35 70 39 110 54 489 l6 170 -40 0 -41 1 0 -261 c0 -280 -8
-341 -52 -409 -56 -86 -173 -115 -309 -76 -53 15 -107 74 -126 139 -17 58 -23
249 -14 494 l4 109 -54 1 -54 2 1 -290z"/>
        <path d="M10840 1759 l0 -35 123 0 122 1 -1 -367 -1 -368 56 0 56 0 -3 371 -4
372 126 -5 126 -6 0 37 0 36 -300 0 -300 0 0 -36z"/>
        <path d="M12045 1393 l0 -403 55 0 55 0 0 403 0 402 -55 0 -55 0 0 -402z"/>
    </g>
</svg>