<svg xmlns="http://www.w3.org/2000/svg" viewBox="0 0 897 597">
    <g transform="translate(0,597) scale(0.1,-0.1)" fill="white" stroke="none">
        <path d="M5230 5868 c-18 -51 -36 -97 -40 -103 -4 -5 -20 -46 -35 -90 -16 -44
-31 -84 -35 -90 -4 -5 -17 -39 -30 -75 -13 -36 -38 -101 -55 -145 -18 -44 -42
-105 -54 -135 -11 -30 -26 -68 -32 -85 -7 -16 -13 -32 -14 -35 -8 -30 -36
-106 -110 -295 -57 -145 -97 -250 -150 -390 -31 -82 -61 -159 -66 -170 -5 -11
-20 -51 -34 -90 -14 -38 -30 -79 -35 -90 -48 -101 -48 -104 -59 -531 -6 -225
-15 -632 -21 -904 -5 -272 -17 -742 -25 -1045 -14 -496 -19 -886 -10 -860 1 6
8 44 15 85 6 41 18 111 25 155 15 89 29 172 45 285 7 41 16 95 21 120 5 25 11
63 13 85 6 57 16 119 31 200 7 39 18 104 25 145 26 177 54 344 75 455 7 39 18
106 25 150 11 81 17 117 45 285 22 130 32 192 45 280 6 41 18 107 26 146 8 39
14 75 12 80 -1 5 4 41 10 79 7 39 18 99 23 135 6 36 15 88 20 115 5 28 11 68
14 90 3 22 9 63 14 90 5 28 14 84 21 125 6 41 16 102 22 135 6 33 12 71 13 85
10 77 26 186 40 265 9 50 20 115 25 145 5 30 13 87 19 125 6 39 15 87 20 107
5 20 7 39 4 41 -2 3 1 23 7 45 5 22 14 71 19 109 5 37 18 118 29 178 11 61 25
144 31 185 39 252 49 318 67 425 43 260 46 275 41 275 -3 0 -19 -42 -37 -92z"/>
        <path d="M6208 5092 c-83 -69 -239 -200 -268 -226 -14 -12 -52 -43 -85 -69
-58 -46 -79 -62 -242 -197 -43 -35 -111 -91 -152 -125 -41 -33 -97 -79 -125
-102 -28 -24 -78 -64 -111 -90 -33 -26 -66 -53 -73 -60 -8 -7 -29 -25 -47 -39
-27 -20 -36 -36 -44 -77 -15 -79 -34 -198 -37 -237 -2 -19 -8 -57 -13 -85 -5
-27 -14 -86 -21 -130 -6 -44 -15 -106 -21 -137 -5 -31 -12 -74 -14 -95 -2 -21
-9 -63 -14 -93 -6 -30 -15 -91 -21 -135 -14 -100 -25 -175 -44 -290 -18 -110
-31 -195 -46 -300 -6 -44 -15 -105 -20 -135 -6 -30 -12 -73 -15 -95 -11 -91
-17 -134 -31 -215 -16 -96 -28 -169 -44 -285 -6 -44 -17 -116 -25 -160 -38
-226 -51 -307 -75 -480 -6 -44 -18 -116 -25 -160 -8 -44 -19 -118 -25 -165 -7
-47 -16 -104 -21 -127 -17 -80 -3 -84 26 -6 10 26 23 62 30 78 8 17 30 73 50
125 20 52 40 104 45 115 19 47 81 207 115 295 20 52 40 104 45 115 5 11 22 54
38 95 16 41 33 84 37 95 5 11 9 22 10 25 1 3 5 14 9 25 4 11 13 34 18 50 6 17
17 44 24 60 7 17 54 138 105 270 50 132 97 254 104 270 8 17 39 95 70 175 50
130 102 259 126 315 4 11 24 63 44 115 20 52 40 104 45 115 9 22 59 150 115
295 20 52 40 104 45 115 5 11 22 54 38 95 16 41 33 84 37 95 5 11 9 22 10 25
1 3 7 19 14 35 6 17 53 136 102 265 50 129 97 249 104 265 7 17 16 41 20 55 4
14 13 39 20 55 13 30 62 154 150 380 25 66 60 154 77 195 44 107 58 150 50
149 -4 0 -32 -21 -64 -47z"/>
        <path d="M4020 4810 c-157 -160 -287 -292 -289 -295 -3 -4 7 -74 34 -235 8
-47 19 -121 25 -165 25 -177 32 -224 45 -305 8 -47 19 -121 25 -165 25 -177
32 -224 45 -305 8 -47 19 -121 25 -165 13 -94 28 -196 40 -280 5 -33 14 -96
20 -140 6 -44 16 -107 22 -140 5 -33 12 -78 14 -100 2 -22 8 -65 13 -95 6 -30
15 -91 21 -135 6 -44 17 -118 25 -165 8 -47 21 -132 30 -190 9 -58 20 -130 25
-160 5 -30 14 -91 20 -135 6 -44 16 -109 22 -145 6 -36 12 -81 14 -100 2 -19
6 -46 9 -59 4 -14 11 -61 16 -105 15 -121 16 -133 34 -241 8 -55 20 -136 26
-180 6 -44 12 -81 14 -83 1 -2 6 70 9 160 8 200 14 4218 6 4218 -3 0 -134
-131 -290 -290z"/>
        <path d="M3455 4429 c-62 -8 -270 -32 -435 -50 -52 -6 -128 -14 -168 -20 -40
-5 -92 -9 -116 -9 -46 0 -60 -7 -48 -24 5 -6 15 -27 22 -46 7 -19 24 -59 37
-88 12 -29 23 -55 23 -58 0 -3 11 -30 25 -60 14 -30 25 -57 25 -60 0 -3 7 -20
15 -37 20 -45 72 -171 101 -247 13 -36 30 -76 36 -90 6 -14 14 -34 19 -45 4
-11 15 -36 23 -55 8 -19 67 -161 131 -315 63 -154 122 -293 130 -310 8 -16 25
-59 39 -95 29 -77 81 -202 101 -247 8 -17 15 -34 15 -37 0 -3 9 -25 20 -49 10
-23 33 -78 51 -122 56 -144 71 -179 90 -222 10 -23 19 -44 19 -47 0 -3 14 -35
30 -71 17 -36 30 -68 30 -71 0 -3 7 -21 15 -40 14 -31 30 -71 56 -131 20 -50
29 -71 64 -153 20 -46 111 -267 202 -490 91 -223 170 -413 175 -423 16 -31 21
-11 10 40 -6 26 -16 82 -22 123 -7 41 -18 107 -25 145 -19 93 -42 225 -55 305
-6 36 -15 89 -21 118 -6 29 -12 66 -14 83 -4 29 -16 99 -35 204 -5 28 -14 84
-20 125 -7 41 -15 95 -20 120 -5 25 -14 79 -20 120 -6 41 -16 94 -21 117 -5
22 -13 70 -18 105 -16 102 -40 247 -56 328 -26 135 -43 234 -55 305 -13 87
-25 157 -44 260 -8 44 -24 139 -36 210 -11 72 -25 155 -30 185 -5 30 -14 87
-21 125 -6 39 -17 102 -24 140 -33 170 -95 534 -95 557 0 9 -20 9 -105 -3z"/>
        <path d="M6625 4014 c-27 -7 -77 -18 -110 -24 -33 -6 -78 -16 -100 -21 -22 -6
-51 -12 -65 -14 -39 -5 -312 -64 -316 -68 -2 -1 -24 -52 -50 -112 -25 -61 -57
-134 -70 -163 -13 -29 -24 -54 -24 -57 0 -2 -13 -32 -29 -67 -16 -35 -52 -119
-81 -188 -28 -69 -62 -147 -74 -175 -13 -27 -38 -88 -56 -135 -18 -47 -36 -89
-40 -95 -4 -5 -31 -66 -60 -135 -28 -69 -63 -149 -76 -178 -13 -29 -24 -54
-24 -56 0 -3 -10 -26 -22 -53 -12 -26 -22 -50 -23 -53 -1 -3 -7 -16 -13 -30
-6 -14 -46 -106 -88 -205 -41 -99 -86 -202 -99 -230 -13 -27 -57 -131 -99
-230 -42 -99 -85 -198 -95 -220 -11 -22 -42 -96 -71 -165 -126 -302 -154 -369
-181 -427 -16 -34 -29 -64 -29 -67 0 -3 -11 -30 -25 -60 -63 -138 -56 -135 37
14 108 173 222 359 233 377 10 18 143 232 180 290 11 17 43 68 70 113 28 45
77 125 111 178 33 53 63 104 67 112 4 8 43 71 86 140 44 69 118 188 166 265
47 77 106 172 131 210 24 39 53 86 64 105 22 38 29 50 133 216 38 60 74 118
80 128 35 58 308 496 331 532 12 18 44 69 71 114 28 45 82 132 120 193 39 62
84 135 99 162 16 28 36 60 44 72 13 22 13 22 -20 21 -18 -1 -55 -7 -83 -14z"/>
        <path d="M1535 3953 c-16 -2 -65 -10 -108 -18 -43 -8 -81 -14 -85 -13 -7 2
-112 -13 -221 -32 -30 -6 -69 -10 -88 -10 -18 0 -33 -4 -33 -9 0 -5 17 -26 38
-48 38 -40 247 -268 407 -443 155 -170 399 -434 415 -450 9 -8 77 -82 150
-165 74 -82 146 -161 160 -175 14 -14 69 -73 121 -131 53 -58 129 -141 170
-185 41 -43 110 -117 154 -164 45 -47 119 -128 165 -180 46 -52 116 -129 156
-170 39 -41 111 -120 160 -175 49 -55 161 -176 249 -270 88 -93 201 -215 250
-270 49 -55 101 -111 115 -125 14 -14 83 -89 154 -168 124 -137 174 -179 107
-90 -18 24 -56 77 -86 118 -29 41 -77 107 -105 145 -103 140 -261 362 -322
450 -33 50 -70 102 -82 117 -12 14 -37 50 -56 78 -19 28 -40 57 -45 63 -6 7
-38 50 -70 96 -75 104 -75 104 -220 306 -66 92 -129 180 -140 195 -11 16 -78
110 -150 210 -71 100 -146 205 -165 233 -19 27 -44 63 -55 78 -24 33 -202 280
-230 319 -11 15 -58 81 -105 145 -85 118 -126 174 -164 230 -12 17 -46 64 -76
105 -30 41 -73 101 -95 132 -22 32 -51 73 -65 91 -14 19 -49 69 -79 111 -56
79 -55 79 -126 69z"/>
        <path d="M2610 3799 c-42 -9 -109 -17 -295 -39 -235 -27 -270 -32 -274 -35 -3
-4 107 -173 325 -500 35 -52 227 -338 569 -845 109 -162 221 -329 249 -370
153 -231 321 -481 351 -525 20 -27 151 -222 291 -433 141 -211 258 -381 261
-378 2 2 -7 29 -21 60 -14 31 -26 58 -26 61 0 2 -15 36 -34 77 -53 115 -261
586 -291 658 -15 36 -37 88 -50 115 -12 28 -37 84 -55 125 -18 41 -43 99 -56
128 -13 29 -24 54 -24 57 0 2 -18 43 -40 90 -22 47 -40 88 -40 91 0 2 -13 33
-30 69 -16 36 -43 94 -60 130 -16 36 -30 67 -30 69 0 3 -15 37 -34 78 -18 40
-46 101 -60 136 -15 34 -40 92 -56 128 -17 35 -30 66 -30 69 0 2 -13 32 -29
67 -16 35 -47 107 -70 161 -23 54 -57 132 -76 173 -19 42 -35 77 -35 79 0 3
-14 35 -31 72 -17 38 -39 88 -49 113 -10 25 -40 92 -67 150 -28 58 -56 122
-64 143 -14 41 -28 44 -119 26z"/>
        <path d="M7864 3755 c-5 -7 -101 -109 -214 -227 -113 -117 -281 -296 -375
-398 -93 -102 -188 -203 -210 -225 -22 -22 -114 -120 -205 -218 -91 -97 -230
-247 -310 -332 -80 -85 -201 -214 -269 -287 -68 -73 -165 -176 -215 -228 -51
-52 -143 -151 -206 -220 -63 -69 -162 -175 -220 -235 -58 -61 -197 -209 -310
-330 -113 -120 -261 -277 -329 -348 -68 -70 -121 -131 -117 -134 3 -3 13 3 23
15 10 11 73 69 141 128 68 60 167 150 222 199 54 50 136 123 182 164 46 40
110 99 143 130 33 31 115 106 183 167 68 60 169 151 225 202 56 51 154 138
217 195 63 56 124 111 135 123 11 11 75 69 143 130 68 60 165 147 217 194 51
47 135 123 187 169 51 46 134 121 183 166 50 45 132 120 183 166 52 46 136
122 188 169 51 47 131 118 176 159 46 41 110 99 143 130 33 31 96 87 140 126
44 38 114 101 155 140 42 38 118 108 169 154 50 46 90 85 87 88 -2 2 -15 6
-28 8 -12 1 -63 10 -113 19 -318 59 -309 58 -321 41z"/>
        <path d="M6649 3625 c-13 -17 -115 -181 -244 -390 -95 -155 -150 -243 -180
-290 -31 -48 -152 -240 -265 -423 -61 -99 -71 -115 -205 -327 -52 -82 -109
-175 -127 -205 -17 -30 -35 -56 -40 -58 -4 -2 -8 -8 -8 -13 0 -5 -19 -40 -43
-77 -24 -37 -79 -123 -122 -192 -43 -69 -86 -137 -96 -152 -11 -15 -19 -30
-19 -33 0 -3 -16 -28 -35 -55 -19 -27 -35 -52 -35 -54 0 -5 -229 -372 -261
-418 -11 -15 -19 -30 -19 -33 0 -3 -15 -27 -33 -53 -18 -26 -36 -54 -40 -62
-4 -8 -25 -44 -48 -80 -26 -42 -33 -58 -18 -45 23 21 193 206 414 450 120 133
199 220 470 515 55 60 154 169 220 242 66 73 136 149 156 168 19 19 84 89 142
155 59 66 161 179 227 250 66 72 168 184 227 250 59 66 121 134 139 150 17 17
87 92 155 168 68 76 170 189 227 250 228 249 272 299 266 308 -3 5 -10 7 -15
4 -5 -3 -71 1 -146 9 -76 8 -199 20 -273 26 -74 6 -185 17 -246 23 -107 12
-111 12 -125 -8z"/>
        <path d="M1475 2949 c-49 -4 -145 -10 -212 -14 -68 -5 -123 -11 -123 -15 0 -4
10 -14 23 -23 12 -8 36 -28 52 -44 27 -26 127 -112 250 -214 54 -45 196 -170
210 -185 5 -6 45 -40 88 -75 42 -35 104 -86 136 -114 172 -147 298 -254 339
-288 67 -55 206 -174 272 -232 31 -27 101 -88 156 -134 97 -82 184 -157 273
-236 26 -22 73 -63 106 -90 33 -27 62 -52 65 -56 3 -3 46 -38 95 -79 50 -40
92 -76 95 -79 3 -4 37 -34 75 -66 39 -32 115 -97 169 -144 277 -239 362 -311
371 -311 7 0 -195 217 -316 340 -58 58 -149 156 -644 681 -77 82 -207 220
-290 307 -82 87 -253 268 -380 402 -126 135 -289 306 -360 380 -72 74 -165
172 -208 218 -87 92 -65 86 -242 71z"/>
        <path d="M955 2779 c-29 -8 -316 -59 -337 -59 -17 0 4 -21 56 -56 28 -19 79
-53 112 -76 65 -45 220 -152 364 -251 47 -32 121 -83 165 -114 44 -31 116 -81
160 -111 44 -31 107 -74 140 -97 171 -118 444 -304 615 -419 25 -16 47 -32 50
-35 3 -4 25 -20 50 -37 78 -53 253 -173 300 -205 132 -93 177 -124 310 -214
80 -55 183 -125 230 -157 47 -32 114 -79 150 -103 36 -24 97 -66 135 -94 111
-78 359 -247 375 -255 8 -4 3 3 -11 16 -58 51 -205 176 -264 223 -35 28 -88
70 -117 95 -30 25 -101 83 -157 130 -57 47 -125 103 -152 125 -26 22 -80 67
-119 100 -148 124 -342 284 -398 327 -19 15 -59 48 -88 74 -30 25 -72 61 -93
78 -22 17 -72 58 -111 91 -39 33 -91 76 -114 95 -24 19 -83 69 -131 110 -48
41 -105 89 -126 105 -21 17 -84 68 -140 115 -56 47 -121 101 -145 120 -271
222 -361 296 -369 306 -5 6 -37 32 -70 57 -33 26 -80 64 -105 86 -39 35 -51
40 -90 40 -25 0 -58 -5 -75 -10z"/>
        <path d="M7313 2608 c-51 -46 -144 -130 -208 -188 -64 -58 -148 -134 -188
-169 -40 -35 -112 -101 -162 -146 -49 -45 -127 -115 -173 -156 -46 -41 -125
-112 -177 -159 -52 -47 -147 -132 -212 -190 -65 -57 -127 -113 -138 -125 -11
-11 -73 -67 -138 -125 -65 -58 -160 -143 -212 -190 -52 -47 -147 -132 -212
-190 -65 -57 -143 -127 -173 -156 -30 -28 -91 -83 -135 -122 -217 -192 -241
-224 -83 -107 37 28 96 70 130 95 60 42 111 79 280 203 40 29 104 75 141 103
38 27 117 85 175 128 59 43 142 104 186 135 43 31 95 68 115 83 20 15 53 39
74 53 20 14 45 32 55 40 9 8 47 36 84 62 36 27 126 92 200 145 73 54 183 133
243 177 116 84 182 132 360 262 61 45 177 129 258 187 82 59 165 119 185 134
21 15 48 35 62 45 14 10 55 40 92 68 37 27 96 70 130 95 l62 45 -45 7 c-24 5
-109 12 -189 18 -80 5 -179 12 -220 15 l-75 6 -92 -83z"/>
        <path d="M7779 2392 c-94 -63 -124 -84 -204 -142 -50 -35 -92 -67 -95 -70 -3
-3 -41 -32 -85 -63 -44 -31 -136 -98 -205 -147 -69 -50 -183 -132 -254 -183
-70 -50 -141 -101 -156 -112 -15 -11 -54 -39 -86 -62 -173 -124 -290 -208
-347 -250 -21 -16 -70 -50 -110 -78 -39 -27 -99 -70 -132 -95 -33 -26 -91 -68
-130 -95 -38 -27 -72 -52 -75 -55 -3 -3 -25 -19 -49 -35 -24 -17 -56 -39 -71
-50 -15 -11 -56 -40 -90 -65 -34 -25 -77 -55 -94 -68 -17 -12 -47 -33 -66 -47
-19 -14 -60 -43 -90 -65 -30 -22 -71 -51 -90 -65 -19 -13 -69 -49 -110 -80
-41 -30 -98 -71 -126 -89 -29 -19 -55 -40 -60 -47 -7 -12 21 3 111 60 22 14
49 31 60 37 11 6 34 19 52 30 17 10 68 42 114 69 46 28 97 59 115 70 18 11 69
43 115 70 46 28 98 59 115 70 18 11 77 46 131 78 54 32 148 88 208 126 200
123 539 330 629 383 48 29 101 61 117 71 16 9 42 25 58 35 28 16 109 66 176
107 27 17 298 181 433 263 20 12 44 25 52 29 8 4 47 28 86 54 40 25 76 48 80
50 5 2 53 31 107 64 54 33 113 69 130 79 18 10 44 26 58 35 15 9 61 36 103 61
47 27 71 47 64 51 -7 4 -67 21 -133 39 -66 17 -133 36 -149 41 -44 14 -78 11
-107 -9z"/>
        <path d="M837 2379 c-6 -4 -57 -19 -112 -34 -170 -46 -169 -35 -11 -128 76
-45 157 -93 179 -106 23 -13 92 -54 152 -91 105 -65 363 -219 449 -268 23 -13
58 -35 78 -48 21 -13 40 -24 43 -24 3 0 29 -15 58 -34 28 -18 126 -77 217
-130 91 -53 172 -101 180 -106 97 -59 205 -120 212 -120 4 0 8 -4 8 -10 0 -5
4 -10 10 -10 5 0 33 -15 62 -33 29 -19 60 -37 68 -40 8 -4 67 -39 130 -78 63
-39 135 -82 160 -96 25 -14 50 -29 55 -33 9 -7 42 -26 110 -64 11 -6 38 -23
60 -37 22 -14 52 -32 67 -40 15 -8 110 -63 210 -124 382 -231 510 -306 514
-302 2 1 -18 17 -44 35 -26 17 -85 58 -132 90 -47 32 -150 103 -230 157 -80
54 -167 115 -195 135 -27 20 -99 70 -158 111 -60 41 -122 83 -137 94 -15 11
-99 69 -186 128 -88 59 -213 146 -279 192 -66 46 -169 118 -230 160 -60 41
-139 95 -175 120 -36 24 -74 50 -84 57 -10 7 -31 22 -45 33 -14 11 -46 34 -71
51 -62 42 -187 128 -300 207 -52 36 -151 104 -220 151 -198 135 -244 166 -265
181 -88 63 -114 72 -148 54z"/>
        <path d="M7673 1869 c-98 -59 -209 -128 -247 -151 -38 -24 -81 -50 -95 -58
-14 -8 -140 -85 -279 -170 -138 -85 -291 -179 -340 -209 -48 -29 -103 -62
-122 -73 -52 -30 -241 -147 -272 -169 -15 -10 -30 -19 -33 -19 -4 0 -25 -13
-48 -28 -23 -16 -73 -46 -110 -68 -38 -21 -79 -46 -92 -54 -13 -8 -49 -30 -81
-49 -32 -19 -98 -61 -148 -93 -50 -32 -120 -75 -154 -95 -80 -47 -97 -58 -202
-123 -47 -29 -116 -72 -155 -95 -102 -61 -170 -105 -162 -105 3 0 133 62 289
139 156 76 321 157 368 179 47 22 245 118 440 215 869 428 983 484 1125 552
193 93 788 385 882 433 81 41 84 37 -42 66 -38 9 -95 23 -125 32 -30 8 -75 19
-100 24 -25 5 -62 14 -82 19 -35 8 -44 4 -215 -100z"/>
        <path d="M895 1823 c-262 -93 -245 -78 -144 -127 48 -23 120 -57 160 -76 41
-18 119 -54 174 -80 133 -63 196 -92 285 -133 41 -19 98 -44 125 -57 28 -13
105 -49 173 -81 68 -33 125 -59 128 -59 2 0 48 -21 102 -46 53 -26 139 -66
189 -90 51 -24 95 -44 97 -44 3 0 71 -32 153 -71 222 -106 491 -231 578 -269
22 -10 117 -55 210 -100 94 -45 208 -99 255 -120 47 -21 132 -60 190 -88 58
-28 107 -48 109 -46 6 6 11 2 -129 84 -69 40 -142 84 -163 97 -37 24 -71 43
-157 91 -25 14 -56 32 -70 41 -31 20 -35 22 -205 122 -77 46 -187 112 -245
147 -108 67 -120 74 -230 137 -36 21 -77 45 -92 54 -75 45 -387 230 -434 256
-30 17 -59 36 -66 43 -7 7 -16 12 -20 12 -5 0 -32 15 -61 34 -28 19 -164 101
-302 182 -137 82 -258 153 -267 159 -51 31 -154 90 -158 91 -3 1 -86 -27 -185
-63z"/>
        <path d="M8474 1832 c-61 -31 -194 -97 -295 -146 -101 -49 -370 -181 -598
-293 -227 -112 -415 -203 -417 -203 -2 0 -139 -67 -306 -149 -167 -81 -377
-184 -468 -229 -985 -480 -1220 -596 -1216 -600 2 -2 57 18 122 43 66 26 148
58 184 72 36 13 79 30 95 38 17 7 75 30 130 50 132 49 371 142 415 161 19 8
44 19 55 24 11 5 88 34 170 65 83 31 159 61 170 66 11 4 54 21 95 37 41 16 84
33 95 37 11 4 25 9 30 10 11 3 109 41 140 54 11 5 67 28 125 50 58 23 114 46
125 51 11 5 110 43 220 85 198 75 281 108 320 125 11 5 99 39 195 76 96 36
189 72 205 79 44 20 88 37 550 212 66 25 138 53 160 63 22 9 75 30 117 46 43
16 76 33 75 38 -3 9 -126 79 -232 132 -27 14 -63 34 -80 44 -16 10 -39 19 -50
19 -11 0 -70 -25 -131 -57z"/>
        <path d="M138 1712 c-75 -37 -137 -70 -137 -73 -1 -4 43 -24 96 -44 286 -110
391 -150 428 -166 17 -7 157 -60 235 -89 14 -5 39 -15 55 -21 17 -7 32 -13 35
-14 3 -1 14 -5 25 -10 11 -4 83 -32 160 -62 77 -30 149 -58 160 -63 19 -9 134
-53 145 -55 7 -2 36 -13 80 -30 19 -8 103 -40 185 -70 83 -31 164 -62 180 -69
17 -7 55 -22 85 -34 115 -44 376 -145 405 -157 17 -6 56 -22 87 -34 32 -11 84
-31 115 -42 32 -12 72 -28 88 -35 17 -6 127 -49 245 -94 118 -46 229 -88 245
-95 17 -7 57 -23 90 -35 33 -13 74 -28 90 -35 17 -7 62 -25 100 -40 39 -15 79
-31 90 -35 27 -11 99 -39 159 -61 84 -31 63 -12 -38 35 -54 26 -99 46 -100 46
-5 0 -197 89 -219 101 -10 5 -70 33 -134 60 -64 28 -173 78 -241 110 -68 32
-126 59 -127 59 -4 0 -165 75 -281 131 -56 27 -104 49 -108 49 -4 0 -58 25
-121 55 -64 30 -117 55 -119 55 -2 0 -61 27 -131 60 -70 33 -128 60 -130 60
-2 0 -41 17 -87 39 -46 21 -110 51 -143 66 -33 15 -100 46 -150 70 -121 58
-415 195 -420 195 -2 0 -50 22 -107 49 -56 27 -168 78 -248 114 -80 36 -199
90 -265 121 -66 31 -124 56 -130 55 -5 0 -72 -30 -147 -67z"/>
        <path d="M675 1120 c-66 -26 -131 -53 -145 -58 -14 -6 -62 -25 -108 -43 -45
-17 -81 -33 -80 -35 2 -1 59 -19 128 -38 69 -20 145 -42 170 -50 25 -7 63 -19
85 -25 121 -33 364 -103 392 -112 18 -5 42 -12 53 -14 11 -2 35 -9 53 -15 18
-5 104 -30 192 -55 88 -25 174 -50 192 -56 18 -5 42 -12 53 -14 11 -2 35 -9
53 -14 18 -6 104 -31 192 -56 88 -25 174 -50 192 -55 18 -6 42 -13 53 -15 11
-2 35 -9 53 -14 28 -9 271 -79 392 -112 22 -6 60 -18 85 -25 40 -12 303 -87
405 -115 22 -6 54 -16 70 -21 17 -5 55 -16 85 -24 58 -15 197 -57 265 -79 22
-7 86 -25 143 -41 l103 -28 27 35 c93 120 203 209 337 274 100 49 176 70 280
80 57 5 89 1 168 -19 189 -48 365 -164 483 -318 l44 -56 62 19 c35 11 95 28
133 39 39 10 93 26 120 34 28 8 109 30 180 50 161 44 198 55 255 72 39 12 123
37 305 89 28 8 82 24 120 34 39 11 95 27 125 36 89 26 190 55 265 75 39 10 95
26 125 34 30 9 62 18 71 20 9 3 63 19 120 36 104 31 190 57 219 64 8 2 65 18
125 36 127 37 120 35 205 56 36 9 83 23 105 31 22 8 47 16 55 18 16 3 204 56
285 80 28 8 115 33 195 56 80 22 165 46 190 53 25 7 66 19 93 26 26 7 47 16
47 20 0 4 -26 18 -57 30 -32 12 -67 26 -78 31 -77 33 -312 122 -320 121 -5 0
-55 -17 -110 -37 -55 -21 -161 -59 -235 -85 -74 -26 -144 -51 -155 -55 -11 -4
-29 -11 -40 -15 -11 -5 -67 -25 -125 -45 -58 -21 -121 -43 -140 -50 -104 -40
-210 -78 -250 -90 -37 -12 -110 -38 -190 -68 -32 -12 -242 -88 -365 -132 -71
-25 -146 -52 -165 -60 -35 -14 -165 -60 -250 -88 -77 -26 -244 -86 -265 -96
-11 -6 -67 -26 -125 -47 -58 -20 -141 -50 -185 -67 -44 -16 -105 -38 -135 -48
-30 -10 -93 -32 -140 -48 -47 -17 -90 -31 -96 -31 -6 0 -17 12 -25 28 -34 67
-78 123 -160 203 -126 123 -249 181 -429 202 -41 5 -159 -9 -210 -25 -174 -53
-332 -184 -434 -359 l-27 -47 -102 35 c-56 19 -116 41 -134 49 -17 8 -36 14
-42 14 -6 0 -19 4 -29 9 -9 5 -64 26 -122 46 -58 20 -145 52 -195 70 -49 18
-137 49 -195 68 -58 19 -118 40 -135 47 -59 24 -71 29 -145 53 -42 14 -87 30
-100 36 -14 5 -83 31 -155 56 -71 25 -146 52 -165 60 -19 8 -73 27 -120 44
-184 64 -487 173 -520 186 -32 13 -218 79 -335 120 -139 49 -176 63 -182 69
-4 3 -12 6 -19 6 -7 0 -25 5 -41 12 -15 6 -32 12 -38 14 -25 7 -133 47 -162
60 -17 8 -35 14 -40 14 -4 -1 -62 -23 -128 -50z"/>
    </g>
</svg>