<svg xmlns="http://www.w3.org/2000/svg" viewBox="0 0 541 476">
<g transform="translate(0,476) scale(0.1,-0.1)"
fill="#ffffff" stroke="none">
<path d="M1108 4741 c-31 -3 -59 -8 -61 -11 -6 -6 -427 -2307 -427 -2332 0
-12 8 -18 23 -18 12 -1 55 -5 95 -9 l74 -9 411 180 c227 99 431 188 453 198
l41 18 79 -59 c373 -279 957 -334 1425 -134 l81 35 176 -170 c97 -94 180 -170
184 -170 4 0 259 262 567 583 l561 582 0 97 0 97 -557 534 c-307 293 -574 548
-594 565 l-36 31 -194 -204 c-147 -155 -199 -203 -214 -200 -11 2 -58 15 -105
29 -185 54 -301 71 -500 70 -153 0 -203 -4 -287 -22 -140 -30 -285 -81 -405
-142 l-101 -51 -36 34 c-20 19 -144 136 -276 261 -268 253 -232 232 -377 217z
m704 -573 c314 -299 595 -565 624 -591 l54 -49 0 -76 0 -77 71 -65 72 -65
-219 -99 c-121 -55 -227 -99 -237 -98 -36 2 -247 140 -247 161 0 4 71 41 158
81 86 40 161 76 165 80 7 6 -780 749 -801 757 -4 2 -58 -266 -121 -595 -63
-328 -117 -607 -119 -619 -4 -20 9 -16 143 43 81 35 152 64 156 64 5 0 18 -17
28 -39 11 -21 48 -73 81 -116 34 -42 60 -78 58 -79 -20 -15 -842 -365 -846
-361 -5 5 400 2285 406 2285 2 0 260 -244 574 -542z m2416 -62 c293 -281 531
-513 530 -517 -4 -10 -1089 -1139 -1095 -1139 -2 0 -58 50 -123 111 l-118 112
72 58 c40 32 94 84 120 116 26 32 198 214 382 405 184 191 334 351 334 357 0
14 -690 676 -704 676 -7 0 -168 -162 -359 -360 l-346 -360 184 -184 c102 -101
185 -186 185 -187 0 -10 -131 -99 -183 -125 l-58 -30 -33 28 c-80 66 -501 479
-500 489 1 7 246 266 544 577 l544 566 46 -42 c25 -23 286 -271 578 -551z
m-1527 294 c168 -17 436 -74 461 -99 4 -3 -34 -48 -85 -98 l-92 -92 -65 18
c-259 73 -582 38 -814 -87 l-72 -39 -99 94 c-60 57 -95 97 -89 103 22 22 203
104 297 134 194 64 372 84 558 66z m1217 -577 c158 -152 287 -281 287 -288 0
-10 -466 -504 -472 -500 -2 1 7 26 18 55 41 109 61 236 62 400 1 150 1 158
-31 249 -35 100 -88 197 -151 276 -37 46 -39 51 -24 67 9 10 18 18 20 18 2 0
133 -124 291 -277z m-301 140 c226 -300 211 -645 -39 -918 -154 -169 -377
-287 -651 -347 -88 -19 -132 -22 -317 -22 -198 0 -224 2 -327 26 -423 100
-734 358 -807 668 -20 82 -20 217 -1 297 15 66 66 186 82 196 5 3 51 -35 101
-86 l92 -92 -12 -63 c-30 -163 56 -366 209 -487 329 -261 853 -294 1228 -76
102 59 229 184 269 264 77 158 75 315 -7 478 l-34 66 74 82 c41 44 78 81 82
81 4 0 30 -30 58 -67z m-2126 -134 c-59 -121 -75 -192 -74 -329 1 -99 23 -251
48 -331 4 -13 -14 -25 -81 -53 -47 -21 -87 -36 -89 -34 -2 2 34 202 80 443 47
242 85 444 85 450 0 5 16 -7 36 -26 l36 -37 -41 -83z m1311 112 c15 -5 -11
-37 -152 -183 l-170 -177 -150 142 -151 142 41 18 c56 25 180 55 270 66 77 10
279 5 312 -8z m547 -268 c23 -27 56 -77 75 -113 34 -65 34 -65 20 -119 -16
-61 -52 -130 -93 -181 l-29 -34 -98 91 c-55 50 -118 111 -141 135 l-42 43 115
122 c131 139 124 137 193 56z m-1385 -182 l108 -108 -28 -11 c-16 -5 -66 -24
-112 -41 l-83 -31 -31 67 c-17 36 -31 78 -31 92 0 27 50 141 61 141 4 0 56
-49 116 -109z m812 -388 c76 -71 110 -109 102 -114 -66 -36 -390 -36 -537 0
-46 12 -88 24 -93 27 -8 5 381 191 405 193 5 1 60 -47 123 -106z"/>
<path d="M2275 2094 c-22 -2 -97 -9 -167 -15 -71 -6 -128 -13 -128 -15 0 -3
-283 -1227 -305 -1321 l-5 -23 234 0 234 0 27 117 c15 65 39 170 54 232 l26
115 68 -170 c37 -93 76 -197 88 -231 l21 -63 264 0 c145 0 264 3 264 8 -1 26
-204 423 -237 462 -26 31 -26 32 32 50 163 51 298 195 336 358 6 26 11 82 11
124 0 184 -118 307 -338 353 -76 16 -383 28 -479 19z m264 -355 c81 -28 80
-153 -3 -235 -46 -46 -119 -74 -193 -74 -38 0 -44 3 -39 18 3 9 19 76 36 147
16 72 32 136 35 143 6 15 119 16 164 1z"/>
<path d="M3700 2094 c-151 -28 -256 -67 -352 -131 -128 -84 -198 -195 -206
-324 -3 -47 0 -91 8 -115 32 -100 137 -189 327 -279 51 -25 102 -54 113 -65
29 -29 25 -64 -10 -93 -59 -50 -192 -45 -376 14 -53 17 -97 29 -98 27 -1 -2
-24 -82 -51 -178 -26 -96 -50 -180 -52 -186 -2 -6 35 -19 94 -32 284 -64 504
-51 689 39 231 113 367 361 297 541 -39 102 -116 165 -329 267 -127 61 -146
80 -124 120 13 26 35 38 92 50 54 12 136 1 246 -34 42 -13 78 -23 80 -21 4 5
100 360 98 363 -1 1 -36 10 -77 19 -71 15 -317 27 -369 18z"/>
<path d="M310 2064 c0 -7 -298 -1299 -306 -1327 -5 -16 9 -17 237 -15 l242 3
19 80 c10 44 34 149 54 232 l36 153 231 2 230 3 38 155 c21 85 38 161 39 168
0 9 -52 12 -230 12 -126 0 -230 3 -230 6 0 3 6 32 14 63 8 31 17 68 20 84 l6
27 220 0 c219 0 220 0 230 23 10 22 80 309 80 327 0 6 -171 10 -465 10 -256 0
-465 -3 -465 -6z"/>
<path d="M1370 2065 c0 -5 -272 -1182 -305 -1322 l-5 -23 239 0 c220 0 240 1
245 18 9 29 306 1313 306 1323 0 5 -98 9 -240 9 -132 0 -240 -2 -240 -5z"/>
<path d="M4235 2058 c-3 -7 -29 -94 -59 -193 l-53 -180 186 -5 187 -5 -113
-470 c-62 -259 -112 -473 -113 -477 0 -5 108 -8 239 -8 220 0 240 1 245 18 3
9 50 208 106 442 55 234 105 442 111 463 l10 37 174 0 c133 0 175 3 175 13 1
6 18 94 39 195 l39 182 -584 0 c-459 0 -586 -3 -589 -12z"/>
<path d="M260 601 c-76 -23 -127 -69 -162 -146 -33 -72 -33 -228 0 -300 44
-95 114 -144 218 -153 51 -4 71 0 116 21 102 46 168 177 89 177 -22 0 -31 -8
-49 -45 -28 -57 -72 -85 -135 -85 -121 0 -188 85 -188 235 0 151 66 235 186
235 60 0 99 -21 130 -70 42 -66 104 -49 75 21 -36 86 -176 141 -280 110z"/>
<path d="M667 603 c-4 -3 -7 -136 -7 -295 0 -258 2 -289 16 -295 9 -3 24 -2
33 4 13 8 16 34 19 142 l3 131 159 0 159 0 3 -137 c3 -123 5 -138 21 -141 45
-9 47 4 47 298 0 294 -2 307 -47 298 -16 -3 -18 -17 -21 -126 l-3 -122 -159 0
-160 0 0 113 c0 75 -4 117 -12 125 -13 13 -41 16 -51 5z"/>
<path d="M1827 596 c-77 -28 -112 -81 -105 -163 7 -80 49 -118 158 -142 148
-33 180 -55 180 -122 0 -49 -29 -83 -84 -99 -87 -24 -163 8 -193 81 -11 29
-21 39 -38 39 -38 0 -48 -23 -30 -66 32 -77 81 -111 174 -120 122 -13 217 36
240 124 17 61 5 111 -38 153 -36 35 -43 38 -210 80 -89 22 -119 93 -63 149 62
61 164 48 215 -27 29 -44 55 -54 76 -29 17 20 -7 74 -48 109 -55 46 -156 60
-234 33z"/>
<path d="M2417 593 c-20 -23 -217 -530 -217 -560 0 -18 6 -23 24 -23 31 0 38
10 72 103 l29 78 129 -3 130 -3 28 -80 c16 -44 35 -86 42 -94 18 -18 56 -5 56
19 0 27 -199 541 -218 563 -8 9 -25 17 -37 17 -12 0 -29 -8 -38 -17z m91 -203
l49 -135 -100 -3 c-55 -1 -101 -1 -103 1 -3 2 19 65 48 140 28 75 53 136 54
134 1 -1 25 -63 52 -137z"/>
<path d="M3997 593 c-20 -23 -217 -530 -217 -560 0 -18 6 -23 24 -23 31 0 38
10 72 103 l29 78 129 -3 130 -3 28 -80 c16 -44 35 -86 42 -94 18 -18 56 -5 56
19 0 27 -199 541 -218 563 -8 9 -25 17 -37 17 -12 0 -29 -8 -38 -17z m91 -203
l49 -135 -100 -3 c-55 -1 -101 -1 -103 1 -3 2 19 65 48 140 28 75 53 136 54
134 1 -1 25 -63 52 -137z"/>
<path d="M4397 603 c-4 -3 -7 -136 -7 -295 0 -258 2 -289 16 -295 38 -14 49 9
52 114 l3 100 39 38 c22 21 41 37 43 34 3 -2 53 -69 112 -149 59 -80 109 -147
110 -148 2 -2 13 -1 24 3 39 12 23 49 -89 200 l-110 149 27 31 c15 16 61 65
103 108 63 65 73 80 64 95 -23 36 -44 23 -183 -120 l-140 -143 -1 131 c0 87
-4 134 -12 142 -13 13 -41 16 -51 5z"/>
<path d="M1269 581 l-24 -19 0 -257 0 -257 24 -19 c22 -18 38 -19 195 -17 160
3 171 4 174 22 8 38 -23 46 -175 46 -166 0 -156 -9 -151 125 l3 80 140 5 140
5 0 25 0 25 -142 3 -143 3 0 73 c0 113 -10 106 154 106 77 0 147 4 154 9 8 4
12 19 10 32 l-3 24 -166 3 c-152 2 -168 1 -190 -17z"/>
<path d="M2832 583 c-22 -18 -23 -18 -20 -293 3 -263 4 -275 22 -278 36 -7 46
25 46 140 l0 108 112 0 c91 0 119 4 153 20 55 26 85 80 85 150 0 67 -23 114
-69 142 -32 20 -52 23 -171 26 -120 3 -138 2 -158 -15z m250 -53 c79 -22 104
-111 49 -172 l-29 -33 -111 -3 -111 -4 0 104 c0 58 3 108 7 111 10 11 154 8
195 -3z"/>
<path d="M3349 581 l-24 -19 0 -257 0 -257 24 -19 c22 -18 38 -19 195 -17 160
3 171 4 174 22 8 38 -23 46 -175 46 -166 0 -156 -9 -151 125 l3 80 140 5 140
5 0 25 0 25 -142 3 -143 3 0 73 c0 113 -10 106 154 106 77 0 147 4 154 9 8 4
12 19 10 32 l-3 24 -166 3 c-152 2 -168 1 -190 -17z"/>
<path d="M4929 581 l-24 -19 0 -257 0 -257 24 -19 c22 -18 38 -19 195 -17 160
3 171 4 174 22 8 38 -23 46 -175 46 -166 0 -156 -9 -151 125 l3 80 140 5 140
5 0 25 0 25 -142 3 -143 3 0 73 c0 113 -10 106 154 106 77 0 147 4 154 9 8 4
12 19 10 32 l-3 24 -166 3 c-152 2 -168 1 -190 -17z"/>
</g>
</svg>
