<svg xmlns="http://www.w3.org/2000/svg" viewBox="0 0 1328 369">
    <g transform="translate(0,369) scale(0.1,-0.1)" fill="white" stroke="none">
        <path d="M1890 3008 c-13 -24 -53 -90 -90 -148 -37 -58 -77 -123 -89 -145 -12
-22 -51 -85 -86 -140 -35 -55 -93 -149 -130 -210 -36 -60 -97 -159 -135 -220
-38 -60 -90 -146 -117 -189 -26 -43 -56 -91 -65 -105 -10 -14 -25 -39 -34 -56
-9 -16 -42 -70 -74 -120 -58 -91 -188 -302 -315 -510 -38 -63 -130 -212 -202
-330 -73 -118 -133 -222 -133 -229 0 -13 132 -15 948 -15 521 -1 1146 -3 1390
-6 296 -3 450 -2 463 5 10 6 61 47 111 92 51 44 120 104 153 133 180 156 412
359 428 375 19 18 8 30 -288 315 -23 22 -98 94 -166 160 -706 680 -723 696
-727 684 -3 -8 11 -65 68 -269 10 -36 30 -110 45 -165 14 -55 35 -129 45 -165
10 -36 28 -99 39 -140 82 -299 113 -414 131 -475 90 -317 133 -481 123 -472
-2 3 -28 51 -57 108 -109 213 -219 424 -226 434 -4 6 -46 84 -92 175 -119 232
-235 454 -273 525 -18 33 -72 137 -120 230 -48 94 -100 193 -115 220 -16 28
-56 104 -90 170 -35 66 -87 167 -117 225 -31 58 -78 149 -105 203 -28 53 -56
97 -62 97 -7 0 -23 -19 -36 -42z"/>
        <path d="M3672 2428 l3 -483 95 0 95 0 3 333 c1 197 6 332 12 332 5 0 16 -26
25 -57 9 -32 58 -182 108 -333 l92 -275 101 -3 c73 -2 104 1 111 10 6 7 20 42
33 78 45 130 90 258 135 385 26 72 54 153 64 180 16 49 16 40 19 -303 l2 -353
98 3 97 3 3 483 2 482 -154 0 -154 0 -17 -52 c-9 -29 -25 -75 -35 -103 -10
-27 -46 -135 -81 -240 -34 -104 -75 -226 -89 -270 l-27 -80 -17 60 c-19 63
-97 311 -121 380 -7 22 -32 100 -55 173 l-41 132 -155 0 -154 0 2 -482z"/>
        <path d="M4950 2815 l0 -95 100 0 100 0 0 95 0 95 -100 0 -100 0 0 -95z"/>
        <path d="M6920 2815 l0 -95 100 0 100 0 0 95 0 95 -100 0 -100 0 0 -95z"/>
        <path d="M7520 2651 c-56 -12 -119 -49 -171 -101 -66 -66 -93 -154 -87 -278 5
-107 34 -177 101 -243 65 -63 145 -90 267 -90 121 0 203 27 270 91 61 57 87
111 100 200 26 184 -54 345 -198 401 -61 24 -215 35 -282 20z m200 -169 c51
-28 74 -81 78 -177 3 -68 0 -87 -20 -124 -35 -68 -65 -85 -147 -85 -121 2
-165 57 -165 204 0 99 18 148 67 179 42 27 138 28 187 3z"/>
        <path d="M4952 2298 l3 -353 95 0 95 0 3 353 2 352 -100 0 -100 0 2 -352z"/>
        <path d="M5411 2636 c-67 -24 -121 -113 -121 -199 0 -51 42 -140 77 -165 54
-38 86 -45 241 -51 164 -6 172 -9 172 -62 0 -55 -16 -59 -259 -59 l-222 0 3
-77 3 -78 225 -3 c313 -4 359 7 416 103 46 80 43 186 -8 251 -42 52 -114 74
-271 81 -78 3 -148 10 -154 16 -16 12 -17 51 -3 78 10 18 23 19 210 19 109 0
205 3 214 6 13 5 16 22 16 80 l0 74 -252 -1 c-174 0 -264 -4 -287 -13z"/>
        <path d="M6208 2635 c-75 -27 -108 -78 -115 -176 -7 -80 17 -142 70 -185 53
-42 107 -54 250 -54 114 0 129 -2 147 -20 11 -11 20 -29 20 -40 0 -11 -9 -29
-20 -40 -19 -19 -33 -20 -240 -20 l-221 0 3 -77 3 -78 255 0 c252 0 256 0 305
25 41 21 55 35 78 81 52 102 33 226 -42 273 -68 43 -122 52 -328 55 -45 1 -55
5 -70 27 -15 24 -15 29 -2 53 l15 26 209 5 210 5 3 78 3 77 -248 -1 c-184 0
-258 -4 -285 -14z"/>
        <path d="M6922 2298 l3 -353 95 0 95 0 3 353 2 352 -100 0 -100 0 2 -352z"/>
        <path d="M8150 2648 c-5 -24 -3 -693 1 -699 3 -6 48 -8 100 -7 l94 3 3 273 2
272 101 0 c55 0 109 -4 119 -10 34 -18 40 -65 40 -307 l0 -234 98 3 97 3 0
255 c0 285 -5 318 -60 379 -57 63 -100 71 -366 71 -126 0 -229 -1 -229 -2z"/>
        <path d="M4451 1683 c-16 -43 -51 -127 -76 -188 -25 -60 -79 -191 -120 -290
-41 -99 -95 -229 -120 -290 -24 -60 -45 -111 -45 -112 0 -2 55 -3 123 -3 l123
0 46 108 45 107 176 3 c203 3 178 16 236 -123 l37 -90 129 -3 c103 -2 126 0
118 10 -6 7 -24 49 -41 93 -17 44 -39 100 -50 125 -23 52 -69 163 -142 340
-28 69 -62 150 -75 180 -13 30 -37 90 -55 133 l-32 77 -123 0 -123 0 -31 -77z
m203 -279 c20 -51 47 -117 61 -148 l25 -56 -131 0 c-72 0 -129 4 -127 9 41
109 124 298 129 293 4 -4 23 -48 43 -98z"/>
        <path d="M6910 1280 l0 -480 100 0 100 0 0 480 0 480 -100 0 -100 0 0 -480z"/>
        <path d="M8177 1753 c-4 -3 -7 -62 -7 -130 l0 -123 -60 0 -60 0 0 -75 0 -75
58 0 59 0 6 -192 c6 -212 18 -267 65 -310 41 -38 84 -48 203 -48 l109 0 0 75
0 75 -60 0 c-51 0 -65 4 -85 25 -25 24 -25 27 -25 200 l0 175 85 0 85 0 0 75
0 75 -85 0 -85 0 0 130 0 130 -98 0 c-54 0 -102 -3 -105 -7z"/>
        <path d="M8674 1747 c-3 -8 -4 -49 -2 -93 l3 -79 103 -3 102 -3 0 96 0 95
-100 0 c-75 0 -102 -3 -106 -13z"/>
        <path d="M5210 1151 l0 -351 100 0 c73 0 100 3 100 13 0 6 1 129 3 272 l2 260
55 3 c88 5 158 -7 180 -31 19 -19 20 -36 20 -269 l0 -248 106 0 105 0 -4 258
c-4 280 -9 311 -59 368 -56 64 -74 68 -355 72 l-253 4 0 -351z"/>
        <path d="M6060 1426 l0 -76 173 0 c94 -1 192 -5 217 -9 51 -10 80 -40 80 -82
l0 -29 -155 0 c-84 0 -176 -5 -203 -11 -191 -41 -223 -330 -45 -404 28 -12 92
-15 319 -15 l284 0 0 238 c0 130 -5 257 -11 282 -14 62 -54 116 -108 148 l-46
27 -252 3 -253 3 0 -75z m470 -416 l0 -60 -124 0 c-69 0 -136 4 -151 10 -46
17 -53 83 -11 100 11 5 81 9 154 9 l132 1 0 -60z"/>
        <path d="M7280 1283 c0 -120 5 -247 10 -283 13 -79 49 -135 111 -170 40 -23
58 -25 189 -30 l145 -5 -3 -30 c-7 -58 -13 -60 -243 -63 l-210 -4 3 -76 3 -77
220 0 c188 0 228 3 273 18 68 24 110 60 136 117 20 43 21 64 24 433 l3 387
-100 0 c-74 0 -101 -3 -101 -12 0 -7 0 -131 0 -275 l1 -263 -100 0 c-132 0
-143 8 -152 116 -4 44 -8 159 -8 257 l-1 177 -100 0 -100 0 0 -217z"/>
        <path d="M8677 1493 c-4 -3 -7 -161 -7 -350 l0 -343 105 0 105 0 0 350 0 350
-98 0 c-54 0 -102 -3 -105 -7z"/>
        <path d="M9231 1484 c-30 -8 -68 -23 -85 -34 -100 -62 -153 -216 -127 -370 14
-86 35 -131 93 -194 69 -74 116 -86 348 -86 l190 0 0 74 0 74 -152 4 c-133 3
-158 7 -194 26 -63 32 -87 89 -83 192 7 144 48 171 276 178 l153 5 0 73 0 74
-182 -1 c-127 0 -200 -5 -237 -15z"/>
        <path d="M9877 1486 c-77 -28 -116 -92 -117 -189 0 -95 36 -158 115 -200 34
-18 63 -22 192 -27 84 -3 156 -9 162 -15 22 -23 23 -63 2 -84 -20 -20 -31 -21
-241 -21 l-220 0 0 -75 0 -75 263 0 c257 0 265 1 308 23 89 47 128 191 80 291
-41 83 -133 115 -341 116 -95 0 -106 4 -115 41 -8 33 20 67 60 73 17 2 110 5
208 5 l177 1 0 75 0 75 -247 0 c-183 -1 -258 -4 -286 -14z"/>
        <path d="M11242 1162 c3 -210 4 -219 28 -267 19 -35 37 -55 69 -72 40 -21 57
-23 178 -23 l133 0 0 50 0 50 -72 1 c-120 1 -180 16 -194 47 -4 10 -9 110 -12
225 l-4 207 -65 0 -65 0 4 -218z"/>
        <path d="M11707 1373 c-11 -10 -8 -341 3 -407 12 -74 43 -120 97 -146 36 -17
64 -20 173 -20 l130 0 0 49 0 48 -102 5 c-106 5 -152 19 -164 47 -3 9 -9 109
-11 224 l-6 207 -57 0 c-31 0 -60 -3 -63 -7z"/>
        <path d="M12290 1368 c-110 -31 -170 -131 -170 -281 0 -98 10 -137 50 -200 47
-75 82 -87 268 -87 l153 0 -3 51 -3 51 -86 0 c-105 0 -167 12 -196 40 -42 39
-54 190 -21 262 22 49 53 60 186 64 l122 4 0 54 0 54 -132 -1 c-73 0 -149 -5
-168 -11z"/>
        <path d="M10590 895 l0 -95 30 0 c30 0 37 -8 21 -25 -10 -12 -71 -153 -71
-166 0 -5 20 -9 45 -9 l45 0 55 110 c54 107 55 112 55 195 l0 85 -90 0 -90 0
0 -95z"/>
    </g>
</svg>