<?xml version="1.0" ?>
<svg xmlns="http://www.w3.org/2000/svg" viewBox="0 0 734 518">
<g transform="translate(0,518) scale(0.1,-0.1)"
fill="#ffffff">
<path d="M2850 5169 c-968 -19 -1661 -64 -1975 -128 -303 -62 -544 -250 -671
-526 -87 -188 -143 -554 -186 -1210 -16 -250 -16 -1180 0 -1430 43 -656 99
-1022 186 -1210 127 -276 368 -464 671 -526 343 -69 985 -108 2163 -130 1391
-26 2948 33 3427 130 303 62 544 250 671 526 87 188 143 554 186 1210 16 250
16 1180 0 1430 -43 656 -99 1022 -186 1210 -127 276 -368 464 -671 526 -502
102 -2102 159 -3615 128z m1050 -2043 c509 -290 925 -531 925 -536 0 -7 -1747
-1009 -1877 -1076 l-28 -15 0 1091 0 1091 28 -15 c15 -8 443 -251 952 -540z"/>
</g>
</svg>
