<svg xmlns="http://www.w3.org/2000/svg" viewBox="0 0 348 348">
<g transform="translate(0,348) scale(0.1,-0.1)"
fill="white" stroke="none">
<path d="M1571 3469 c-200 -19 -421 -83 -601 -173 -188 -94 -250 -146 -250
-209 0 -84 141 -179 341 -231 161 -42 291 -57 529 -63 327 -8 582 23 819 99
215 68 328 153 319 241 -4 41 -64 87 -213 161 -293 146 -619 206 -944 175z"/>
<path d="M494 2948 c-133 -137 -174 -197 -174 -250 0 -242 477 -461 1200 -550
143 -18 714 -18 835 0 348 51 588 145 722 284 23 23 54 67 68 97 24 46 27 63
23 126 -3 63 -8 79 -41 128 -20 31 -79 100 -132 154 l-94 98 -1 -36 c-1 -152
-356 -359 -781 -455 -440 -99 -968 -107 -1244 -17 -274 88 -406 315 -289 496
13 20 23 37 20 37 -2 0 -52 -51 -112 -112z"/>
<path d="M3300 2475 c-1 -48 -45 -131 -102 -191 -56 -60 -175 -143 -273 -192
-344 -171 -949 -310 -1425 -329 -389 -15 -782 68 -1048 219 -88 51 -197 148
-241 216 -38 60 -65 161 -57 216 5 39 5 40 -8 16 -23 -40 -84 -223 -96 -288
-11 -53 -10 -64 7 -103 55 -122 243 -262 488 -362 315 -129 700 -198 1192
-216 1059 -38 1723 219 1690 655 -5 73 -53 230 -101 334 -22 50 -25 52 -26 25z"/>
<path d="M3466 1803 c-25 -96 -193 -243 -411 -359 -279 -149 -695 -285 -1065
-348 -245 -42 -345 -51 -595 -51 -258 0 -379 13 -565 60 -390 97 -698 317
-808 575 l-23 55 6 -90 c16 -225 39 -289 144 -387 162 -154 432 -297 719 -382
583 -174 1458 -165 1997 21 276 95 492 263 555 431 29 77 50 208 57 365 6 132
2 166 -11 110z"/>
<path d="M3292 1021 c-140 -160 -432 -320 -748 -410 -320 -92 -612 -132 -974
-132 -572 -1 -1057 153 -1319 419 -62 62 -71 68 -51 36 47 -79 91 -132 167
-205 257 -245 679 -397 1223 -440 464 -36 903 36 1232 201 202 102 327 219
435 405 36 62 96 185 90 185 -2 0 -26 -27 -55 -59z"/>
<path d="M2773 369 c-277 -153 -713 -240 -1133 -226 -358 12 -672 77 -882 183
-37 19 -68 32 -68 30 0 -11 187 -126 279 -172 556 -275 1217 -234 1732 109 77
51 161 117 149 116 -3 0 -37 -18 -77 -40z"/>
</g>
</svg>
