<svg xmlns="http://www.w3.org/2000/svg" viewBox="0 0 107 107">
    <g transform="translate(0,107) scale(0.1,-0.1)" fill="white" stroke="none">
        <path d="M0 805 l0 -265 265 0 265 0 0 265 0 265 -265 0 -265 0 0 -265z m330
160 c0 -12 -13 -15 -55 -15 l-55 0 0 -60 0 -60 55 0 c42 0 55 -3 55 -15 0 -12
-13 -15 -55 -15 l-55 0 0 -80 c0 -64 -3 -80 -15 -80 -13 0 -15 26 -15 170 l0
170 70 0 c56 0 70 -3 70 -15z"/>
        <path d="M550 805 l0 -265 260 0 260 0 0 265 0 265 -260 0 -260 0 0 -265z
m348 155 c18 -11 30 -25 27 -31 -5 -7 -15 -5 -29 5 -62 40 -145 28 -194 -29
-58 -65 -46 -168 24 -219 41 -29 106 -32 153 -8 43 22 63 16 33 -11 -27 -24
-97 -37 -140 -25 -146 39 -180 221 -59 309 51 37 133 41 185 9z"/>
        <path d="M0 260 l0 -260 265 0 265 0 0 260 0 260 -265 0 -265 0 0 -260z m340
155 c0 -12 -14 -15 -70 -15 l-70 0 0 -65 0 -65 70 0 c56 0 70 -3 70 -15 0 -12
-14 -15 -70 -15 l-70 0 0 -65 0 -65 70 0 c40 0 70 -4 70 -10 0 -6 -35 -10 -85
-10 l-85 0 0 170 0 170 85 0 c69 0 85 -3 85 -15z"/>
        <path d="M550 260 l0 -260 260 0 260 0 0 260 0 260 -260 0 -260 0 0 -260z
m320 155 c0 -12 -13 -15 -60 -15 l-60 0 0 -65 0 -65 60 0 c47 0 60 -3 60 -15
0 -12 -13 -15 -60 -15 l-60 0 0 -75 c0 -60 -3 -75 -15 -75 -13 0 -15 26 -15
170 l0 170 75 0 c60 0 75 -3 75 -15z"/>
    </g>
</svg>