<svg xmlns="http://www.w3.org/2000/svg" viewBox="0 0 959 851">
<g transform="translate(0,851) scale(0.1,-0.1)"
fill="white" stroke="none">
<path d="M2025 8492 c-88 -8 -161 -15 -162 -16 -1 -1 -59 -312 -128 -691 -69
-380 -196 -1072 -281 -1540 -86 -467 -200 -1091 -253 -1385 -54 -294 -98 -536
-97 -536 0 -1 81 -9 179 -17 l178 -15 796 350 795 350 32 -29 c98 -93 261
-197 443 -285 225 -109 472 -182 758 -225 167 -24 570 -24 740 1 261 38 520
112 720 206 l103 48 323 -309 c257 -246 325 -307 335 -297 6 7 455 475 998
1041 l986 1027 0 169 0 168 -1036 994 c-569 547 -1039 995 -1043 997 -5 1
-253 -252 -552 -563 -436 -455 -547 -566 -564 -562 -11 3 -73 19 -139 36 -296
77 -668 82 -969 11 -179 -42 -387 -125 -511 -204 l-59 -37 -36 34 c-20 18
-336 318 -703 665 -367 348 -673 631 -680 631 -7 -1 -85 -8 -173 -17z m5049
-1742 c244 -234 443 -428 443 -432 -2 -8 -1008 -1058 -1014 -1058 -2 0 9 19
25 43 46 66 110 200 142 295 43 130 60 253 59 437 l0 160 -20 -94 c-88 -417
-404 -788 -879 -1030 -280 -143 -597 -231 -940 -262 -162 -14 -470 -7 -618 15
-726 108 -1305 470 -1569 981 -38 73 -87 215 -107 310 l-14 70 -1 -161 c-1
-105 5 -193 15 -253 9 -51 14 -94 12 -95 -12 -10 -370 -167 -373 -164 -5 5
314 1670 321 1677 3 3 140 -130 305 -294 298 -298 300 -300 294 -335 -20 -116
-16 -320 6 -320 5 0 9 8 9 18 0 17 75 177 99 212 9 12 47 -21 206 -180 107
-107 195 -198 195 -201 0 -3 -84 -37 -187 -74 -104 -38 -192 -71 -196 -75 -4
-4 11 -31 34 -61 143 -183 393 -358 630 -440 l64 -22 373 167 373 168 167
-160 c92 -88 178 -172 191 -186 14 -14 33 -26 42 -26 10 0 80 20 155 45 218
72 396 171 525 293 l61 57 -258 249 c-143 136 -260 251 -261 254 -1 4 94 106
211 227 l213 219 37 -28 c97 -74 245 -285 283 -403 9 -29 20 -53 24 -53 12 0
22 148 15 223 -13 136 -57 261 -137 384 -23 34 -39 66 -37 72 1 5 99 108 217
230 l213 220 104 -97 c57 -53 303 -288 548 -522z m-2143 339 c49 -6 89 -16 89
-20 0 -13 -602 -640 -611 -637 -5 2 -130 118 -278 258 -255 240 -269 255 -248
266 101 53 397 126 583 143 115 11 336 6 465 -10z"/>
<path d="M4150 3804 c-25 -2 -117 -8 -205 -14 -160 -11 -426 -37 -432 -43 -2
-3 -553 -2373 -553 -2383 0 -2 188 -4 418 -4 l417 0 89 393 c49 215 92 396 96
400 7 8 194 -453 271 -670 l44 -123 473 0 472 0 -14 33 c-133 310 -367 760
-431 827 l-25 26 86 28 c148 48 257 110 347 195 133 127 213 259 258 426 31
110 33 333 5 415 -77 228 -235 365 -497 434 -160 42 -288 57 -539 60 -129 2
-255 2 -280 0z m364 -648 c73 -36 102 -90 93 -174 -17 -162 -110 -275 -272
-333 -76 -27 -245 -39 -245 -18 0 8 28 134 62 281 l61 267 31 5 c17 2 72 3
123 1 76 -2 101 -7 147 -29z"/>
<path d="M6635 3804 c-335 -39 -578 -131 -781 -296 -267 -215 -368 -565 -236
-812 37 -70 150 -180 255 -250 49 -32 178 -103 287 -157 206 -103 240 -128
240 -181 0 -128 -175 -186 -435 -143 -94 15 -248 56 -374 100 -41 14 -78 22
-82 18 -4 -5 -48 -154 -98 -333 -67 -241 -87 -326 -78 -332 21 -13 256 -66
377 -85 163 -25 547 -25 675 0 329 66 600 240 763 490 183 281 173 579 -27
777 -91 91 -161 135 -417 261 -121 59 -233 118 -247 129 -21 17 -27 30 -27 59
0 77 89 131 226 139 101 5 173 -7 357 -60 78 -22 148 -41 156 -42 21 -2 193
636 174 647 -23 14 -244 56 -352 67 -96 9 -288 11 -356 4z"/>
<path d="M281 2583 c-150 -648 -275 -1188 -278 -1200 l-5 -23 429 0 430 0 92
398 c51 218 95 407 98 420 l5 22 408 0 c381 0 409 1 414 18 10 35 136 557 136
565 0 4 -184 7 -410 7 -225 0 -410 3 -410 8 0 4 17 78 37 165 l37 157 396 0
396 0 73 298 c40 163 75 307 78 320 l5 22 -829 0 -829 0 -273 -1177z"/>
<path d="M2421 3713 c-5 -27 -129 -563 -275 -1192 -147 -630 -266 -1148 -266
-1153 0 -4 193 -8 428 -8 l428 0 274 1183 c150 650 276 1190 278 1200 4 16
-21 17 -426 17 l-430 0 -11 -47z"/>
<path d="M7412 3418 c-57 -189 -103 -346 -102 -350 0 -5 149 -8 331 -8 l331 0
-5 -22 c-36 -143 -397 -1661 -397 -1668 0 -6 152 -10 428 -10 l427 0 148 623
c82 342 174 724 204 850 l55 227 303 0 c175 0 306 4 310 9 5 9 145 666 145
684 0 4 -467 7 -1038 7 l-1038 0 -102 -342z"/>
<path d="M8735 1771 c-72 -32 -125 -113 -125 -190 0 -48 26 -106 65 -147 102
-106 267 -76 337 60 29 57 22 149 -16 205 -56 80 -173 112 -261 72z m158 -25
c139 -58 141 -264 3 -327 -54 -24 -100 -24 -154 2 -95 47 -128 169 -69 258 47
70 143 100 220 67z"/>
<path d="M8773 1693 l-33 -4 0 -110 0 -109 35 0 c33 0 35 2 35 33 l0 32 21
-32 c18 -28 27 -33 60 -33 21 0 39 3 39 7 0 3 -11 21 -25 39 l-26 33 21 21
c26 26 25 63 -2 94 -24 25 -69 36 -125 29z"/>
<path d="M452 1085 c-152 -43 -258 -165 -297 -340 -25 -111 -17 -385 14 -469
42 -117 114 -207 203 -252 44 -22 58 -24 200 -24 176 0 205 9 283 81 59 55 96
126 119 232 l6 27 -73 0 -74 0 -16 -58 c-34 -123 -98 -173 -232 -180 -72 -3
-85 -1 -135 25 -68 35 -112 92 -141 181 -29 91 -32 354 -5 447 45 155 156 236
305 222 114 -10 186 -75 212 -193 l12 -54 68 0 c37 0 70 4 73 8 8 14 -19 116
-43 163 -34 66 -106 134 -175 165 -76 34 -219 43 -304 19z"/>
<path d="M3350 1087 c-157 -45 -244 -149 -243 -288 0 -53 6 -76 29 -118 48
-89 121 -134 338 -208 196 -66 238 -103 238 -204 0 -101 -70 -159 -202 -167
-163 -9 -290 71 -290 183 0 25 -1 25 -76 25 l-77 0 6 -45 c14 -98 76 -178 179
-230 l71 -35 163 0 c144 0 170 3 207 20 107 51 167 138 167 245 0 173 -87 256
-364 345 -198 65 -257 120 -242 225 26 173 342 201 433 40 13 -22 23 -55 23
-72 l0 -33 76 0 77 0 -6 45 c-15 105 -106 214 -215 256 -70 27 -224 35 -292
16z"/>
<path d="M1170 545 l0 -545 75 0 75 0 0 250 0 250 275 0 275 0 0 -250 0 -250
70 0 70 0 0 545 0 545 -70 0 -70 0 0 -235 0 -235 -275 0 -275 0 0 235 0 235
-75 0 -75 0 0 -545z"/>
<path d="M2260 545 l0 -545 350 0 350 0 0 60 0 60 -275 0 -275 0 0 190 0 190
235 0 235 0 0 60 0 60 -235 0 -235 0 0 175 0 175 270 0 270 0 0 60 0 60 -345
0 -345 0 0 -545z"/>
<path d="M4167 598 c-103 -271 -196 -517 -207 -546 l-20 -52 75 0 c69 0 76 2
84 22 4 13 27 76 50 140 l43 118 227 0 228 0 50 -137 50 -138 76 -3 76 -3 -22
59 c-12 32 -105 278 -207 545 l-185 487 -65 0 -65 0 -188 -492z m347 48 c47
-131 86 -240 86 -242 0 -2 -81 -4 -181 -4 -141 0 -180 3 -177 13 82 236 175
484 180 479 3 -4 45 -114 92 -246z"/>
<path d="M5050 546 l0 -546 70 0 70 0 0 210 0 210 158 0 c275 0 382 42 449
174 35 67 43 187 19 269 -22 76 -94 154 -178 193 l-63 29 -262 3 -263 3 0
-545z m481 414 c98 -27 153 -104 153 -210 -1 -75 -17 -113 -68 -158 -47 -41
-107 -52 -281 -52 l-145 0 0 215 0 215 153 0 c83 0 168 -5 188 -10z"/>
<path d="M6010 545 l0 -545 350 0 350 0 0 60 0 60 -275 0 -275 0 0 190 0 190
235 0 235 0 0 60 0 60 -235 0 -235 0 0 175 0 175 270 0 270 0 0 60 0 60 -345
0 -345 0 0 -545z"/>
<path d="M7007 598 c-103 -271 -196 -517 -207 -546 l-20 -52 75 0 c69 0 76 2
84 22 4 13 27 76 50 140 l43 118 227 0 228 0 50 -137 50 -138 76 -3 76 -3 -22
59 c-12 32 -105 278 -207 545 l-185 487 -65 0 -65 0 -188 -492z m347 48 c47
-131 86 -240 86 -242 0 -2 -81 -4 -181 -4 -141 0 -180 3 -177 13 82 236 175
484 180 479 3 -4 45 -114 92 -246z"/>
<path d="M7880 545 l0 -545 75 0 75 0 0 181 0 181 61 69 c34 38 65 69 69 69 4
0 92 -112 196 -250 l189 -250 88 0 88 0 -231 304 -230 305 210 236 c115 130
210 238 210 240 0 3 -38 5 -84 5 l-85 0 -238 -266 -238 -266 -3 266 -2 266
-75 0 -75 0 0 -545z"/>
<path d="M8840 545 l0 -545 350 0 350 0 0 60 0 60 -275 0 -275 0 0 190 0 190
235 0 235 0 0 60 0 60 -235 0 -235 0 0 175 0 175 270 0 270 0 0 60 0 60 -345
0 -345 0 0 -545z"/>
</g>
</svg>
