<svg xmlns="http://www.w3.org/2000/svg" viewBox="0 0 990.000000 788.000000">
<g transform="translate(0,788) scale(0.1,-0.1)"
fill="white" stroke="none">
<path d="M6578 7849 c-14 -19 -80 -113 -148 -209 -68 -96 -144 -204 -170 -240
-26 -36 -134 -189 -240 -340 -107 -151 -257 -363 -333 -470 l-138 -195 -92 -6
c-90 -6 -195 -30 -404 -90 -80 -23 -107 -27 -123 -19 -24 13 -26 22 -37 183
-6 79 -14 131 -21 136 -6 4 -68 17 -137 30 -118 21 -125 24 -120 44 17 81 46
289 41 294 -5 6 -487 -41 -547 -53 -26 -5 -44 19 -355 471 l-329 477 -1250 -6
c-687 -3 -1453 -6 -1701 -6 l-451 0 -7 -957 c-3 -527 -9 -1249 -12 -1604 l-7
-646 333 -6 c182 -3 334 -7 336 -10 2 -2 -3 -24 -12 -48 -36 -100 -24 -289 26
-422 18 -47 19 -73 13 -497 l-6 -448 -56 -6 c-31 -3 -186 -8 -345 -12 l-288
-7 6 -451 c4 -248 11 -964 17 -1591 5 -627 11 -1141 13 -1142 1 -2 772 1 1712
7 940 5 1897 10 2126 10 l418 0 2 839 3 840 351 -469 351 -470 69 101 c38 55
97 140 132 189 34 50 90 130 125 180 34 49 127 184 207 299 l145 209 3 -866 2
-865 1007 6 c553 4 1503 7 2110 7 l1103 0 0 1580 0 1580 -297 2 -298 3 -3 723
-2 722 300 0 300 0 0 1614 0 1613 -957 7 c-527 3 -1269 9 -1649 12 l-691 7
-25 -34z m-3352 -387 c5 -4 120 -160 254 -347 422 -590 462 -645 466 -645 1 0
15 5 30 10 40 16 153 30 185 23 35 -7 36 -20 9 -98 -41 -118 -39 -119 172
-126 108 -3 181 -10 196 -17 21 -12 22 -18 22 -138 0 -69 4 -134 10 -144 14
-26 53 -36 250 -61 225 -29 253 -29 317 4 79 41 202 59 416 62 l188 2 532 732
531 731 1368 0 1368 0 0 -608 c0 -335 3 -886 7 -1225 l6 -617 -281 0 -282 0 0
-1100 0 -1100 113 0 c63 0 189 -3 280 -7 l167 -6 0 -1195 0 -1195 -577 6
c-318 4 -1005 9 -1528 12 -522 3 -1051 8 -1174 11 l-224 6 7 1171 c4 643 9
1174 12 1179 3 4 121 8 262 8 141 0 262 4 268 8 8 5 13 154 18 487 5 307 4
476 -2 470 -60 -62 -130 -153 -202 -261 -77 -116 -90 -142 -115 -232 -15 -57
-36 -113 -45 -125 -10 -12 -49 -42 -86 -66 -62 -38 -78 -56 -152 -164 l-82
-122 15 -83 c20 -118 27 -220 18 -271 -8 -42 -10 -45 -63 -64 -36 -13 -93 -21
-165 -24 l-110 -6 -24 -36 c-21 -33 -249 -370 -493 -731 -54 -80 -103 -145
-108 -145 -6 0 -99 133 -208 295 l-197 295 -43 -22 c-160 -81 -408 9 -461 166
-24 74 -7 215 33 261 7 8 16 44 19 79 4 43 12 73 27 93 l22 29 -107 160 c-59
87 -112 159 -117 159 -5 0 -29 -14 -54 -30 -24 -17 -62 -37 -85 -45 -48 -17
-135 -20 -144 -5 -4 6 -41 28 -84 49 -81 41 -145 101 -158 148 -16 58 -7 196
20 303 14 58 31 144 38 191 l12 85 -69 104 -69 103 -3 -518 c-1 -285 -1 -520
1 -522 2 -1 132 -6 288 -11 l284 -7 0 -1195 0 -1195 -1767 -3 -1768 -2 0 1203
0 1203 324 -4 323 -4 8 705 7 705 -26 65 c-35 89 -36 168 -1 219 l25 37 0 260
0 261 -308 0 -309 0 -6 473 c-4 259 -7 806 -7 1215 l0 742 1388 0 c763 0 1392
-4 1398 -8z"/>
<path d="M670 6273 l0 -1010 61 -7 c34 -3 169 -6 300 -6 130 0 243 -2 251 -5
10 -4 12 -31 10 -116 -4 -124 6 -135 32 -37 31 113 108 342 132 389 24 49 46
69 139 132 60 42 127 119 150 175 8 19 20 75 26 126 6 50 21 141 35 201 30
133 54 173 201 324 85 88 104 103 116 93 35 -30 129 -275 142 -372 11 -82 29
-120 58 -120 13 0 95 37 183 82 159 82 315 138 382 138 24 0 42 -8 58 -25 19
-20 29 -24 56 -19 38 8 240 102 346 162 117 66 137 56 137 -72 1 -79 2 -81 26
-84 14 -2 74 17 132 42 59 26 114 46 123 46 8 0 24 5 35 11 40 21 15 72 -149
304 -86 121 -223 316 -306 433 l-150 212 -1031 0 c-566 0 -1135 3 -1262 7
l-233 6 0 -1010z"/>
<path d="M6901 7167 c-25 -34 -233 -325 -463 -647 l-419 -585 93 -31 c127 -43
130 -44 311 -135 291 -147 612 -288 747 -330 56 -17 99 -23 170 -23 83 0 103
3 155 28 53 24 63 33 84 79 35 73 140 175 223 214 143 69 179 75 548 83 407
10 435 15 649 123 142 71 146 72 232 75 84 4 88 3 104 -21 36 -56 28 -199 -16
-281 -32 -60 -200 -266 -270 -330 -155 -144 -369 -244 -629 -294 -134 -27
-158 -30 -315 -42 -84 -7 -177 -23 -265 -45 -169 -42 -425 -127 -458 -152 -16
-12 -35 -49 -56 -113 -48 -137 -62 -165 -141 -265 -39 -49 -96 -124 -128 -165
-31 -41 -100 -124 -152 -185 l-97 -110 6 -145 c12 -306 39 -1271 35 -1274 -2
-2 -131 -7 -286 -12 l-283 -7 0 -1003 0 -1004 553 0 c305 0 1000 -3 1545 -7
l992 -6 0 998 0 998 -275 -5 -275 -5 0 151 c0 219 22 2471 25 2473 1 2 127 6
281 10 l279 8 3 1023 2 1022 -1232 0 -1233 -1 -44 -62z"/>
<path d="M1976 6278 c-91 -144 -135 -272 -152 -446 -6 -66 -11 -80 -51 -132
-24 -32 -84 -98 -132 -147 -49 -48 -98 -106 -109 -128 -27 -55 -122 -348 -183
-568 -69 -251 -76 -271 -115 -349 -49 -97 -53 -144 -20 -212 26 -54 144 -176
169 -176 45 0 92 26 149 83 54 53 70 79 114 177 29 63 60 137 69 164 20 56 82
120 153 159 26 14 101 40 167 57 201 54 232 83 289 283 10 31 28 69 40 84 l24
28 58 -25 c97 -39 407 -186 594 -280 275 -139 321 -173 508 -380 153 -169 166
-218 111 -433 -54 -210 -56 -230 -44 -387 6 -80 3 -109 -15 -180 -24 -100 -37
-283 -22 -322 13 -32 81 -79 146 -101 65 -22 92 -21 126 3 55 39 103 52 234
61 72 6 229 22 349 37 l217 27 68 -58 c37 -32 102 -83 145 -114 42 -30 77 -58
77 -62 0 -4 -48 -41 -107 -82 -58 -41 -127 -92 -152 -115 -73 -64 -101 -80
-178 -103 -76 -23 -109 -50 -148 -123 l-19 -37 29 -32 30 -31 -30 -25 c-106
-89 -127 -121 -109 -171 16 -44 57 -66 134 -70 86 -5 154 22 165 66 3 15 18
53 32 85 24 54 29 58 53 54 46 -10 101 25 164 101 62 77 120 124 202 165 67
34 107 69 146 126 17 25 33 48 35 51 2 2 36 -30 76 -72 71 -74 73 -76 157 -98
47 -12 108 -35 137 -51 62 -34 135 -52 176 -43 l30 6 -6 77 c-5 86 -38 175
-69 192 -11 6 -42 7 -73 4 -30 -4 -70 -4 -90 -1 -29 6 -38 14 -55 53 -11 26
-35 59 -52 73 l-31 26 37 37 c46 46 134 91 206 106 30 6 114 18 186 26 182 21
246 45 284 108 16 26 20 51 20 131 0 140 9 155 193 328 222 208 297 285 367
379 35 46 98 116 140 156 80 75 199 223 263 328 50 81 91 183 113 279 22 96
29 101 189 145 62 17 148 47 192 67 147 68 255 93 613 143 232 33 313 54 437
111 224 104 455 308 567 502 36 63 34 118 -6 129 -43 11 -92 -5 -178 -60 -44
-29 -122 -69 -173 -89 l-92 -37 -355 -1 c-397 -1 -442 -6 -572 -67 -40 -19
-93 -52 -117 -73 -53 -46 -118 -144 -127 -189 -5 -29 -14 -37 -67 -62 -59 -26
-69 -28 -197 -28 -118 1 -147 4 -233 29 -55 16 -131 48 -175 73 -174 101 -515
261 -642 303 -295 96 -752 80 -1154 -42 -83 -25 -67 -25 -187 1 -52 11 -160
27 -240 36 -212 24 -283 41 -372 88 -42 22 -76 44 -75 49 2 4 41 38 88 75 93
75 106 97 65 113 -38 14 -190 12 -335 -5 -147 -17 -190 -18 -225 -5 -25 9 -25
11 -11 39 8 15 38 48 66 71 96 81 45 112 -105 66 -44 -13 -118 -36 -165 -51
-115 -35 -262 -65 -288 -58 -29 7 -28 31 3 73 32 44 32 68 -1 76 -39 10 -97
-11 -226 -82 -95 -53 -259 -124 -284 -124 -3 0 -2 20 2 45 6 46 6 46 -20 40
-14 -3 -38 -7 -52 -10 -31 -7 -68 -25 -284 -138 -91 -47 -182 -93 -202 -102
-37 -15 -38 -15 -51 12 -14 28 -47 165 -66 276 -11 62 -35 105 -75 131 -40 25
-54 20 -90 -36z m3824 -2145 c20 -26 22 -35 16 -113 -17 -218 -69 -448 -126
-559 -29 -58 -98 -113 -176 -140 -149 -52 -196 -79 -260 -148 -47 -51 -65 -64
-80 -59 -15 5 -89 97 -102 128 -2 4 41 29 95 56 169 83 233 133 233 178 0 48
-89 84 -209 84 -64 0 -77 -9 -87 -58 -3 -17 -19 -43 -35 -58 -25 -24 -39 -29
-97 -32 -37 -1 -73 1 -81 7 -41 27 -54 515 -16 568 12 16 37 19 252 24 186 6
261 12 343 29 117 24 207 60 241 96 30 32 62 30 89 -3z m-1529 -470 c35 -38
179 -257 179 -271 0 -17 -28 -28 -101 -41 -68 -11 -239 -15 -239 -5 0 3 11 20
25 38 27 36 85 203 85 248 0 31 9 58 19 58 4 0 18 -12 32 -27z"/>
<path d="M5613 4000 c-34 -16 -87 -36 -120 -44 -76 -19 -251 -36 -375 -36 -55
0 -108 -5 -119 -10 -18 -10 -19 -23 -19 -190 0 -146 3 -180 14 -180 19 0 32
19 40 56 4 18 15 39 25 49 26 23 174 31 271 15 l75 -12 75 -79 c94 -99 110
-102 145 -24 39 90 91 299 101 416 l7 69 -29 0 c-16 0 -57 -13 -91 -30z"/>
<path d="M2468 5020 c-16 -10 -41 -67 -53 -123 -7 -36 -67 -102 -119 -131 -23
-13 -70 -33 -106 -43 -36 -11 -99 -30 -140 -43 -150 -45 -221 -117 -283 -281
-58 -155 -126 -244 -247 -324 -76 -50 -93 -53 -172 -26 l-55 19 -6 -532 c-4
-292 -7 -623 -7 -735 l0 -204 -327 4 -328 4 -3 -1004 -2 -1004 1577 7 c867 3
1578 8 1580 10 2 2 0 445 -3 985 l-7 981 -288 0 -288 0 6 943 c3 518 7 943 8
945 2 2 80 -113 173 -254 102 -154 173 -252 176 -243 19 54 56 225 56 259 0
35 -7 49 -48 93 -26 29 -78 89 -115 134 -90 109 -163 174 -261 232 -139 82
-617 317 -681 335 -11 3 -28 1 -37 -4z"/>
<path d="M4420 3073 c-182 -40 -233 -52 -238 -57 -3 -3 43 -78 102 -166 121
-182 108 -175 217 -118 70 37 119 86 157 160 l30 58 -34 20 c-18 12 -52 43
-74 70 -47 56 -52 57 -160 33z"/>
<path d="M5693 3015 c-68 -19 -133 -52 -133 -68 1 -33 26 -44 116 -51 l91 -7
25 38 c14 21 32 53 42 71 l17 32 -53 -1 c-29 0 -77 -7 -105 -14z"/>
<path d="M5139 2562 c-57 -38 -174 -119 -259 -182 -85 -62 -163 -115 -172
-118 -10 -2 -18 -9 -18 -14 0 -5 71 -118 159 -250 l159 -240 69 98 c245 348
416 599 417 612 2 24 -193 162 -229 162 -12 0 -68 -31 -126 -68z"/>
</g>
</svg>
