<svg viewBox="0 0 1371 730" xmlns="http://www.w3.org/2000/svg">
    <path fill="white" fill-opacity="0.6" d=" M 1257.99 34.01 C 1260.65 29.80 1263.17 25.45 1266.64 21.83 C 1264.87 33.34 1262.46 44.75 1260.75 56.28 C 1260.18 64.86 1258.75 73.37 1258.43 81.97 C 1258.17 87.70 1256.63 93.55 1258.32 99.21 C 1257.22 100.22 1256.13 101.24 1255.02 102.21 C 1245.95 107.50 1238.15 114.59 1229.50 120.49 C 1202.13 139.22 1174.28 157.35 1144.98 172.95 C 1137.01 177.06 1129.28 181.65 1121.04 185.22 C 1125.28 179.77 1130.63 175.40 1135.92 171.03 C 1144.05 162.78 1152.91 155.30 1161.08 147.09 C 1170.39 137.40 1180.24 128.24 1189.26 118.27 C 1213.82 91.59 1237.26 63.79 1257.99 34.01 Z"/>
    <path fill="white" d=" M 1315.42 50.73 C 1315.83 48.03 1319.10 46.63 1321.03 44.91 C 1320.14 48.92 1318.71 52.87 1316.16 56.14 C 1315.94 54.33 1315.63 52.53 1315.42 50.73 Z"/>
    <path fill="white" d=" M 1297.68 66.68 C 1303.84 61.64 1309.17 55.67 1315.42 50.73 C 1315.63 52.53 1315.94 54.33 1316.16 56.14 C 1310.79 70.23 1305.50 84.37 1300.98 98.76 C 1297.46 107.85 1295.42 117.39 1292.98 126.79 C 1282.86 167.53 1276.15 209.21 1274.51 251.18 C 1274.36 259.67 1274.23 268.16 1274.24 276.65 C 1273.23 287.11 1274.34 297.58 1274.53 308.04 C 1274.98 321.55 1276.77 334.96 1277.92 348.42 C 1279.26 358.39 1281.08 368.30 1282.65 378.24 C 1284.13 386.78 1285.20 395.41 1287.40 403.81 C 1290.16 414.32 1292.55 424.93 1295.62 435.36 C 1297.87 445.05 1301.72 454.28 1304.32 463.86 C 1304.32 464.68 1304.32 466.34 1304.32 467.17 C 1302.84 466.14 1301.38 465.12 1300.00 464.01 C 1294.92 458.41 1290.64 452.11 1285.55 446.51 C 1274.85 433.81 1263.18 421.99 1251.39 410.32 C 1244.58 403.17 1236.81 397.07 1229.47 390.51 C 1216.74 379.05 1202.59 369.38 1188.96 359.07 C 1177.42 350.75 1165.49 342.96 1153.13 335.93 C 1135.87 324.63 1117.50 315.12 1099.08 305.88 C 1077.20 294.70 1054.40 285.51 1031.63 276.36 C 1026.52 274.35 1021.32 272.58 1016.12 270.85 C 1009.63 268.70 1003.50 265.51 996.78 264.05 C 986.66 261.17 976.68 257.77 966.46 255.22 C 958.88 253.10 951.18 251.44 943.68 249.08 C 949.95 246.97 956.49 245.82 962.90 244.17 C 977.41 240.74 991.75 236.64 1006.03 232.34 C 1018.73 228.80 1031.01 223.92 1043.40 219.44 C 1068.04 210.59 1091.93 199.82 1115.42 188.29 C 1117.30 187.31 1119.17 186.27 1121.04 185.22 C 1129.28 181.65 1137.01 177.06 1144.98 172.95 C 1174.28 157.35 1202.13 139.22 1229.50 120.49 C 1238.15 114.59 1245.95 107.50 1255.02 102.21 C 1258.39 101.10 1261.94 100.09 1264.66 97.65 C 1268.91 93.93 1273.05 90.02 1277.95 87.14 C 1281.29 85.26 1283.88 82.40 1285.73 79.07 C 1283.16 80.31 1280.63 81.63 1278.26 83.21 C 1284.61 77.56 1291.30 72.31 1297.68 66.68 Z"/>
    <path fill="white" d=" M 1278.26 83.21 C 1280.63 81.63 1283.16 80.31 1285.73 79.07 C 1283.88 82.40 1281.29 85.26 1277.95 87.14 C 1273.05 90.02 1268.91 93.93 1264.66 97.65 C 1261.94 100.09 1258.39 101.10 1255.02 102.21 C 1256.13 101.24 1257.22 100.22 1258.32 99.21 C 1264.80 93.68 1271.58 88.50 1278.26 83.21 Z"/>
    <path fill="white" fill-opacity="0.3" d=" M 1325.96 99.96 C 1336.93 94.41 1347.27 87.69 1358.18 82.01 C 1354.57 89.46 1349.15 95.81 1344.79 102.81 C 1333.06 119.90 1322.77 137.94 1313.48 156.45 C 1300.17 182.23 1289.05 209.07 1279.46 236.42 C 1277.90 241.37 1276.70 246.45 1274.51 251.18 C 1276.15 209.21 1282.86 167.53 1292.98 126.79 C 1295.42 117.39 1297.46 107.85 1300.98 98.76 C 1300.31 103.58 1299.10 108.29 1297.98 113.01 C 1307.92 110.14 1316.81 104.65 1325.96 99.96 Z"/>
    <path fill="white" fill-opacity="0.3" d=" M 1100.12 179.98 C 1112.11 177.28 1124.58 176.03 1135.92 171.03 C 1130.63 175.40 1125.28 179.77 1121.04 185.22 C 1119.17 186.27 1117.30 187.31 1115.42 188.29 C 1091.93 199.82 1068.04 210.59 1043.40 219.44 C 1031.01 223.92 1018.73 228.80 1006.03 232.34 C 1007.03 231.49 1008.05 230.64 1009.09 229.80 C 1001.84 225.80 995.06 221.00 987.71 217.20 C 980.34 213.36 973.48 208.61 966.04 204.90 C 959.52 201.61 952.87 198.54 946.76 194.51 C 964.84 193.82 982.96 194.45 1001.02 192.96 C 1034.27 190.61 1067.46 186.78 1100.12 179.98 Z"/>
    <path fill="white" fill-opacity="0.6" d=" M 996.78 264.05 C 1003.50 265.51 1009.63 268.70 1016.12 270.85 C 1021.32 272.58 1026.52 274.35 1031.63 276.36 C 1054.40 285.51 1077.20 294.70 1099.08 305.88 C 1117.50 315.12 1135.87 324.63 1153.13 335.93 C 1147.00 334.64 1141.01 332.83 1135.06 330.89 C 1100.80 320.87 1065.83 313.25 1030.55 307.84 C 1016.22 306.06 1001.90 304.14 987.52 302.79 C 971.94 301.78 956.37 300.62 940.75 300.39 C 948.97 295.81 957.77 292.38 966.11 288.03 C 978.83 281.42 991.73 275.06 1003.89 267.43 C 1001.49 266.34 999.11 265.26 996.78 264.05 Z"/>
    <path fill="white" fill-opacity="0.6" d=" M 1274.53 308.04 C 1274.34 297.58 1273.23 287.11 1274.24 276.65 C 1276.89 284.32 1278.29 292.34 1280.92 300.02 C 1285.11 313.62 1289.44 327.19 1294.45 340.51 C 1297.35 348.46 1301.18 356.02 1303.95 364.02 C 1311.46 382.23 1320.58 399.73 1329.88 417.08 C 1334.26 425.35 1339.69 433.02 1343.88 441.39 C 1336.85 437.21 1331.24 431.15 1324.70 426.31 C 1312.68 417.12 1300.70 407.76 1287.76 399.91 C 1287.62 401.20 1287.51 402.51 1287.40 403.81 C 1285.20 395.41 1284.13 386.78 1282.65 378.24 C 1281.08 368.30 1279.26 358.39 1277.92 348.42 C 1276.77 334.96 1274.98 321.55 1274.53 308.04 Z"/>
    <path fill="white" d=" M 586.32 321.47 C 594.96 321.45 603.61 321.45 612.25 321.46 C 612.60 377.73 612.14 434.01 612.49 490.29 C 619.31 484.18 625.05 477.00 631.53 470.54 C 643.52 458.54 655.00 446.06 666.85 433.92 C 678.10 421.49 690.38 410.04 701.55 397.54 C 703.58 395.47 705.63 392.61 708.93 393.12 C 718.61 393.29 728.32 392.80 737.99 393.45 C 725.28 407.24 711.53 420.05 698.84 433.87 C 687.79 445.32 676.34 456.39 665.37 467.91 C 689.44 499.12 713.10 530.65 736.95 562.02 C 738.20 563.66 739.33 565.38 740.45 567.13 C 731.94 567.24 723.43 567.14 714.93 567.22 C 712.47 567.19 709.40 567.43 707.98 564.97 C 687.85 538.81 667.90 512.51 647.66 486.45 C 636.95 496.47 626.96 507.23 616.44 517.46 C 614.72 519.36 611.97 521.02 612.39 523.97 C 612.31 538.37 612.43 552.78 612.34 567.18 C 603.66 567.15 594.99 567.24 586.31 567.17 C 586.29 485.27 586.28 403.37 586.32 321.47 Z"/>
    <path fill="white" fill-opacity="0.3" d=" M 1135.06 330.89 C 1141.01 332.83 1147.00 334.64 1153.13 335.93 C 1165.49 342.96 1177.42 350.75 1188.96 359.07 C 1202.59 369.38 1216.74 379.05 1229.47 390.51 C 1236.81 397.07 1244.58 403.17 1251.39 410.32 C 1250.29 410.44 1249.20 410.56 1248.14 410.69 C 1247.36 420.11 1247.75 429.56 1247.76 439.00 C 1247.98 454.40 1248.46 469.84 1250.62 485.11 C 1250.91 487.84 1250.89 490.58 1250.85 493.33 C 1246.45 487.73 1244.75 480.71 1241.55 474.48 C 1237.46 466.36 1232.97 458.45 1228.56 450.50 C 1220.30 434.58 1209.99 419.86 1200.00 405.00 C 1194.55 397.45 1188.73 390.19 1183.28 382.65 C 1170.69 367.65 1158.19 352.53 1144.38 338.62 C 1141.55 335.73 1138.42 333.14 1135.06 330.89 Z"/>
    <path fill="white" d=" M 59.70 398.82 C 72.64 390.29 88.91 388.01 104.06 390.12 C 115.14 391.66 125.86 396.23 134.21 403.75 C 140.74 409.21 145.43 416.43 149.65 423.74 C 158.64 408.98 172.67 396.98 189.47 392.28 C 205.89 387.67 224.03 388.45 239.76 395.18 C 252.92 400.88 263.35 412.04 268.76 425.26 C 273.53 436.16 275.15 448.19 275.29 460.01 C 275.27 495.74 275.30 531.47 275.27 567.20 C 266.61 567.16 257.95 567.19 249.29 567.20 C 249.00 538.47 249.23 509.73 249.16 481.00 C 249.02 467.87 250.18 454.29 245.57 441.71 C 242.15 430.73 234.10 421.00 223.31 416.68 C 215.39 413.12 206.54 412.80 198.01 413.44 C 184.37 414.91 171.77 423.04 164.62 434.74 C 158.73 443.99 156.11 455.07 156.22 465.98 C 156.10 499.72 156.29 533.47 156.15 567.21 C 147.58 567.11 139.00 567.31 130.44 567.08 C 130.61 538.05 130.46 509.02 130.50 480.00 C 130.33 469.16 131.27 458.14 128.59 447.52 C 126.07 436.27 119.88 425.23 109.70 419.30 C 102.60 415.04 94.28 412.93 86.00 413.25 C 73.45 412.75 60.94 418.26 52.45 427.45 C 42.26 437.86 37.70 452.68 37.51 467.01 C 37.52 500.39 37.49 533.76 37.53 567.14 C 28.84 567.21 20.15 567.23 11.47 567.13 C 11.48 509.15 11.52 451.16 11.45 393.18 C 20.11 393.10 28.78 393.18 37.45 393.08 C 37.58 402.50 37.39 411.93 37.58 421.36 C 44.08 413.07 50.75 404.62 59.70 398.82 Z"/>
    <path fill="white" d=" M 813.34 389.98 C 832.64 387.84 852.74 391.50 869.63 401.23 C 882.78 408.59 893.65 419.62 901.54 432.39 C 917.99 459.42 918.82 495.10 903.99 523.01 C 890.40 549.53 862.72 568.10 833.02 570.62 C 807.37 573.53 780.54 565.11 761.58 547.48 C 753.50 539.31 746.17 530.20 741.58 519.57 C 733.79 503.28 731.91 484.72 734.07 466.93 C 736.41 451.48 742.53 436.53 752.16 424.18 C 766.79 405.09 789.39 392.40 813.34 389.98 Z"/>
    <path fill="white" d=" M 971.00 402.99 C 982.74 393.47 998.07 389.35 1013.00 389.43 C 1028.23 389.21 1043.95 393.37 1055.95 403.04 C 1068.23 412.75 1075.69 427.61 1078.24 442.89 C 1080.08 452.15 1079.40 461.62 1079.52 471.00 C 1079.56 503.05 1079.44 535.10 1079.59 567.15 C 1070.90 567.24 1062.21 567.15 1053.52 567.20 C 1053.57 536.46 1053.52 505.73 1053.54 475.00 C 1053.55 464.10 1053.96 452.82 1049.83 442.51 C 1045.70 429.75 1035.18 419.20 1022.26 415.45 C 1014.80 412.90 1006.78 413.05 999.01 413.42 C 984.68 414.95 970.89 422.69 962.88 434.80 C 956.24 444.46 953.31 456.36 953.49 468.00 C 953.52 501.03 953.42 534.05 953.54 567.08 C 944.89 567.27 936.24 567.18 927.60 567.20 C 927.40 509.19 927.45 451.18 927.58 393.17 C 936.20 393.12 944.83 393.15 953.45 393.14 C 953.57 402.88 953.35 412.61 953.52 422.35 C 958.92 415.54 963.96 408.25 971.00 402.99 Z"/>
    <path fill="white" d=" M 308.38 405.03 C 323.78 398.06 340.05 392.67 356.95 391.08 C 376.07 389.39 396.27 390.43 413.67 399.29 C 428.19 406.48 438.70 420.48 442.85 436.01 C 445.05 444.14 445.91 452.58 445.78 460.99 C 445.75 496.36 445.87 531.72 445.69 567.08 C 437.23 567.25 428.77 567.21 420.30 567.15 C 420.23 558.89 420.58 550.61 420.10 542.36 C 414.76 546.97 410.37 552.64 404.45 556.56 C 387.37 569.26 364.93 572.72 344.22 569.77 C 327.18 566.90 309.82 558.67 300.40 543.61 C 293.52 533.19 291.78 520.10 293.35 507.91 C 294.84 493.55 303.15 480.12 315.19 472.19 C 324.66 465.82 335.74 462.24 346.96 460.53 C 356.54 458.77 366.31 459.32 376.00 459.32 C 390.81 459.31 405.36 462.54 419.71 465.92 C 419.88 459.22 420.23 452.37 418.44 445.83 C 415.96 436.56 410.54 427.75 402.29 422.57 C 391.65 415.60 378.49 413.74 366.00 414.31 C 348.58 414.02 331.74 419.58 315.98 426.56 C 313.26 419.45 310.75 412.26 308.38 405.03 Z"/>
    <path fill="white" d=" M 522.43 408.38 C 535.76 395.95 554.16 388.97 572.43 390.33 C 572.43 399.60 572.49 408.86 572.44 418.13 C 553.89 417.45 534.69 424.13 521.98 437.96 C 510.67 449.62 504.73 465.44 502.46 481.31 C 501.13 489.14 501.50 497.10 501.42 505.00 C 501.42 525.73 501.42 546.46 501.41 567.19 C 492.75 567.13 484.08 567.34 475.43 567.02 C 475.48 509.07 475.50 451.12 475.43 393.17 C 484.08 393.12 492.73 393.09 501.38 393.18 C 501.55 407.90 501.21 422.62 501.56 437.33 C 506.87 426.64 513.49 416.41 522.43 408.38 Z"/>
    <path fill="#333" d=" M 810.52 413.66 C 822.93 411.20 836.15 412.24 847.80 417.32 C 867.12 425.36 881.32 443.46 886.01 463.69 C 888.69 476.56 888.48 490.22 884.50 502.82 C 879.29 520.23 866.35 535.32 849.64 542.61 C 838.73 547.42 826.51 548.63 814.75 547.16 C 799.03 544.70 784.03 536.35 774.49 523.49 C 765.81 512.25 760.37 498.29 760.13 484.02 C 758.62 463.39 766.27 441.76 781.97 427.97 C 789.90 420.59 799.97 415.87 810.52 413.66 Z"/>
    <path fill="#97bec4" d=" M 1300.00 464.01 C 1301.38 465.12 1302.84 466.14 1304.32 467.17 C 1304.32 466.34 1304.32 464.68 1304.32 463.86 C 1306.64 467.19 1308.02 471.10 1308.30 475.16 C 1304.72 472.13 1301.98 468.23 1300.00 464.01 Z"/>
    <path fill="#333" d=" M 339.23 485.43 C 354.97 478.28 372.79 479.21 389.59 480.71 C 400.08 481.86 410.44 484.11 420.55 487.13 C 420.46 493.71 420.69 500.29 420.40 506.87 C 419.42 519.60 411.91 531.34 401.42 538.42 C 387.45 548.17 369.61 551.37 352.91 549.03 C 340.71 547.07 328.24 540.70 322.47 529.29 C 318.94 523.00 318.78 515.48 319.73 508.51 C 321.77 498.12 329.66 489.59 339.23 485.43 Z"/>
    <path fill="white" d=" M 630.54 587.63 C 634.50 587.65 638.47 587.65 642.45 587.61 C 642.61 631.61 642.49 675.61 642.51 719.62 C 638.51 719.61 634.52 719.61 630.53 719.62 C 630.55 675.62 630.54 631.63 630.54 587.63 Z"/>
    <path fill="white" d=" M 809.65 598.86 C 814.71 596.96 821.38 600.26 821.60 605.99 C 822.41 612.61 813.83 618.03 808.36 613.78 C 802.12 610.89 803.34 600.90 809.65 598.86 Z"/>
    <path fill="white" d=" M 760.84 615.20 C 764.76 614.60 768.74 614.74 772.67 615.29 C 772.74 622.76 772.58 630.24 772.77 637.72 C 780.77 637.90 788.78 637.54 796.78 637.97 C 797.15 641.47 797.22 645.01 797.11 648.54 C 788.98 648.66 780.85 648.50 772.72 648.55 C 772.74 665.38 772.50 682.22 772.85 699.04 C 772.73 703.66 774.68 708.84 779.34 710.54 C 785.38 712.42 791.77 710.54 797.44 708.26 C 797.50 711.94 797.58 715.63 797.50 719.32 C 789.70 721.60 781.21 722.79 773.27 720.61 C 765.67 718.38 761.03 710.67 760.80 703.03 C 760.54 684.83 760.96 666.62 760.58 648.42 C 754.71 648.58 748.84 648.62 742.97 648.52 C 742.82 644.98 742.78 641.44 742.76 637.91 C 748.75 637.69 754.75 637.80 760.76 637.78 C 760.74 630.25 760.64 622.72 760.84 615.20 Z"/>
    <path fill="white" d=" M 467.73 641.89 C 476.81 635.68 488.50 634.90 499.04 636.85 C 506.87 638.41 513.61 643.47 517.78 650.20 C 514.45 652.74 511.14 655.55 507.12 656.89 C 503.57 653.79 500.90 649.38 496.18 647.88 C 489.24 645.42 480.64 646.11 474.84 650.89 C 469.77 654.89 470.15 663.85 475.72 667.23 C 487.59 674.02 503.34 671.53 513.72 681.31 C 523.01 689.41 522.55 705.41 513.47 713.47 C 506.20 719.68 496.38 722.07 486.97 721.69 C 474.69 722.04 461.72 716.64 455.14 705.91 C 458.43 703.60 461.78 701.38 465.14 699.17 C 469.44 703.82 474.09 708.71 480.44 710.36 C 487.48 712.01 495.39 711.44 501.68 707.66 C 505.72 705.43 507.84 700.55 507.33 696.06 C 506.55 692.36 503.96 689.09 500.46 687.62 C 489.75 682.94 477.09 683.56 467.20 676.88 C 462.30 673.54 458.05 668.32 458.35 662.07 C 457.41 654.24 461.19 646.24 467.73 641.89 Z"/>
    <path fill="white" d=" M 560.43 636.80 C 573.23 634.72 587.09 636.44 597.83 644.15 C 614.46 655.19 619.70 678.81 611.74 696.66 C 606.45 709.18 594.36 718.17 581.15 720.77 C 567.38 723.23 551.95 721.28 540.96 712.02 C 530.00 703.33 524.25 688.82 525.74 674.98 C 526.55 667.12 528.93 659.21 533.92 652.96 C 540.06 644.20 550.16 639.00 560.43 636.80 Z"/>
    <path fill="white" d=" M 871.34 636.42 C 885.18 634.52 900.07 637.85 910.53 647.44 C 926.43 661.79 928.18 688.44 915.23 705.26 C 906.84 716.29 892.68 722.05 879.01 721.68 C 866.48 722.07 853.56 717.32 845.02 707.99 C 830.52 692.35 830.33 665.57 844.96 649.95 C 851.74 642.44 861.41 637.88 871.34 636.42 Z"/>
    <path fill="white" d=" M 970.38 636.59 C 979.58 635.35 989.77 635.88 997.57 641.47 C 1005.40 646.85 1008.68 656.77 1008.67 665.93 C 1008.70 683.84 1008.66 701.75 1008.68 719.65 C 1004.74 719.58 1000.79 719.59 996.86 719.63 C 996.52 703.06 996.96 686.48 996.63 669.91 C 996.52 662.33 994.19 653.81 987.33 649.62 C 977.30 643.92 963.52 646.21 955.92 654.91 C 950.80 660.61 948.44 668.40 948.43 675.97 C 948.35 690.53 948.63 705.09 948.29 719.65 C 944.32 719.62 940.36 719.65 936.40 719.66 C 936.48 698.44 936.45 677.22 936.43 656.00 C 936.49 649.92 935.48 643.90 935.60 637.82 C 939.68 637.74 943.78 637.65 947.85 638.14 C 948.41 642.17 948.39 646.25 948.61 650.31 C 954.21 643.62 961.63 638.12 970.38 636.59 Z"/>
    <path fill="white" d=" M 1028.90 645.86 C 1036.07 637.71 1047.65 635.32 1058.07 636.04 C 1067.77 636.31 1078.10 640.96 1082.67 649.89 C 1080.76 653.51 1076.07 654.84 1072.82 657.16 C 1069.60 653.66 1066.58 649.53 1061.89 647.96 C 1054.79 645.29 1046.07 646.19 1040.09 651.02 C 1035.20 655.05 1035.51 663.66 1040.99 667.03 C 1050.34 672.56 1061.76 672.23 1071.65 676.33 C 1078.26 679.23 1084.21 684.85 1085.50 692.20 C 1086.15 697.79 1086.07 703.90 1082.74 708.71 C 1076.60 718.63 1064.05 722.13 1053.00 721.64 C 1040.56 722.29 1027.23 716.75 1020.78 705.74 C 1024.09 703.50 1027.40 701.25 1030.86 699.23 C 1035.66 706.08 1043.46 711.00 1051.95 711.25 C 1058.17 711.30 1065.04 710.22 1069.57 705.55 C 1072.91 702.69 1073.40 697.72 1072.16 693.73 C 1069.79 688.70 1064.17 686.58 1059.15 685.25 C 1049.26 682.59 1038.12 681.97 1030.08 674.91 C 1021.53 667.87 1021.54 653.74 1028.90 645.86 Z"/>
    <path fill="white" d=" M 662.34 637.94 C 666.28 637.67 670.24 637.66 674.15 638.22 C 674.42 654.50 674.12 670.79 674.30 687.07 C 674.33 695.10 676.68 704.49 684.28 708.61 C 695.51 714.25 710.89 710.42 717.53 699.57 C 721.29 693.79 722.49 686.76 722.48 679.98 C 722.53 666.03 722.47 652.09 722.50 638.15 C 726.46 637.70 730.45 637.73 734.44 637.80 C 734.50 658.86 734.41 679.94 734.48 701.01 C 734.47 707.22 735.07 713.41 735.42 719.62 C 731.22 719.61 727.02 719.65 722.83 719.55 C 722.66 715.34 722.54 711.13 722.47 706.92 C 717.15 714.42 708.89 719.61 699.87 721.30 C 691.14 722.29 681.68 721.83 674.11 716.89 C 666.69 712.27 662.86 703.50 662.36 695.01 C 662.10 685.68 661.62 676.34 661.81 667.00 C 662.00 657.31 661.32 647.59 662.34 637.94 Z"/>
    <path fill="white" d=" M 807.02 638.23 C 810.89 637.68 814.82 637.64 818.71 638.09 C 818.69 665.29 818.79 692.48 818.70 719.68 C 814.83 719.62 810.97 719.61 807.11 719.66 C 806.26 704.46 806.94 689.21 806.72 674.00 C 806.89 662.08 806.34 650.13 807.02 638.23 Z"/>
    <path fill="#333" d=" M 563.36 647.23 C 573.27 645.10 584.09 647.56 591.84 654.16 C 601.15 662.50 604.37 676.40 601.06 688.26 C 598.76 697.78 591.53 706.14 582.18 709.26 C 571.27 713.12 558.17 711.45 549.29 703.77 C 539.56 695.20 536.28 680.55 540.26 668.37 C 543.19 657.75 552.35 648.92 563.36 647.23 Z"/>
    <path fill="#333" d=" M 869.49 647.75 C 879.39 645.05 890.72 646.63 898.92 653.02 C 909.44 661.04 912.84 675.78 909.59 688.22 C 907.28 698.17 899.48 706.56 889.76 709.68 C 879.75 712.72 868.18 711.59 859.62 705.29 C 849.18 697.81 845.53 683.85 847.90 671.65 C 849.87 660.51 858.34 650.47 869.49 647.75 Z"/>
</svg>