<?xml version="1.0" ?>
<svg viewBox="0 0 103 79" xmlns="http://www.w3.org/2000/svg" fill="#d12727">
    <path d="M 7.02 3.92 C 11.05 2.77 15.13 4.34 18.79 5.98 C 17.41 7.49 16.03 9.00 14.64 10.49 C 12.04 8.37 9.38 6.31 7.02 3.92 Z"/>
    <path d="M 8.85 15.68 C 15.65 14.27 18.44 7.05 23.82 3.39 C 24.28 6.90 25.24 10.81 28.36 12.90 C 31.57 14.42 35.01 15.42 38.29 16.76 C 37.17 19.71 36.11 22.68 35.06 25.66 C 27.83 23.48 20.73 19.36 12.93 20.47 C 10.06 20.84 6.29 21.08 4.61 18.18 C 3.33 15.70 1.47 13.00 2.04 10.09 C 4.38 11.87 6.61 13.77 8.85 15.68 Z"/>
    <path d="M 42.82 9.98 C 43.71 9.56 44.61 9.14 45.51 8.72 C 46.82 9.19 48.13 9.66 49.44 10.14 C 49.86 11.05 50.27 11.95 50.68 12.86 C 49.89 15.06 49.09 17.26 48.30 19.47 C 44.72 21.10 41.14 22.73 37.56 24.36 C 39.37 19.59 41.04 14.76 42.82 9.98 Z"/>
    <path d="M 52.61 13.34 C 53.47 12.96 54.33 12.58 55.19 12.20 C 56.48 12.67 57.76 13.13 59.05 13.60 C 59.37 14.26 60.01 15.57 60.34 16.23 C 59.69 17.81 59.11 19.42 58.47 21.00 C 57.70 19.27 56.95 17.52 56.18 15.78 C 54.40 16.66 52.59 17.50 50.80 18.36 C 51.39 16.68 52.00 15.01 52.61 13.34 Z"/>
    <path d="M 62.20 16.86 C 63.05 16.50 63.91 16.14 64.76 15.77 C 66.05 16.19 67.34 16.61 68.64 17.02 C 69.06 18.19 70.12 19.38 69.54 20.69 C 68.04 25.20 66.28 29.61 64.79 34.12 C 63.06 30.58 61.44 26.99 59.77 23.42 C 60.55 21.22 61.38 19.04 62.20 16.86 Z"/>
    <path d="M 36.67 26.87 C 42.86 24.01 49.05 21.15 55.20 18.21 C 57.49 23.14 59.84 28.03 62.05 32.99 C 61.06 33.47 60.07 33.96 59.08 34.46 C 57.63 33.93 56.18 33.42 54.72 32.91 C 53.82 30.94 52.91 28.97 52.02 27.00 C 51.41 27.32 50.79 27.64 50.18 27.96 C 51.18 30.12 52.18 32.28 53.19 34.43 C 54.92 35.03 56.66 35.62 58.40 36.20 C 57.73 38.13 57.03 40.04 56.36 41.97 C 53.77 43.21 51.17 44.43 48.59 45.70 C 45.00 44.41 41.39 43.14 37.79 41.89 C 37.28 36.90 34.18 31.74 36.67 26.87 Z"/>
    <path d="M 71.74 20.44 C 72.39 20.15 73.67 19.59 74.32 19.30 C 75.58 19.75 76.85 20.19 78.12 20.63 C 78.44 21.25 79.09 22.49 79.41 23.10 C 77.71 27.91 76.04 32.73 74.30 37.52 C 71.71 36.58 69.12 35.65 66.51 34.75 C 68.23 29.97 69.99 25.21 71.74 20.44 Z"/>
    <path d="M 78.62 31.50 C 85.62 34.24 92.84 36.40 99.77 39.31 C 103.26 40.88 102.34 46.69 98.79 47.57 C 96.90 48.17 94.99 47.40 93.22 46.78 C 87.27 44.56 81.29 42.42 75.33 40.22 C 76.47 37.33 77.53 34.41 78.62 31.50 Z"/>
    <path d="M 57.73 43.30 C 58.98 40.46 59.56 37.20 61.76 34.88 C 65.68 36.47 69.67 37.88 73.61 39.40 C 72.68 41.99 71.77 44.59 70.81 47.17 C 68.20 48.37 65.60 49.60 63.00 50.83 C 58.97 49.38 54.91 48.00 50.87 46.58 C 53.15 45.47 55.43 44.38 57.73 43.30 Z"/>
    <path d="M 37.18 43.61 C 45.59 46.43 53.97 49.31 62.36 52.19 C 62.37 59.23 62.54 66.26 62.59 73.30 C 50.45 73.27 38.31 73.32 26.17 73.32 C 29.89 63.43 33.51 53.51 37.18 43.61 Z"/>
</svg>